<?xml version="1.0" standalone="no"?>
<!DOCTYPE svg PUBLIC "-//W3C//DTD SVG 1.1//EN"
  "http://www.w3.org/Graphics/SVG/1.1/DTD/svg11.dtd">
<svg width="72mm" height="125.99999999999997mm" viewBox="-100 6.999999999999998 72 125.99999999999997" xmlns="http://www.w3.org/2000/svg" version="1.1">
	<title>svgOutput</title>
	<desc>made with tinkercad</desc>
<path d="M -97.8499984741211 48.907001495361314 L -97.82705688476562 48.887058258056626 L -97.78299713134766 48.84299850463866 L -97.73524475097656 48.7952423095703 L -97.67481231689453 48.73481369018553 L -97.62261199951172 48.682609558105455 L -97.55599975585938 48.616001129150376 L -97.50128936767578 48.56128692626952 L -97.43212890625 48.492130279541 L -97.37586212158203 48.43586349487303 L -97.31141662597656 48.371417999267564 L -97.24972534179688 48.30973052978514 L -96.94000244140625 47.999999999999986 L -92 43.06000137329101 L -59 10.060000419616697 L -58.071250915527344 9.131250381469725 L -57.974998474121094 9.024999618530272 L -57.720001220703125 8.793999671936033 L -57.444000244140625 8.590000152587889 L -57.34400177001953 8.529795646667479 L -57.150001525878906 8.413000106811522 L -56.8390007019043 8.265999794006346 L -56.63115692138672 8.19200038909912 L -56.51599884033203 8.151000022888182 L -56.18299865722656 8.06700038909912 L -55.84299850463867 8.017000198364256 L -55.5 7.999999999999998 L -55.27259826660156 7.999999999999998 L -55.08260726928711 7.999999999999998 L -54.908111572265625 7.999999999999998 L -52 7.999999999999998 L -45.5 7.999999999999998 L -45.15700149536133 8.017000198364256 L -44.81700134277344 8.06700038909912 L -44.48400115966797 8.151000022888182 L -44.36884307861328 8.19200038909912 L -44.1609992980957 8.265999794006346 L -43.849998474121094 8.413000106811522 L -43.555999755859375 8.590000152587889 L -43.279998779296875 8.793999671936033 L -43.025001525878906 9.024999618530272 L -43 9.052597045898436 L -42.79399871826172 9.27999973297119 L -42.59000015258789 9.555999755859373 L -42.41299819946289 9.850000381469725 L -42.26599884033203 10.161000251770018 L -42.1510009765625 10.48400020599365 L -42.06700134277344 10.81700038909912 L -42.016998291015625 11.156999588012694 L -42 11.499999999999998 L -42 12.28800010681152 L -42 14.999999999999996 L -42 18.499999999999996 L -39 18.499999999999996 L -39 21.499999999999996 L -42 21.499999999999996 L -42 24.57600021362304 L -42 24.999999999999993 L -42.016998291015625 25.343000411987298 L -42.06700134277344 25.683000564575188 L -42.1510009765625 26.016000747680657 L -42.26599884033203 26.33900070190429 L -42.40071105957031 26.6240005493164 L -42.41299819946289 26.649999618530266 L -42.59000015258789 26.944000244140618 L -42.79399871826172 27.219999313354485 L -43 27.447402954101555 L -43.025001525878906 27.47500038146972 L -43.279998779296875 27.70599937438964 L -43.555999755859375 27.909999847412102 L -43.849998474121094 28.08699989318847 L -44.1609992980957 28.23399925231933 L -44.48400115966797 28.349000930786126 L -44.81700134277344 28.433000564575188 L -45.055999755859375 28.468147277832024 L -45.15700149536133 28.482999801635735 L -45.5 28.499999999999993 L -45.5 41.49999999999999 L -45.15700149536133 41.51699829101562 L -45.055999755859375 41.53185272216796 L -44.81700134277344 41.56700134277343 L -44.48400115966797 41.65100097656249 L -44.1609992980957 41.765998840332024 L -43.849998474121094 41.91299819946288 L -43.555999755859375 42.09000015258788 L -43.279998779296875 42.29399871826171 L -43.025001525878906 42.5250015258789 L -43 42.55259704589843 L -42.79399871826172 42.77999877929687 L -42.59000015258789 43.05599975585937 L -42.41299819946289 43.34999847412109 L -42.26599884033203 43.660999298095696 L -42.1510009765625 43.98400115966796 L -42.06700134277344 44.31700134277343 L -42.016998291015625 44.65700149536132 L -42 44.99999999999999 L -42 45.05599975585937 L -42 48.499999999999986 L -39 48.499999999999986 L -39 51.499999999999986 L -42 51.499999999999986 L -42 52.2480010986328 L -42 53.49900054931639 L -43 53.49900054931639 L -45.499000549316406 53.49900054931639 L -45.499000549316406 52.2480010986328 L -45.5 52.2480010986328 L -48.500999450683594 52.2480010986328 L -48.500999450683594 53.49900054931639 L -49 53.49900054931639 L -51.00299835205078 53.49900054931639 L -51.00299835205078 53.75299835205077 L -51.00299835205078 56.50099945068358 L -49 56.50099945068358 L -48.500999450683594 56.50099945068358 L -48.500999450683594 57.75299835205077 L -45.5 57.75299835205077 L -45.499000549316406 57.75299835205077 L -45.499000549316406 56.50099945068358 L -43 56.50099945068358 L -42 56.50099945068358 L -42 57.75299835205077 L -42 58.499999999999986 L -39 58.499999999999986 L -39 61.499999999999986 L -42 61.499999999999986 L -42 78.49999999999999 L -39 78.49999999999999 L -39 81.49999999999999 L -42 81.49999999999999 L -42 82.2480010986328 L -42 83.49900054931639 L -43 83.49900054931639 L -45.499000549316406 83.49900054931639 L -45.499000549316406 82.2480010986328 L -45.5 82.2480010986328 L -48.500999450683594 82.2480010986328 L -48.500999450683594 83.49900054931639 L -49 83.49900054931639 L -51.00299835205078 83.49900054931639 L -51.00299835205078 86.50099945068358 L -49 86.50099945068358 L -48.500999450683594 86.50099945068358 L -48.500999450683594 87.75299835205077 L -45.5 87.75299835205077 L -45.499000549316406 87.75299835205077 L -45.499000549316406 86.50099945068358 L -43 86.50099945068358 L -42 86.50099945068358 L -42 87.75299835205077 L -42 88.49999999999999 L -39 88.49999999999999 L -39 91.49999999999999 L -42 91.49999999999999 L -42 94.99999999999999 L -42.016998291015625 95.34300231933592 L -42.06700134277344 95.68299865722655 L -42.1510009765625 96.015998840332 L -42.26599884033203 96.338996887207 L -42.41299819946289 96.65000152587888 L -42.59000015258789 96.94499969482419 L -42.79399871826172 97.2200012207031 L -43 97.44740295410153 L -43.025001525878906 97.47499847412107 L -43.279998779296875 97.70600128173825 L -43.555999755859375 97.91000366210935 L -43.849998474121094 98.08699798583982 L -44.1609992980957 98.23400115966794 L -44.357608795166016 98.30400085449216 L -44.48400115966797 98.34899902343747 L -44.81700134277344 98.43299865722653 L -45.15700149536133 98.48300170898435 L -45.5 98.49999999999997 L -45.5 111.49999999999997 L -45.15700149536133 111.5169982910156 L -45.055999755859375 111.53185272216794 L -44.81700134277344 111.56700134277341 L -44.48400115966797 111.65100097656247 L -44.1609992980957 111.765998840332 L -43.849998474121094 111.91300201416013 L -43.555999755859375 112.0899963378906 L -43.279998779296875 112.29399871826169 L -43.025001525878906 112.52500152587888 L -43 112.55259704589841 L -42.79399871826172 112.77999877929685 L -42.59000015258789 113.05599975585935 L -42.41299819946289 113.34999847412107 L -42.26599884033203 113.66100311279294 L -42.1510009765625 113.98400115966794 L -42.06700134277344 114.31700134277341 L -42.016998291015625 114.65699768066403 L -42.015464782714844 114.68800354003903 L -42 114.99999999999997 L -42 118.49999999999997 L -39 118.49999999999997 L -39 121.49999999999997 L -42 121.49999999999997 L -42 124.99999999999997 L -42 126.97599792480466 L -42 128.49999999999997 L -42.016998291015625 128.8430023193359 L -42.06700134277344 129.18299865722653 L -42.1510009765625 129.51600646972653 L -42.26599884033203 129.83900451660153 L -42.41299819946289 130.14999389648435 L -42.59000015258789 130.4440002441406 L -42.79399871826172 130.7200012207031 L -43 130.94740295410153 L -43.025001525878906 130.9750061035156 L -43.132076263427734 131.0720062255859 L -43.279998779296875 131.20599365234372 L -43.555999755859375 131.41000366210935 L -43.849998474121094 131.58700561523435 L -44.1609992980957 131.7339935302734 L -44.48400115966797 131.84899902343747 L -44.81700134277344 131.93299865722653 L -45.15700149536133 131.98300170898435 L -45.5 131.99999999999997 L -49 131.99999999999997 L -55.5 131.99999999999997 L -55.672000885009766 131.9960021972656 L -55.84299850463867 131.98300170898435 L -56.013999938964844 131.96200561523435 L -56.18299865722656 131.93299865722653 L -56.349998474121094 131.8950042724609 L -56.51599884033203 131.84899902343747 L -56.67900085449219 131.79499816894528 L -56.8390007019043 131.7339935302734 L -56.99599838256836 131.66400146484372 L -57.150001525878906 131.58700561523435 L -57.29899978637695 131.50199890136716 L -57.34400177001953 131.47344970703122 L -57.444000244140625 131.41000366210935 L -57.584999084472656 131.31100463867185 L -57.720001220703125 131.20599365234372 L -57.849998474121094 131.0930023193359 L -57.87224578857422 131.0720062255859 L -57.974998474121094 130.9750061035156 L -58.09299850463867 130.8500061035156 L -58.11294174194336 130.8270568847656 L -58.15700149536133 130.78300476074216 L -58.2072868347168 130.73271179199216 L -58.26071548461914 130.67927551269528 L -58.31739044189453 130.62260437011716 L -58.38399887084961 130.55599975585935 L -58.43871307373047 130.50128173828122 L -58.507869720458984 130.43212890624997 L -58.56413650512695 130.37586975097653 L -58.62858200073242 130.31141662597653 L -58.690269470214844 130.24972534179685 L -58.76231384277344 130.17768859863278 L -59 129.94000244140622 L -96.94000244140625 91.99999999999999 L -97.79642486572266 91.14356994628905 L -97.82705688476562 91.11293792724608 L -97.8499984741211 91.09300231933592 L -97.9749984741211 90.97499847412108 L -98.09300231933594 90.84999847412108 L -98.20600128173828 90.72000122070311 L -98.30400085449219 90.59400177001952 L -98.31099700927734 90.58499908447264 L -98.41000366210938 90.4449996948242 L -98.50199890136719 90.2990036010742 L -98.58699798583984 90.15000152587889 L -98.60600280761719 90.11199951171874 L -98.66400146484375 89.99600219726561 L -98.73400115966797 89.83899688720702 L -98.79499816894531 89.67900085449217 L -98.8489990234375 89.51599884033202 L -98.8949966430664 89.34999847412108 L -98.93299865722656 89.18299865722655 L -98.96199798583984 89.01399993896483 L -98.98300170898438 88.84300231933592 L -98.99600219726562 88.67199707031249 L -99 88.49999999999999 L -99 88.38061523437499 L -99 88.29542541503905 L -99 88.06400299072264 L -99 86.01599884033202 L -99 84.99999999999999 L -99 51.499999999999986 L -98.99600219726562 51.32799911499022 L -98.98626708984375 51.20000076293944 L -98.98300170898438 51.157001495361314 L -98.96199798583984 50.98600006103514 L -98.93299865722656 50.81700134277342 L -98.8949966430664 50.65000152587889 L -98.8489990234375 50.484001159667955 L -98.79499816894531 50.3209991455078 L -98.73400115966797 50.16099929809569 L -98.66400146484375 50.004001617431626 L -98.58699798583984 49.84999847412108 L -98.50199890136719 49.70100021362303 L -98.41000366210938 49.55599975585936 L -98.31099700927734 49.41500091552733 L -98.30400085449219 49.405998229980455 L -98.20600128173828 49.27999877929686 L -98.1129379272461 49.172939300537095 L -98.09474182128906 49.15200042724608 L -98.09300231933594 49.15000152587889 L -97.9749984741211 49.02500152587889 L -97.8499984741211 48.907001495361314 M -32.5 75.99999999999999 L -32.15700149536133 76.01699829101561 L -31.816999435424805 76.06700134277342 L -31.483999252319336 76.15100097656249 L -31.160999298095703 76.26599884033202 L -30.850000381469727 76.41300201416014 L -30.555999755859375 76.58999633789061 L -30.280000686645508 76.7939987182617 L -30.024999618530273 77.02500152587889 L -29.79400062561035 77.27999877929686 L -29.59000015258789 77.55599975585936 L -29.428653717041016 77.82399749755858 L -29.413000106811523 77.84999847412108 L -29.266000747680664 78.16100311279295 L -29.150999069213867 78.48400115966795 L -29.066999435424805 78.81700134277342 L -29.017000198364258 79.15699768066405 L -29 79.49999999999999 L -29.017000198364258 79.84300231933592 L -29.066999435424805 80.18299865722655 L -29.150999069213867 80.51599884033202 L -29.266000747680664 80.83899688720702 L -29.34304428100586 81.00199890136717 L -29.413000106811523 81.15000152587889 L -29.59000015258789 81.44400024414061 L -29.79400062561035 81.72000122070311 L -29.975175857543945 81.9199981689453 L -30.024999618530273 81.97499847412108 L -30.280000686645508 82.20600128173827 L -30.555999755859375 82.41000366210936 L -30.850000381469727 82.58699798583983 L -31.160999298095703 82.73400115966795 L -31.483999252319336 82.84899902343749 L -31.816999435424805 82.93299865722655 L -32.15700149536133 82.98300170898436 L -32.5 82.99999999999999 L -32.768001556396484 82.98671722412108 L -32.84299850463867 82.98300170898436 L -33.18299865722656 82.93299865722655 L -33.51599884033203 82.84899902343749 L -33.8390007019043 82.73400115966795 L -34.150001525878906 82.58699798583983 L -34.444000244140625 82.41000366210936 L -34.720001220703125 82.20600128173827 L -34.974998474121094 81.97499847412108 L -35.02482223510742 81.9199981689453 L -35.20600128173828 81.72000122070311 L -35.40999984741211 81.44400024414061 L -35.58700180053711 81.15000152587889 L -35.73400115966797 80.83899688720702 L -35.8489990234375 80.51599884033202 L -35.93299865722656 80.18299865722655 L -35.983001708984375 79.84300231933592 L -36 79.49999999999999 L -35.983001708984375 79.15699768066405 L -35.93299865722656 78.81700134277342 L -35.8489990234375 78.48400115966795 L -35.73400115966797 78.16100311279295 L -35.58700180053711 77.84999847412108 L -35.571346282958984 77.82399749755858 L -35.40999984741211 77.55599975585936 L -35.20600128173828 77.27999877929686 L -34.974998474121094 77.02500152587889 L -34.720001220703125 76.7939987182617 L -34.444000244140625 76.58999633789061 L -34.150001525878906 76.41300201416014 L -33.8390007019043 76.26599884033202 L -33.51599884033203 76.15100097656249 L -33.18299865722656 76.06700134277342 L -32.84299850463867 76.01699829101561 L -32.768001556396484 76.01328277587889 L -32.5 75.99999999999999 M -32.5 67.99999999999999 L -32.15700149536133 68.01699829101561 L -31.816999435424805 68.06700134277342 L -31.483999252319336 68.15100097656249 L -31.160999298095703 68.26599884033202 L -30.850000381469727 68.41300201416014 L -30.555999755859375 68.58999633789061 L -30.280000686645508 68.7939987182617 L -30.024999618530273 69.02500152587889 L -29.79400062561035 69.27999877929686 L -29.59000015258789 69.55599975585936 L -29.54424476623535 69.63200378417967 L -29.413000106811523 69.84999847412108 L -29.266000747680664 70.16100311279295 L -29.150999069213867 70.48400115966795 L -29.066999435424805 70.81700134277342 L -29.017000198364258 71.15699768066405 L -29 71.49999999999999 L -29.017000198364258 71.84300231933592 L -29.066999435424805 72.18299865722655 L -29.150999069213867 72.51599884033202 L -29.266000747680664 72.83899688720702 L -29.34304428100586 73.00199890136717 L -29.413000106811523 73.15000152587889 L -29.59000015258789 73.44400024414061 L -29.79400062561035 73.72000122070311 L -29.801246643066406 73.72799682617186 L -30.024999618530273 73.97499847412108 L -30.280000686645508 74.20600128173827 L -30.555999755859375 74.41000366210936 L -30.850000381469727 74.58699798583983 L -31.160999298095703 74.73400115966795 L -31.483999252319336 74.84899902343749 L -31.816999435424805 74.93299865722655 L -32.15700149536133 74.98300170898436 L -32.5 74.99999999999999 L -32.768001556396484 74.98671722412108 L -32.84299850463867 74.98300170898436 L -33.18299865722656 74.93299865722655 L -33.51599884033203 74.84899902343749 L -33.8390007019043 74.73400115966795 L -34.150001525878906 74.58699798583983 L -34.444000244140625 74.41000366210936 L -34.720001220703125 74.20600128173827 L -34.974998474121094 73.97499847412108 L -35.198753356933594 73.72799682617186 L -35.20600128173828 73.72000122070311 L -35.40999984741211 73.44400024414061 L -35.58700180053711 73.15000152587889 L -35.73400115966797 72.83899688720702 L -35.8489990234375 72.51599884033202 L -35.93299865722656 72.18299865722655 L -35.983001708984375 71.84300231933592 L -36 71.49999999999999 L -35.983001708984375 71.15699768066405 L -35.93299865722656 70.81700134277342 L -35.8489990234375 70.48400115966795 L -35.73400115966797 70.16100311279295 L -35.58700180053711 69.84999847412108 L -35.455753326416016 69.63200378417967 L -35.40999984741211 69.55599975585936 L -35.20600128173828 69.27999877929686 L -34.974998474121094 69.02500152587889 L -34.720001220703125 68.7939987182617 L -34.444000244140625 68.58999633789061 L -34.150001525878906 68.41300201416014 L -33.8390007019043 68.26599884033202 L -33.51599884033203 68.15100097656249 L -33.18299865722656 68.06700134277342 L -32.84299850463867 68.01699829101561 L -32.768001556396484 68.01328277587889 L -32.5 67.99999999999999 M -32.5 59.999999999999986 L -32.15700149536133 60.01699829101561 L -31.816999435424805 60.06700134277342 L -31.483999252319336 60.151000976562486 L -31.160999298095703 60.26599884033202 L -30.850000381469727 60.412998199462876 L -30.555999755859375 60.590000152587876 L -30.280000686645508 60.793998718261705 L -30.024999618530273 61.02500152587889 L -29.79400062561035 61.27999877929686 L -29.675308227539062 61.43999862670897 L -29.59000015258789 61.55500030517577 L -29.413000106811523 61.84999847412108 L -29.266000747680664 62.16099929809569 L -29.150999069213867 62.484001159667955 L -29.066999435424805 62.81700134277342 L -29.017000198364258 63.157001495361314 L -29 63.499999999999986 L -29.017000198364258 63.84299850463866 L -29.066999435424805 64.18299865722655 L -29.150999069213867 64.51599884033202 L -29.266000747680664 64.83899688720702 L -29.34304428100586 65.00199890136717 L -29.413000106811523 65.15000152587889 L -29.59000015258789 65.44400024414061 L -29.658000946044922 65.53600311279295 L -29.79400062561035 65.72000122070311 L -30.024999618530273 65.97499847412108 L -30.280000686645508 66.20600128173827 L -30.555999755859375 66.41000366210936 L -30.850000381469727 66.58699798583983 L -31.160999298095703 66.73400115966795 L -31.483999252319336 66.84899902343749 L -31.816999435424805 66.93299865722655 L -32.15700149536133 66.98300170898436 L -32.5 66.99999999999999 L -32.768001556396484 66.98671722412108 L -32.84299850463867 66.98300170898436 L -33.18299865722656 66.93299865722655 L -33.51599884033203 66.84899902343749 L -33.8390007019043 66.73400115966795 L -34.150001525878906 66.58699798583983 L -34.444000244140625 66.41000366210936 L -34.720001220703125 66.20600128173827 L -34.974998474121094 65.97499847412108 L -35.20600128173828 65.72000122070311 L -35.34199905395508 65.53600311279295 L -35.40999984741211 65.44400024414061 L -35.58700180053711 65.15000152587889 L -35.73400115966797 64.83899688720702 L -35.8489990234375 64.51599884033202 L -35.93299865722656 64.18299865722655 L -35.983001708984375 63.84299850463866 L -36 63.499999999999986 L -35.983001708984375 63.157001495361314 L -35.93299865722656 62.81700134277342 L -35.8489990234375 62.484001159667955 L -35.73400115966797 62.16099929809569 L -35.58700180053711 61.84999847412108 L -35.40999984741211 61.55500030517577 L -35.32469177246094 61.43999862670897 L -35.20600128173828 61.27999877929686 L -34.974998474121094 61.02500152587889 L -34.720001220703125 60.793998718261705 L -34.444000244140625 60.590000152587876 L -34.150001525878906 60.412998199462876 L -33.8390007019043 60.26599884033202 L -33.51599884033203 60.151000976562486 L -33.18299865722656 60.06700134277342 L -32.84299850463867 60.01699829101561 L -32.768001556396484 60.01328277587889 L -32.5 59.999999999999986 M -30.024999618530273 53.02500152587889 L -29.822988510131836 53.2480010986328 L -29.79400062561035 53.27999877929686 L -29.59000015258789 53.55500030517577 L -29.413000106811523 53.84999847412108 L -29.266000747680664 54.16099929809569 L -29.150999069213867 54.484001159667955 L -29.066999435424805 54.81700134277342 L -29.017000198364258 55.157001495361314 L -29 55.499999999999986 L -29.017000198364258 55.84299850463866 L -29.066999435424805 56.18299865722655 L -29.150999069213867 56.51599884033202 L -29.266000747680664 56.83900070190428 L -29.34304428100586 57.00199890136717 L -29.413000106811523 57.15000152587889 L -29.529796600341797 57.34400177001952 L -29.59000015258789 57.44400024414061 L -29.79400062561035 57.72000122070311 L -30.024999618530273 57.97499847412108 L -30.280000686645508 58.20600128173827 L -30.555999755859375 58.409999847412095 L -30.850000381469727 58.587001800537095 L -31.160999298095703 58.734001159667955 L -31.483999252319336 58.848999023437486 L -31.816999435424805 58.93299865722655 L -32.15700149536133 58.98300170898436 L -32.5 58.999999999999986 L -32.768001556396484 58.98671722412108 L -32.84299850463867 58.98300170898436 L -33.18299865722656 58.93299865722655 L -33.51599884033203 58.848999023437486 L -33.8390007019043 58.734001159667955 L -34.150001525878906 58.587001800537095 L -34.444000244140625 58.409999847412095 L -34.720001220703125 58.20600128173827 L -34.974998474121094 57.97499847412108 L -35.20600128173828 57.72000122070311 L -35.40999984741211 57.44400024414061 L -35.4702033996582 57.34400177001952 L -35.58700180053711 57.15000152587889 L -35.73400115966797 56.83900070190428 L -35.8489990234375 56.51599884033202 L -35.93299865722656 56.18299865722655 L -35.983001708984375 55.84299850463866 L -36 55.499999999999986 L -35.983001708984375 55.157001495361314 L -35.93299865722656 54.81700134277342 L -35.8489990234375 54.484001159667955 L -35.73400115966797 54.16099929809569 L -35.58700180053711 53.84999847412108 L -35.40999984741211 53.55500030517577 L -35.20600128173828 53.27999877929686 L -35.1770133972168 53.2480010986328 L -34.974998474121094 53.02500152587889 L -34.720001220703125 52.793998718261705 L -34.444000244140625 52.590000152587876 L -34.150001525878906 52.412998199462876 L -33.8390007019043 52.26599884033202 L -33.51599884033203 52.151000976562486 L -33.18299865722656 52.06700134277342 L -32.84299850463867 52.01699829101561 L -32.768001556396484 52.01328277587889 L -32.5 51.999999999999986 L -32.15700149536133 52.01699829101561 L -31.816999435424805 52.06700134277342 L -31.483999252319336 52.151000976562486 L -31.160999298095703 52.26599884033202 L -30.850000381469727 52.412998199462876 L -30.555999755859375 52.590000152587876 L -30.280000686645508 52.793998718261705 L -30.024999618530273 53.02500152587889 M -59.400001525878906 65.14499664306639 L -59.391998291015625 65.14760589599608 L -59.27399826049805 65.18599700927733 L -59.145999908447266 65.2220001220703 L -59.016998291015625 65.25099945068358 L -59 65.25385284423827 L -58.88600158691406 65.2730026245117 L -58.75400161743164 65.28900146484374 L -58.62200164794922 65.2990036010742 L -58.4900016784668 65.30200195312499 L -58.36800003051758 65.2992477416992 L -58.356998443603516 65.2990036010742 L -58.224998474121094 65.28900146484374 L -58.09299850463867 65.2730026245117 L -57.96200180053711 65.25099945068358 L -57.83300018310547 65.2220001220703 L -57.70500183105469 65.18599700927733 L -57.57899856567383 65.14499664306639 L -57.45500183105469 65.0970001220703 L -57.34400177001953 65.04746246337889 L -57.33399963378906 65.04299926757811 L -57.215999603271484 64.98300170898436 L -57.099998474121094 64.91799926757811 L -56.987998962402344 64.8470001220703 L -56.880001068115234 64.77100372314452 L -56.775001525878906 64.68900299072264 L -56.67499923706055 64.60199737548827 L -56.580055236816406 64.51200103759764 L -56.57899856567383 64.51100158691405 L -56.48699951171875 64.41500091552733 L -56.400001525878906 64.31400299072264 L -56.319000244140625 64.20999908447264 L -56.242000579833984 64.10099792480467 L -56.17100143432617 63.98899841308592 L -56.10599899291992 63.87400054931639 L -56.04600143432617 63.75500106811522 L -55.99300003051758 63.633998870849595 L -55.94499969482422 63.50999832153319 L -55.93766784667969 63.48799896240233 L -55.90299987792969 63.383998870849595 L -55.86800003051758 63.25699996948241 L -55.8390007019043 63.12699890136717 L -55.816001892089844 62.997001647949205 L -55.79999923706055 62.86500167846678 L -55.790000915527344 62.73300170898436 L -55.7869987487793 62.59999847412108 L -55.790000915527344 62.466999053955064 L -55.790225982666016 62.46400070190428 L -55.79999923706055 62.33499908447264 L -55.816001892089844 62.20299911499022 L -55.8390007019043 62.07300186157225 L -55.86800003051758 61.94300079345702 L -55.90299987792969 61.81600189208983 L -55.94499969482422 61.68999862670897 L -55.99300003051758 61.56600189208983 L -56.04600143432617 61.444999694824205 L -56.048519134521484 61.43999862670897 L -56.10599899291992 61.32600021362303 L -56.17100143432617 61.210998535156236 L -56.242000579833984 61.098999023437486 L -56.319000244140625 60.99000167846678 L -56.31999969482422 60.98871612548827 L -56.400001525878906 60.88600158691405 L -56.48699951171875 60.784999847412095 L -56.57899856567383 60.688999176025376 L -56.67499923706055 60.59799957275389 L -56.775001525878906 60.51100158691405 L -56.880001068115234 60.42900085449217 L -56.987998962402344 60.353000640869126 L -57.099998474121094 60.282001495361314 L -57.215999603271484 60.216999053955064 L -57.33399963378906 60.157001495361314 L -57.34400177001953 60.15253829956053 L -57.45500183105469 60.103000640869126 L -57.57899856567383 60.05500030517577 L -57.70500183105469 60.01399993896483 L -57.83300018310547 59.978000640869126 L -57.96200180053711 59.949001312255845 L -58.09299850463867 59.92699813842772 L -58.224998474121094 59.91099929809569 L -58.356998443603516 59.901000976562486 L -58.36800003051758 59.90075302124022 L -58.4900016784668 59.89799880981444 L -58.62200164794922 59.901000976562486 L -58.75400161743164 59.91099929809569 L -58.88600158691406 59.92699813842772 L -59 59.94614410400389 L -59.016998291015625 59.949001312255845 L -59.145999908447266 59.978000640869126 L -59.27399826049805 60.01399993896483 L -59.391998291015625 60.05239868164061 L -59.400001525878906 60.05500030517577 L -59.52399826049805 60.103000640869126 L -59.64500045776367 60.157001495361314 L -59.76300048828125 60.216999053955064 L -59.87900161743164 60.282001495361314 L -59.99100112915039 60.353000640869126 L -60.0989990234375 60.42900085449217 L -60.20399856567383 60.51100158691405 L -60.30400085449219 60.59799957275389 L -60.400001525878906 60.688999176025376 L -60.41600036621094 60.70569610595702 L -60.492000579833984 60.784999847412095 L -60.57899856567383 60.88600158691405 L -60.65999984741211 60.99000167846678 L -60.73699951171875 61.098999023437486 L -60.80799865722656 61.210998535156236 L -60.87300109863281 61.32600021362303 L -60.930477142333984 61.43999862670897 L -60.93299865722656 61.444999694824205 L -60.986000061035156 61.56600189208983 L -61.034000396728516 61.68999862670897 L -61.07600021362305 61.81600189208983 L -61.111000061035156 61.94300079345702 L -61.13999938964844 62.07300186157225 L -61.16299819946289 62.20299911499022 L -61.17900085449219 62.33499908447264 L -61.18877410888672 62.46400070190428 L -61.18899917602539 62.466999053955064 L -61.19200134277344 62.59999847412108 L -61.18899917602539 62.73300170898436 L -61.17900085449219 62.86500167846678 L -61.16299819946289 62.997001647949205 L -61.13999938964844 63.12699890136717 L -61.111000061035156 63.25699996948241 L -61.07600021362305 63.383998870849595 L -61.04133224487305 63.48799896240233 L -61.034000396728516 63.50999832153319 L -60.986000061035156 63.633998870849595 L -60.93299865722656 63.75500106811522 L -60.87300109863281 63.87400054931639 L -60.80799865722656 63.98899841308592 L -60.73699951171875 64.10099792480467 L -60.65999984741211 64.20999908447264 L -60.57899856567383 64.31400299072264 L -60.492000579833984 64.41500091552733 L -60.400001525878906 64.51100158691405 L -60.39894485473633 64.51200103759764 L -60.30400085449219 64.60199737548827 L -60.20399856567383 64.68900299072264 L -60.0989990234375 64.77100372314452 L -59.99100112915039 64.8470001220703 L -59.87900161743164 64.91799926757811 L -59.76300048828125 64.98300170898436 L -59.64500045776367 65.04299926757811 L -59.52399826049805 65.0970001220703 L -59.400001525878906 65.14499664306639 M -59.400001525878906 82.9449996948242 L -59.391998291015625 82.94760131835936 L -59.27399826049805 82.98600006103514 L -59.145999908447266 83.02200317382811 L -59.016998291015625 83.05100250244139 L -59 83.05385589599608 L -58.88600158691406 83.07299804687499 L -58.75400161743164 83.08899688720702 L -58.62200164794922 83.09899902343749 L -58.4900016784668 83.10299682617186 L -58.36800003051758 83.09932708740233 L -58.356998443603516 83.09899902343749 L -58.224998474121094 83.08899688720702 L -58.09299850463867 83.07299804687499 L -57.96200180053711 83.05100250244139 L -57.83300018310547 83.02200317382811 L -57.70500183105469 82.98600006103514 L -57.57899856567383 82.9449996948242 L -57.45500183105469 82.89700317382811 L -57.34400177001953 82.8474655151367 L -57.33399963378906 82.84300231933592 L -57.215999603271484 82.78299713134764 L -57.099998474121094 82.71800231933592 L -56.987998962402344 82.64700317382811 L -56.880001068115234 82.5709991455078 L -56.775001525878906 82.48899841308592 L -56.67499923706055 82.40200042724608 L -56.57899856567383 82.31099700927733 L -56.48699951171875 82.21499633789061 L -56.400001525878906 82.11399841308592 L -56.319000244140625 82.01000213623045 L -56.25542068481445 81.9199981689453 L -56.242000579833984 81.90100097656249 L -56.17100143432617 81.78900146484374 L -56.10599899291992 81.6740036010742 L -56.04600143432617 81.55500030517577 L -55.99300003051758 81.43399810791014 L -55.94499969482422 81.30999755859374 L -55.90299987792969 81.18399810791014 L -55.86800003051758 81.05699920654295 L -55.8390007019043 80.92700195312499 L -55.83351516723633 80.89600372314452 L -55.816001892089844 80.79699707031249 L -55.79999923706055 80.66500091552733 L -55.790000915527344 80.53299713134764 L -55.7869987487793 80.40000152587889 L -55.790000915527344 80.26699829101561 L -55.79999923706055 80.13500213623045 L -55.816001892089844 80.00299835205077 L -55.8390007019043 79.8730010986328 L -55.8392219543457 79.8720016479492 L -55.86800003051758 79.7429962158203 L -55.90299987792969 79.61599731445311 L -55.94499969482422 79.48999786376952 L -55.99300003051758 79.36599731445311 L -56.04600143432617 79.24500274658202 L -56.10599899291992 79.12599945068358 L -56.17100143432617 79.01100158691405 L -56.242000579833984 78.8990020751953 L -56.27802658081055 78.84799957275389 L -56.319000244140625 78.79000091552733 L -56.400001525878906 78.68599700927733 L -56.48699951171875 78.58499908447264 L -56.57899856567383 78.48899841308592 L -56.67499923706055 78.3980026245117 L -56.775001525878906 78.31099700927733 L -56.880001068115234 78.22899627685545 L -56.987998962402344 78.15299987792967 L -57.099998474121094 78.08200073242186 L -57.215999603271484 78.01699829101561 L -57.33399963378906 77.95700073242186 L -57.34400177001953 77.95253753662108 L -57.45500183105469 77.90299987792967 L -57.57899856567383 77.85500335693358 L -57.67426681518555 77.82399749755858 L -57.70500183105469 77.81400299072264 L -57.83300018310547 77.77799987792967 L -57.96200180053711 77.74900054931639 L -58.09299850463867 77.72699737548827 L -58.224998474121094 77.71099853515624 L -58.356998443603516 77.70099639892577 L -58.4900016784668 77.69799804687499 L -58.62200164794922 77.70099639892577 L -58.75400161743164 77.71099853515624 L -58.88600158691406 77.72699737548827 L -59 77.7461471557617 L -59.016998291015625 77.74900054931639 L -59.145999908447266 77.77799987792967 L -59.27399826049805 77.81400299072264 L -59.30473327636719 77.82399749755858 L -59.391998291015625 77.85239410400389 L -59.400001525878906 77.85500335693358 L -59.52399826049805 77.90299987792967 L -59.64500045776367 77.95700073242186 L -59.76300048828125 78.01699829101561 L -59.87900161743164 78.08200073242186 L -59.99100112915039 78.15299987792967 L -60.0989990234375 78.22899627685545 L -60.20399856567383 78.31099700927733 L -60.30400085449219 78.3980026245117 L -60.400001525878906 78.48899841308592 L -60.492000579833984 78.58499908447264 L -60.57899856567383 78.68599700927733 L -60.65999984741211 78.79000091552733 L -60.70097351074219 78.84799957275389 L -60.73699951171875 78.8990020751953 L -60.80799865722656 79.01100158691405 L -60.87300109863281 79.12599945068358 L -60.93299865722656 79.24500274658202 L -60.986000061035156 79.36599731445311 L -61.034000396728516 79.48999786376952 L -61.07600021362305 79.61599731445311 L -61.111000061035156 79.7429962158203 L -61.13977813720703 79.8720016479492 L -61.13999938964844 79.8730010986328 L -61.16299819946289 80.00299835205077 L -61.17900085449219 80.13500213623045 L -61.18899917602539 80.26699829101561 L -61.19200134277344 80.40000152587889 L -61.18899917602539 80.53299713134764 L -61.17900085449219 80.66500091552733 L -61.16299819946289 80.79699707031249 L -61.145484924316406 80.89600372314452 L -61.13999938964844 80.92700195312499 L -61.111000061035156 81.05699920654295 L -61.07600021362305 81.18399810791014 L -61.034000396728516 81.30999755859374 L -60.986000061035156 81.43399810791014 L -60.93299865722656 81.55500030517577 L -60.87300109863281 81.6740036010742 L -60.80799865722656 81.78900146484374 L -60.73699951171875 81.90100097656249 L -60.72357940673828 81.9199981689453 L -60.65999984741211 82.01000213623045 L -60.57899856567383 82.11399841308592 L -60.492000579833984 82.21499633789061 L -60.400001525878906 82.31099700927733 L -60.30400085449219 82.40200042724608 L -60.20399856567383 82.48899841308592 L -60.0989990234375 82.5709991455078 L -59.99100112915039 82.64700317382811 L -59.87900161743164 82.71800231933592 L -59.76300048828125 82.78299713134764 L -59.64500045776367 82.84300231933592 L -59.52399826049805 82.89700317382811 L -59.400001525878906 82.9449996948242 M -93.63700103759766 51.241001129150376 L -93.67645263671875 51.20000076293944 L -93.68800354003906 51.18799972534178 L -93.74099731445312 51.13700103759764 L -93.7969970703125 51.08900070190428 L -93.8550033569336 51.04299926757811 L -93.91500091552734 51.00099945068358 L -93.97799682617188 50.960998535156236 L -94.04199981689453 50.92499923706053 L -94.10800170898438 50.89199829101561 L -94.17500305175781 50.861999511718736 L -94.20800018310547 50.849086761474595 L -94.24400329589844 50.83499908447264 L -94.31400299072266 50.81200027465819 L -94.38500213623047 50.79299926757811 L -94.45700073242188 50.776000976562486 L -94.52999877929688 50.76399993896483 L -94.60299682617188 50.75500106811522 L -94.6760025024414 50.74900054931639 L -94.72000122070312 50.748405456542955 L -94.75 50.7480010986328 L -94.8239974975586 50.74900054931639 L -94.89700317382812 50.75500106811522 L -94.97000122070312 50.76399993896483 L -95.04299926757812 50.776000976562486 L -95.11499786376953 50.79299926757811 L -95.18599700927734 50.81200027465819 L -95.23200225830078 50.827114105224595 L -95.25599670410156 50.83499908447264 L -95.32499694824219 50.861999511718736 L -95.39199829101562 50.89199829101561 L -95.45800018310547 50.92499923706053 L -95.52200317382812 50.960998535156236 L -95.58499908447266 51.00099945068358 L -95.6449966430664 51.04299926757811 L -95.7030029296875 51.08900070190428 L -95.75900268554688 51.13700103759764 L -95.81199645996094 51.18799972534178 L -95.82354736328125 51.20000076293944 L -95.86299896240234 51.241001129150376 L -95.91100311279297 51.29700088500975 L -95.95700073242188 51.354999542236314 L -95.9990005493164 51.41500091552733 L -96.03900146484375 51.478000640869126 L -96.05137634277344 51.499999999999986 L -96.07499694824219 51.54199981689452 L -96.10800170898438 51.60800170898436 L -96.13800048828125 51.67499923706053 L -96.15248107910156 51.712001800537095 L -96.16500091552734 51.74399948120116 L -96.18800354003906 51.813999176025376 L -96.20700073242188 51.88499832153319 L -96.2239990234375 51.95700073242186 L -96.23600006103516 52.02999877929686 L -96.24500274658203 52.103000640869126 L -96.2509994506836 52.175998687744126 L -96.2522964477539 52.223999023437486 L -96.25299835205078 52.249999999999986 L -96.2509994506836 52.324001312255845 L -96.24500274658203 52.396999359130845 L -96.23600006103516 52.47000122070311 L -96.2239990234375 52.54299926757811 L -96.20700073242188 52.61500167846678 L -96.18800354003906 52.686000823974595 L -96.17156982421875 52.73600006103514 L -96.16500091552734 52.756000518798814 L -96.13800048828125 52.82500076293944 L -96.10800170898438 52.89199829101561 L -96.07499694824219 52.958000183105455 L -96.03900146484375 53.021999359130845 L -95.9990005493164 53.08499908447264 L -95.95700073242188 53.14500045776366 L -95.91100311279297 53.20299911499022 L -95.87242889404297 53.2480010986328 L -95.86299896240234 53.258998870849595 L -95.81199645996094 53.31200027465819 L -95.75900268554688 53.36299896240233 L -95.7030029296875 53.41099929809569 L -95.6449966430664 53.45700073242186 L -95.58499908447266 53.49900054931639 L -95.52200317382812 53.539001464843736 L -95.45800018310547 53.57500076293944 L -95.39199829101562 53.60800170898436 L -95.32499694824219 53.638000488281236 L -95.25599670410156 53.66500091552733 L -95.23200225830078 53.672885894775376 L -95.18599700927734 53.68799972534178 L -95.11499786376953 53.70700073242186 L -95.04299926757812 53.723999023437486 L -94.97000122070312 53.73600006103514 L -94.89700317382812 53.74499893188475 L -94.8239974975586 53.75099945068358 L -94.75 53.75299835205077 L -94.72000122070312 53.752189636230455 L -94.7030029296875 53.751728057861314 L -94.6760025024414 53.75099945068358 L -94.60299682617188 53.74499893188475 L -94.52999877929688 53.73600006103514 L -94.45700073242188 53.723999023437486 L -94.38500213623047 53.70700073242186 L -94.31400299072266 53.68799972534178 L -94.24400329589844 53.66500091552733 L -94.20800018310547 53.650913238525376 L -94.17500305175781 53.638000488281236 L -94.10800170898438 53.60800170898436 L -94.04199981689453 53.57500076293944 L -93.97799682617188 53.539001464843736 L -93.91500091552734 53.49900054931639 L -93.8550033569336 53.45700073242186 L -93.7969970703125 53.41099929809569 L -93.74099731445312 53.36299896240233 L -93.68800354003906 53.31200027465819 L -93.63700103759766 53.258998870849595 L -93.62757110595703 53.2480010986328 L -93.58899688720703 53.20299911499022 L -93.54299926757812 53.14500045776366 L -93.5009994506836 53.08499908447264 L -93.46099853515625 53.021999359130845 L -93.42500305175781 52.958000183105455 L -93.39199829101562 52.89199829101561 L -93.36199951171875 52.82500076293944 L -93.33499908447266 52.756000518798814 L -93.32843017578125 52.73600006103514 L -93.31199645996094 52.686000823974595 L -93.29299926757812 52.61500167846678 L -93.2760009765625 52.54299926757811 L -93.26399993896484 52.47000122070311 L -93.25499725341797 52.396999359130845 L -93.2490005493164 52.324001312255845 L -93.24800109863281 52.249999999999986 L -93.24835205078125 52.223999023437486 L -93.2490005493164 52.175998687744126 L -93.25499725341797 52.103000640869126 L -93.26399993896484 52.02999877929686 L -93.2760009765625 51.95700073242186 L -93.29299926757812 51.88499832153319 L -93.31199645996094 51.813999176025376 L -93.33499908447266 51.74399948120116 L -93.34751892089844 51.712001800537095 L -93.36199951171875 51.67499923706053 L -93.39199829101562 51.60800170898436 L -93.42500305175781 51.54199981689452 L -93.44862365722656 51.499999999999986 L -93.46099853515625 51.478000640869126 L -93.5009994506836 51.41500091552733 L -93.54299926757812 51.354999542236314 L -93.58899688720703 51.29700088500975 L -93.63700103759766 51.241001129150376 M -94.7030029296875 78.20300292968749 L -92 78.20300292968749 L -84.2979965209961 78.20300292968749 L -84.2979965209961 64.79799652099608 L -92 64.79799652099608 L -94.7030029296875 64.79799652099608 L -94.7030029296875 78.20300292968749 M -95.25599670410156 89.16500091552733 L -95.23200225830078 89.17288208007811 L -95.18599700927734 89.18800354003905 L -95.11499786376953 89.20700073242186 L -95.04299926757812 89.22399902343749 L -94.97000122070312 89.23600006103514 L -94.89700317382812 89.24500274658202 L -94.8239974975586 89.25099945068358 L -94.75 89.25299835205077 L -94.72000122070312 89.25218963623045 L -94.6760025024414 89.25099945068358 L -94.60299682617188 89.24500274658202 L -94.52999877929688 89.23600006103514 L -94.45700073242188 89.22399902343749 L -94.38500213623047 89.20700073242186 L -94.31400299072266 89.18800354003905 L -94.24400329589844 89.16500091552733 L -94.20800018310547 89.15090942382811 L -94.17500305175781 89.13800048828124 L -94.10800170898438 89.10800170898436 L -94.06800079345703 89.08799743652342 L -94.04199981689453 89.07499694824217 L -93.97799682617188 89.03900146484374 L -93.91500091552734 88.99900054931639 L -93.8550033569336 88.95700073242186 L -93.7969970703125 88.91100311279295 L -93.74099731445312 88.86299896240233 L -93.68800354003906 88.81199645996092 L -93.63700103759766 88.75900268554686 L -93.58899688720703 88.70300292968749 L -93.54299926757812 88.64499664306639 L -93.5009994506836 88.58499908447264 L -93.49528503417969 88.57599639892577 L -93.46099853515625 88.52200317382811 L -93.42500305175781 88.45800018310545 L -93.39199829101562 88.39199829101561 L -93.36199951171875 88.32499694824217 L -93.33499908447266 88.25599670410155 L -93.31199645996094 88.18599700927733 L -93.29299926757812 88.11499786376952 L -93.28096008300781 88.06400299072264 L -93.2760009765625 88.04299926757811 L -93.26399993896484 87.97000122070311 L -93.25499725341797 87.89700317382811 L -93.2490005493164 87.82399749755858 L -93.24800109863281 87.74999999999999 L -93.2490005493164 87.67600250244139 L -93.25499725341797 87.60299682617186 L -93.26128387451172 87.55200195312499 L -93.26399993896484 87.52999877929686 L -93.2760009765625 87.45700073242186 L -93.29299926757812 87.38500213623045 L -93.31199645996094 87.31400299072264 L -93.33499908447266 87.24400329589842 L -93.36199951171875 87.1750030517578 L -93.39199829101562 87.10800170898436 L -93.42500305175781 87.04199981689452 L -93.4261245727539 87.04000091552733 L -93.46099853515625 86.97799682617186 L -93.5009994506836 86.91500091552733 L -93.54299926757812 86.85500335693358 L -93.58899688720703 86.79699707031249 L -93.63700103759766 86.74099731445311 L -93.68800354003906 86.68800354003905 L -93.69599914550781 86.68030548095702 L -93.74099731445312 86.63700103759764 L -93.7969970703125 86.58899688720702 L -93.8550033569336 86.54299926757811 L -93.91500091552734 86.50099945068358 L -93.97799682617188 86.46099853515624 L -94.04199981689453 86.4250030517578 L -94.10800170898438 86.39199829101561 L -94.17500305175781 86.36199951171874 L -94.20800018310547 86.34909057617186 L -94.24400329589844 86.33499908447264 L -94.31400299072266 86.31199645996092 L -94.38500213623047 86.29299926757811 L -94.45700073242188 86.27600097656249 L -94.52999877929688 86.26399993896483 L -94.60299682617188 86.25499725341795 L -94.6760025024414 86.24900054931639 L -94.72000122070312 86.24840545654295 L -94.75 86.2480010986328 L -94.8239974975586 86.24900054931639 L -94.89700317382812 86.25499725341795 L -94.97000122070312 86.26399993896483 L -95.04299926757812 86.27600097656249 L -95.11499786376953 86.29299926757811 L -95.18599700927734 86.31199645996092 L -95.23200225830078 86.32711791992186 L -95.25599670410156 86.33499908447264 L -95.32499694824219 86.36199951171874 L -95.39199829101562 86.39199829101561 L -95.45800018310547 86.4250030517578 L -95.52200317382812 86.46099853515624 L -95.58499908447266 86.50099945068358 L -95.6449966430664 86.54299926757811 L -95.7030029296875 86.58899688720702 L -95.74400329589844 86.62414550781249 L -95.75900268554688 86.63700103759764 L -95.81199645996094 86.68800354003905 L -95.86299896240234 86.74099731445311 L -95.91100311279297 86.79699707031249 L -95.95700073242188 86.85500335693358 L -95.9990005493164 86.91500091552733 L -96.03900146484375 86.97799682617186 L -96.0738754272461 87.04000091552733 L -96.07499694824219 87.04199981689452 L -96.10800170898438 87.10800170898436 L -96.13800048828125 87.1750030517578 L -96.16500091552734 87.24400329589842 L -96.18800354003906 87.31400299072264 L -96.20700073242188 87.38500213623045 L -96.2239990234375 87.45700073242186 L -96.23600006103516 87.52999877929686 L -96.23871612548828 87.55200195312499 L -96.24500274658203 87.60299682617186 L -96.2509994506836 87.67600250244139 L -96.25299835205078 87.74999999999999 L -96.2509994506836 87.82399749755858 L -96.24500274658203 87.89700317382811 L -96.23600006103516 87.97000122070311 L -96.2239990234375 88.04299926757811 L -96.21903991699219 88.06400299072264 L -96.20700073242188 88.11499786376952 L -96.18800354003906 88.18599700927733 L -96.16500091552734 88.25599670410155 L -96.13800048828125 88.32499694824217 L -96.10800170898438 88.39199829101561 L -96.07499694824219 88.45800018310545 L -96.03900146484375 88.52200317382811 L -96.00471496582031 88.57599639892577 L -95.9990005493164 88.58499908447264 L -95.95700073242188 88.64499664306639 L -95.91100311279297 88.70300292968749 L -95.86299896240234 88.75900268554686 L -95.81199645996094 88.81199645996092 L -95.75900268554688 88.86299896240233 L -95.7030029296875 88.91100311279295 L -95.6449966430664 88.95700073242186 L -95.58499908447266 88.99900054931639 L -95.52200317382812 89.03900146484374 L -95.45800018310547 89.07499694824217 L -95.43199920654297 89.08799743652342 L -95.39199829101562 89.10800170898436 L -95.32499694824219 89.13800048828124 L -95.25599670410156 89.16500091552733 M -56.891998291015625 53.60800170898436 L -56.832000732421875 53.63486480712889 L -56.82500076293945 53.638000488281236 L -56.75600051879883 53.66500091552733 L -56.68600082397461 53.68799972534178 L -56.6150016784668 53.70700073242186 L -56.542999267578125 53.723999023437486 L -56.470001220703125 53.73600006103514 L -56.39699935913086 53.74499893188475 L -56.32400131225586 53.75099945068358 L -56.31999969482422 53.75110626220702 L -56.25 53.75299835205077 L -56.17599868774414 53.75099945068358 L -56.10300064086914 53.74499893188475 L -56.029998779296875 53.73600006103514 L -55.957000732421875 53.723999023437486 L -55.8849983215332 53.70700073242186 L -55.81399917602539 53.68799972534178 L -55.80799865722656 53.686027526855455 L -55.7869987487793 53.67912673950194 L -55.74399948120117 53.66500091552733 L -55.67499923706055 53.638000488281236 L -55.608001708984375 53.60800170898436 L -55.54199981689453 53.57500076293944 L -55.5 53.55137634277342 L -55.47800064086914 53.539001464843736 L -55.415000915527344 53.49900054931639 L -55.35499954223633 53.45700073242186 L -55.297000885009766 53.41099929809569 L -55.29600143432617 53.41014099121092 L -55.24100112915039 53.36299896240233 L -55.1879997253418 53.31200027465819 L -55.137001037597656 53.258998870849595 L -55.12757110595703 53.2480010986328 L -55.0890007019043 53.20299911499022 L -55.042999267578125 53.14500045776366 L -55.000999450683594 53.08499908447264 L -54.96099853515625 53.021999359130845 L -54.92499923706055 52.958000183105455 L -54.891998291015625 52.89199829101561 L -54.86199951171875 52.82500076293944 L -54.834999084472656 52.756000518798814 L -54.82843017578125 52.73600006103514 L -54.8120002746582 52.686000823974595 L -54.792999267578125 52.61500167846678 L -54.7760009765625 52.54299926757811 L -54.763999938964844 52.47000122070311 L -54.755001068115234 52.396999359130845 L -54.749000549316406 52.324001312255845 L -54.74800109863281 52.249999999999986 L -54.74802780151367 52.2480010986328 L -54.74835205078125 52.223999023437486 L -54.749000549316406 52.175998687744126 L -54.755001068115234 52.103000640869126 L -54.763999938964844 52.02999877929686 L -54.7760009765625 51.95700073242186 L -54.792999267578125 51.88499832153319 L -54.8120002746582 51.813999176025376 L -54.834999084472656 51.74399948120116 L -54.8475227355957 51.712001800537095 L -54.86199951171875 51.67499923706053 L -54.891998291015625 51.60800170898436 L -54.92499923706055 51.54199981689452 L -54.96099853515625 51.478000640869126 L -55.000999450683594 51.41500091552733 L -55.042999267578125 51.354999542236314 L -55.0890007019043 51.29700088500975 L -55.137001037597656 51.241001129150376 L -55.17645263671875 51.20000076293944 L -55.1879997253418 51.18799972534178 L -55.24100112915039 51.13700103759764 L -55.29600143432617 51.08985900878905 L -55.297000885009766 51.08900070190428 L -55.35499954223633 51.04299926757811 L -55.415000915527344 51.00099945068358 L -55.47800064086914 50.960998535156236 L -55.5 50.94862365722655 L -55.54199981689453 50.92499923706053 L -55.608001708984375 50.89199829101561 L -55.67499923706055 50.861999511718736 L -55.74399948120117 50.83499908447264 L -55.7869987487793 50.82087326049803 L -55.80799865722656 50.81397247314452 L -55.81399917602539 50.81200027465819 L -55.8849983215332 50.79299926757811 L -55.957000732421875 50.776000976562486 L -56.029998779296875 50.76399993896483 L -56.10300064086914 50.75500106811522 L -56.17599868774414 50.74900054931639 L -56.25 50.7480010986328 L -56.31999969482422 50.74894714355467 L -56.32400131225586 50.74900054931639 L -56.39699935913086 50.75500106811522 L -56.470001220703125 50.76399993896483 L -56.542999267578125 50.776000976562486 L -56.6150016784668 50.79299926757811 L -56.68600082397461 50.81200027465819 L -56.75600051879883 50.83499908447264 L -56.82500076293945 50.861999511718736 L -56.832000732421875 50.86513519287108 L -56.891998291015625 50.89199829101561 L -56.95800018310547 50.92499923706053 L -57.02199935913086 50.960998535156236 L -57.084999084472656 51.00099945068358 L -57.14500045776367 51.04299926757811 L -57.202999114990234 51.08900070190428 L -57.25899887084961 51.13700103759764 L -57.3120002746582 51.18799972534178 L -57.32354736328125 51.20000076293944 L -57.34400177001953 51.2212562561035 L -57.362998962402344 51.241001129150376 L -57.4109992980957 51.29700088500975 L -57.457000732421875 51.354999542236314 L -57.499000549316406 51.41500091552733 L -57.53900146484375 51.478000640869126 L -57.57500076293945 51.54199981689452 L -57.608001708984375 51.60800170898436 L -57.63800048828125 51.67499923706053 L -57.6524772644043 51.712001800537095 L -57.665000915527344 51.74399948120116 L -57.6879997253418 51.813999176025376 L -57.707000732421875 51.88499832153319 L -57.7239990234375 51.95700073242186 L -57.736000061035156 52.02999877929686 L -57.744998931884766 52.103000640869126 L -57.750999450683594 52.175998687744126 L -57.752296447753906 52.223999023437486 L -57.75299835205078 52.249999999999986 L -57.750999450683594 52.324001312255845 L -57.744998931884766 52.396999359130845 L -57.736000061035156 52.47000122070311 L -57.7239990234375 52.54299926757811 L -57.707000732421875 52.61500167846678 L -57.6879997253418 52.686000823974595 L -57.67156982421875 52.73600006103514 L -57.665000915527344 52.756000518798814 L -57.63800048828125 52.82500076293944 L -57.608001708984375 52.89199829101561 L -57.57500076293945 52.958000183105455 L -57.53900146484375 53.021999359130845 L -57.499000549316406 53.08499908447264 L -57.457000732421875 53.14500045776366 L -57.4109992980957 53.20299911499022 L -57.37242889404297 53.2480010986328 L -57.362998962402344 53.258998870849595 L -57.34400177001953 53.27874374389647 L -57.3120002746582 53.31200027465819 L -57.25899887084961 53.36299896240233 L -57.202999114990234 53.41099929809569 L -57.14500045776367 53.45700073242186 L -57.084999084472656 53.49900054931639 L -57.02199935913086 53.539001464843736 L -56.95800018310547 53.57500076293944 L -56.891998291015625 53.60800170898436 M -57.362998962402344 88.75900268554686 L -57.34400177001953 88.77874755859374 L -57.3120002746582 88.81199645996092 L -57.25899887084961 88.86299896240233 L -57.202999114990234 88.91100311279295 L -57.14500045776367 88.95700073242186 L -57.084999084472656 88.99900054931639 L -57.02199935913086 89.03900146484374 L -56.95800018310547 89.07499694824217 L -56.93199920654297 89.08799743652342 L -56.891998291015625 89.10800170898436 L -56.82500076293945 89.13800048828124 L -56.75600051879883 89.16500091552733 L -56.68600082397461 89.18800354003905 L -56.6150016784668 89.20700073242186 L -56.542999267578125 89.22399902343749 L -56.470001220703125 89.23600006103514 L -56.39699935913086 89.24500274658202 L -56.32400131225586 89.25099945068358 L -56.31999969482422 89.25110626220702 L -56.25 89.25299835205077 L -56.17599868774414 89.25099945068358 L -56.10300064086914 89.24500274658202 L -56.029998779296875 89.23600006103514 L -55.957000732421875 89.22399902343749 L -55.8849983215332 89.20700073242186 L -55.81399917602539 89.18800354003905 L -55.74399948120117 89.16500091552733 L -55.67499923706055 89.13800048828124 L -55.608001708984375 89.10800170898436 L -55.56800079345703 89.08799743652342 L -55.54199981689453 89.07499694824217 L -55.5 89.05137634277342 L -55.47800064086914 89.03900146484374 L -55.415000915527344 88.99900054931639 L -55.35499954223633 88.95700073242186 L -55.297000885009766 88.91100311279295 L -55.29600143432617 88.91014099121092 L -55.24100112915039 88.86299896240233 L -55.1879997253418 88.81199645996092 L -55.137001037597656 88.75900268554686 L -55.0890007019043 88.70300292968749 L -55.042999267578125 88.64499664306639 L -55.000999450683594 88.58499908447264 L -54.96099853515625 88.52200317382811 L -54.92499923706055 88.45800018310545 L -54.891998291015625 88.39199829101561 L -54.86199951171875 88.32499694824217 L -54.834999084472656 88.25599670410155 L -54.8120002746582 88.18599700927733 L -54.792999267578125 88.11499786376952 L -54.78096008300781 88.06400299072264 L -54.7760009765625 88.04299926757811 L -54.763999938964844 87.97000122070311 L -54.755001068115234 87.89700317382811 L -54.749000549316406 87.82399749755858 L -54.74803924560547 87.75299835205077 L -54.74800109863281 87.74999999999999 L -54.749000549316406 87.67600250244139 L -54.755001068115234 87.60299682617186 L -54.761287689208984 87.55200195312499 L -54.763999938964844 87.52999877929686 L -54.7760009765625 87.45700073242186 L -54.792999267578125 87.38500213623045 L -54.8120002746582 87.31400299072264 L -54.834999084472656 87.24400329589842 L -54.86199951171875 87.1750030517578 L -54.891998291015625 87.10800170898436 L -54.92499923706055 87.04199981689452 L -54.926124572753906 87.04000091552733 L -54.96099853515625 86.97799682617186 L -55.000999450683594 86.91500091552733 L -55.042999267578125 86.85500335693358 L -55.0890007019043 86.79699707031249 L -55.137001037597656 86.74099731445311 L -55.1879997253418 86.68800354003905 L -55.24100112915039 86.63700103759764 L -55.29600143432617 86.58985900878905 L -55.297000885009766 86.58899688720702 L -55.35499954223633 86.54299926757811 L -55.415000915527344 86.50099945068358 L -55.47800064086914 86.46099853515624 L -55.5 86.44862365722655 L -55.54199981689453 86.4250030517578 L -55.608001708984375 86.39199829101561 L -55.67499923706055 86.36199951171874 L -55.74399948120117 86.33499908447264 L -55.80799865722656 86.31397247314452 L -55.81399917602539 86.31199645996092 L -55.8849983215332 86.29299926757811 L -55.957000732421875 86.27600097656249 L -56.029998779296875 86.26399993896483 L -56.10300064086914 86.25499725341795 L -56.17599868774414 86.24900054931639 L -56.25 86.2480010986328 L -56.31999969482422 86.24894714355467 L -56.32400131225586 86.24900054931639 L -56.39699935913086 86.25499725341795 L -56.470001220703125 86.26399993896483 L -56.542999267578125 86.27600097656249 L -56.6150016784668 86.29299926757811 L -56.68600082397461 86.31199645996092 L -56.75600051879883 86.33499908447264 L -56.82500076293945 86.36199951171874 L -56.832000732421875 86.36513519287108 L -56.891998291015625 86.39199829101561 L -56.95800018310547 86.4250030517578 L -57.02199935913086 86.46099853515624 L -57.084999084472656 86.50099945068358 L -57.14500045776367 86.54299926757811 L -57.202999114990234 86.58899688720702 L -57.25899887084961 86.63700103759764 L -57.3120002746582 86.68800354003905 L -57.34400177001953 86.72125244140624 L -57.362998962402344 86.74099731445311 L -57.4109992980957 86.79699707031249 L -57.457000732421875 86.85500335693358 L -57.499000549316406 86.91500091552733 L -57.53900146484375 86.97799682617186 L -57.573875427246094 87.04000091552733 L -57.57500076293945 87.04199981689452 L -57.608001708984375 87.10800170898436 L -57.63800048828125 87.1750030517578 L -57.665000915527344 87.24400329589842 L -57.6879997253418 87.31400299072264 L -57.707000732421875 87.38500213623045 L -57.7239990234375 87.45700073242186 L -57.736000061035156 87.52999877929686 L -57.738712310791016 87.55200195312499 L -57.744998931884766 87.60299682617186 L -57.750999450683594 87.67600250244139 L -57.75299835205078 87.74999999999999 L -57.750999450683594 87.82399749755858 L -57.744998931884766 87.89700317382811 L -57.736000061035156 87.97000122070311 L -57.7239990234375 88.04299926757811 L -57.71903991699219 88.06400299072264 L -57.707000732421875 88.11499786376952 L -57.6879997253418 88.18599700927733 L -57.665000915527344 88.25599670410155 L -57.63800048828125 88.32499694824217 L -57.608001708984375 88.39199829101561 L -57.57500076293945 88.45800018310545 L -57.53900146484375 88.52200317382811 L -57.499000549316406 88.58499908447264 L -57.457000732421875 88.64499664306639 L -57.4109992980957 88.70300292968749 L -57.362998962402344 88.75900268554686 M -32.0359992980957 78.0709991455078 L -32.5 77.9980010986328 L -32.768001556396484 78.04016113281249 L -32.9640007019043 78.0709991455078 L -33.382999420166016 78.28399658203124 L -33.715999603271484 78.6169967651367 L -33.92900085449219 79.03600311279295 L -34.00299835205078 79.49999999999999 L -33.92900085449219 79.96399688720702 L -33.715999603271484 80.38300323486327 L -33.382999420166016 80.71600341796874 L -32.9640007019043 80.92900085449217 L -32.768001556396484 80.95983886718749 L -32.5 81.00199890136717 L -32.0359992980957 80.92900085449217 L -31.617000579833984 80.71600341796874 L -31.284000396728516 80.38300323486327 L -31.070999145507812 79.96399688720702 L -30.996999740600586 79.49999999999999 L -31.070999145507812 79.03600311279295 L -31.284000396728516 78.6169967651367 L -31.617000579833984 78.28399658203124 L -32.0359992980957 78.0709991455078 M -32.0359992980957 70.0709991455078 L -32.5 69.9980010986328 L -32.768001556396484 70.04016113281249 L -32.9640007019043 70.0709991455078 L -33.382999420166016 70.28399658203124 L -33.715999603271484 70.6169967651367 L -33.92900085449219 71.03600311279295 L -34.00299835205078 71.49999999999999 L -33.92900085449219 71.96399688720702 L -33.715999603271484 72.38300323486327 L -33.382999420166016 72.71600341796874 L -32.9640007019043 72.92900085449217 L -32.768001556396484 72.95983886718749 L -32.5 73.00199890136717 L -32.0359992980957 72.92900085449217 L -31.617000579833984 72.71600341796874 L -31.284000396728516 72.38300323486327 L -31.070999145507812 71.96399688720702 L -30.996999740600586 71.49999999999999 L -31.070999145507812 71.03600311279295 L -31.284000396728516 70.6169967651367 L -31.617000579833984 70.28399658203124 L -32.0359992980957 70.0709991455078 M -32.0359992980957 62.0709991455078 L -32.5 61.997001647949205 L -32.768001556396484 62.03974151611327 L -32.9640007019043 62.0709991455078 L -33.382999420166016 62.2840003967285 L -33.715999603271484 62.61700057983397 L -33.92900085449219 63.03599929809569 L -34.00299835205078 63.499999999999986 L -33.92900085449219 63.96400070190428 L -33.715999603271484 64.38300323486327 L -33.382999420166016 64.71600341796874 L -32.9640007019043 64.92900085449217 L -32.768001556396484 64.95983886718749 L -32.5 65.00199890136717 L -32.0359992980957 64.92900085449217 L -31.617000579833984 64.71600341796874 L -31.284000396728516 64.38300323486327 L -31.070999145507812 63.96400070190428 L -30.996999740600586 63.499999999999986 L -31.070999145507812 63.03599929809569 L -31.284000396728516 62.61700057983397 L -31.617000579833984 62.2840003967285 L -32.0359992980957 62.0709991455078 M -32.0359992980957 54.0709991455078 L -32.5 53.997001647949205 L -32.768001556396484 54.03974151611327 L -32.9640007019043 54.0709991455078 L -33.382999420166016 54.2840003967285 L -33.715999603271484 54.61700057983397 L -33.92900085449219 55.03599929809569 L -34.00299835205078 55.499999999999986 L -33.92900085449219 55.96400070190428 L -33.715999603271484 56.382999420166 L -33.382999420166016 56.71599960327147 L -32.9640007019043 56.92900085449217 L -32.768001556396484 56.95983505249022 L -32.5 57.00199890136717 L -32.0359992980957 56.92900085449217 L -31.617000579833984 56.71599960327147 L -31.284000396728516 56.382999420166 L -31.070999145507812 55.96400070190428 L -30.996999740600586 55.499999999999986 L -31.070999145507812 55.03599929809569 L -31.284000396728516 54.61700057983397 L -31.617000579833984 54.2840003967285 L -32.0359992980957 54.0709991455078 M -71.8030014038086 60.798000335693345 L -71.8030014038086 67.20300292968749 L -65.39800262451172 67.20300292968749 L -65.39800262451172 60.798000335693345 L -71.8030014038086 60.798000335693345 M -65.39800262451172 75.79799652099608 L -71.8030014038086 75.79799652099608 L -71.8030014038086 82.20300292968749 L -65.39800262451172 82.20300292968749 L -65.39800262451172 75.79799652099608 z" fill="none" stroke="rgb(255,0,0)" stroke-width="0.001mm" />
</svg>