; NON-PLATED HOLES START AT T1
; THROUGH (PLATED) HOLES START AT T100
M48
INCH
T1C0.125984
T100C0.035433
T101C0.035000
T102C0.031497
T103C0.038000
T104C0.040000
%
T1
X001306Y001299
X001306Y015299
X016306Y001299
X016306Y015299
T100
X014806Y002799
X006806Y011799
T101
X010306Y005570
X006806Y001799
X014806Y006799
X012865Y003799
X015806Y006799
X015806Y008799
X012865Y009799
X006806Y005799
X010306Y011570
X012865Y011570
X006806Y008799
X012865Y005570
X014806Y008799
X006806Y009799
X005806Y009799
X005806Y001799
X005806Y004799
X005806Y006799
X005806Y008799
X005806Y005799
X006806Y006799
X010306Y009799
X005806Y003799
X010306Y003799
X006806Y002799
X006806Y003799
X006806Y004799
X005806Y002799
T102
X015806Y004799
X015806Y003814
X015806Y010814
X015806Y011799
T103
X007806Y003799
X007806Y005799
X013306Y001799
X013806Y011799
X013806Y004799
X007806Y004799
X013806Y007799
X007806Y013799
X007806Y002799
X011306Y002799
X013806Y010799
X013806Y006799
X013806Y012799
X007806Y008799
X012306Y002799
X007806Y010799
X012306Y001799
X014306Y001799
X007806Y011799
X011306Y001799
X013806Y005799
X007806Y007799
X007806Y006799
X007806Y012799
X013806Y009799
X012306Y014799
X010306Y002799
X007806Y009799
X013806Y002799
X013806Y008799
X009306Y002799
X013806Y013799
X013306Y014799
X014306Y014799
X013806Y003799
X011306Y014799
T104
X001806Y009799
X001806Y005810
X001806Y008799
X001806Y006799
X001806Y007799
X004811Y008797
X004811Y006797
X004811Y005808
X004811Y007797
X004815Y009801
T00
M30
