G04 MADE WITH FRITZING*
G04 WWW.FRITZING.ORG*
G04 DOUBLE SIDED*
G04 HOLES PLATED*
G04 CONTOUR ON CENTER OF CONTOUR VECTOR*
%ASAXBY*%
%FSLAX23Y23*%
%MOIN*%
%OFA0B0*%
%SFA1.0B1.0*%
%ADD10C,0.088000*%
%ADD11C,0.084000*%
%ADD12C,0.085000*%
%ADD13C,0.072992*%
%ADD14C,0.135984*%
%ADD15C,0.085433*%
%ADD16R,0.084000X0.084000*%
%ADD17R,0.072992X0.072992*%
%LNMASK0*%
G90*
G70*
G54D10*
X1381Y1380D03*
X1381Y1280D03*
X1381Y1180D03*
X1381Y1080D03*
X1381Y980D03*
X1381Y880D03*
X1381Y780D03*
X1381Y680D03*
X1381Y580D03*
X1381Y480D03*
X1381Y380D03*
X1381Y280D03*
X1381Y1380D03*
X1381Y1280D03*
X1381Y1180D03*
X1381Y1080D03*
X1381Y980D03*
X1381Y880D03*
X1381Y780D03*
X1381Y680D03*
X1381Y580D03*
X1381Y480D03*
X1381Y380D03*
X1381Y280D03*
X781Y1380D03*
X781Y1280D03*
X781Y1180D03*
X781Y1080D03*
X781Y980D03*
X781Y880D03*
X781Y780D03*
X781Y680D03*
X781Y580D03*
X781Y480D03*
X781Y380D03*
X781Y280D03*
X781Y1380D03*
X781Y1280D03*
X781Y1180D03*
X781Y1080D03*
X781Y980D03*
X781Y880D03*
X781Y780D03*
X781Y680D03*
X781Y580D03*
X781Y480D03*
X781Y380D03*
X781Y280D03*
G54D11*
X181Y980D03*
X181Y880D03*
X181Y780D03*
X181Y680D03*
X181Y581D03*
X481Y581D03*
X481Y680D03*
X481Y780D03*
X481Y880D03*
X482Y980D03*
X181Y980D03*
X181Y880D03*
X181Y780D03*
X181Y680D03*
X181Y581D03*
X481Y581D03*
X481Y680D03*
X481Y780D03*
X481Y880D03*
X482Y980D03*
G54D12*
X1581Y680D03*
X1481Y680D03*
X1581Y680D03*
X1481Y680D03*
X681Y180D03*
X581Y180D03*
X681Y180D03*
X581Y180D03*
X681Y280D03*
X581Y280D03*
X681Y280D03*
X581Y280D03*
X681Y380D03*
X581Y380D03*
X681Y380D03*
X581Y380D03*
X681Y480D03*
X581Y480D03*
X681Y480D03*
X581Y480D03*
X681Y580D03*
X581Y580D03*
X681Y580D03*
X581Y580D03*
X681Y680D03*
X581Y680D03*
X681Y680D03*
X581Y680D03*
X681Y880D03*
X581Y880D03*
X681Y880D03*
X581Y880D03*
X681Y980D03*
X581Y980D03*
X681Y980D03*
X581Y980D03*
G54D13*
X1581Y1081D03*
X1581Y1180D03*
X1581Y480D03*
X1581Y381D03*
G54D12*
X1287Y980D03*
X1031Y980D03*
X1287Y1157D03*
X1031Y1157D03*
X1287Y380D03*
X1031Y380D03*
X1287Y557D03*
X1031Y557D03*
X1581Y880D03*
X1481Y880D03*
X1581Y880D03*
X1481Y880D03*
G54D10*
X931Y280D03*
X1031Y280D03*
X1131Y280D03*
X1231Y280D03*
X931Y280D03*
X1031Y280D03*
X1131Y280D03*
X1231Y280D03*
X1131Y1480D03*
X1231Y1480D03*
X1331Y1480D03*
X1431Y1480D03*
X1131Y1480D03*
X1231Y1480D03*
X1331Y1480D03*
X1431Y1480D03*
X1131Y180D03*
X1231Y180D03*
X1331Y180D03*
X1431Y180D03*
X1131Y180D03*
X1231Y180D03*
X1331Y180D03*
X1431Y180D03*
G54D14*
X1631Y1530D03*
X131Y130D03*
X131Y1530D03*
X1631Y130D03*
G54D15*
X1481Y280D03*
X681Y1180D03*
G54D16*
X181Y979D03*
G54D17*
X1581Y1081D03*
X1581Y480D03*
G04 End of Mask0*
M02*