G04 MADE WITH FRITZING*
G04 WWW.FRITZING.ORG*
G04 DOUBLE SIDED*
G04 HOLES PLATED*
G04 CONTOUR ON CENTER OF CONTOUR VECTOR*
%ASAXBY*%
%FSLAX23Y23*%
%MOIN*%
%OFA0B0*%
%SFA1.0B1.0*%
%ADD10R,0.403552X0.521663X0.383866X0.501977*%
%ADD11C,0.009843*%
%ADD12C,0.010000*%
%ADD13R,0.001000X0.001000*%
%LNSILK1*%
G90*
G70*
G54D11*
X134Y1036D02*
X528Y1036D01*
X528Y525D01*
X134Y525D01*
X134Y1036D01*
D02*
G54D12*
X1277Y1108D02*
X1277Y1029D01*
D02*
X1080Y1187D02*
X1247Y1187D01*
D02*
X1080Y950D02*
X1247Y950D01*
D02*
X1040Y1108D02*
X1040Y1029D01*
D02*
X1159Y1088D02*
X1159Y1049D01*
D02*
X1178Y1069D02*
X1139Y1069D01*
D02*
X1277Y508D02*
X1277Y429D01*
D02*
X1080Y587D02*
X1247Y587D01*
D02*
X1080Y350D02*
X1247Y350D01*
D02*
X1040Y508D02*
X1040Y429D01*
D02*
X1159Y488D02*
X1159Y449D01*
D02*
X1178Y469D02*
X1139Y469D01*
G36*
X356Y1420D02*
X356Y1416D01*
X347Y1416D01*
X347Y1412D01*
X385Y1412D01*
X385Y1399D01*
X419Y1399D01*
X419Y1395D01*
X424Y1395D01*
X424Y1391D01*
X419Y1391D01*
X419Y1386D01*
X415Y1386D01*
X415Y1382D01*
X411Y1382D01*
X411Y1378D01*
X458Y1378D01*
X458Y1382D01*
X453Y1382D01*
X453Y1386D01*
X449Y1386D01*
X449Y1391D01*
X445Y1391D01*
X445Y1395D01*
X441Y1395D01*
X441Y1399D01*
X436Y1399D01*
X436Y1403D01*
X432Y1403D01*
X432Y1408D01*
X424Y1408D01*
X424Y1412D01*
X415Y1412D01*
X415Y1416D01*
X407Y1416D01*
X407Y1420D01*
X356Y1420D01*
G37*
D02*
G36*
X339Y1412D02*
X339Y1408D01*
X330Y1408D01*
X330Y1403D01*
X326Y1403D01*
X326Y1399D01*
X347Y1399D01*
X347Y1395D01*
X351Y1395D01*
X351Y1391D01*
X381Y1391D01*
X381Y1395D01*
X377Y1395D01*
X377Y1412D01*
X339Y1412D01*
G37*
D02*
G36*
X322Y1399D02*
X322Y1395D01*
X317Y1395D01*
X317Y1391D01*
X313Y1391D01*
X313Y1386D01*
X309Y1386D01*
X309Y1382D01*
X347Y1382D01*
X347Y1386D01*
X343Y1386D01*
X343Y1391D01*
X339Y1391D01*
X339Y1395D01*
X343Y1395D01*
X343Y1399D01*
X322Y1399D01*
G37*
D02*
G36*
X385Y1399D02*
X385Y1391D01*
X411Y1391D01*
X411Y1395D01*
X415Y1395D01*
X415Y1399D01*
X385Y1399D01*
G37*
D02*
G36*
X356Y1391D02*
X356Y1386D01*
X407Y1386D01*
X407Y1391D01*
X356Y1391D01*
G37*
D02*
G36*
X356Y1391D02*
X356Y1386D01*
X407Y1386D01*
X407Y1391D01*
X356Y1391D01*
G37*
D02*
G36*
X356Y1386D02*
X356Y1382D01*
X368Y1382D01*
X368Y1386D01*
X356Y1386D01*
G37*
D02*
G36*
X394Y1386D02*
X394Y1382D01*
X402Y1382D01*
X402Y1378D01*
X407Y1378D01*
X407Y1386D01*
X394Y1386D01*
G37*
D02*
G36*
X305Y1382D02*
X305Y1378D01*
X360Y1378D01*
X360Y1382D01*
X305Y1382D01*
G37*
D02*
G36*
X305Y1382D02*
X305Y1378D01*
X360Y1378D01*
X360Y1382D01*
X305Y1382D01*
G37*
D02*
G36*
X305Y1378D02*
X305Y1374D01*
X300Y1374D01*
X300Y1365D01*
X296Y1365D01*
X296Y1361D01*
X343Y1361D01*
X343Y1352D01*
X351Y1352D01*
X351Y1369D01*
X356Y1369D01*
X356Y1378D01*
X305Y1378D01*
G37*
D02*
G36*
X407Y1378D02*
X407Y1369D01*
X411Y1369D01*
X411Y1361D01*
X436Y1361D01*
X436Y1352D01*
X466Y1352D01*
X466Y1365D01*
X462Y1365D01*
X462Y1374D01*
X458Y1374D01*
X458Y1378D01*
X407Y1378D01*
G37*
D02*
G36*
X296Y1361D02*
X296Y1352D01*
X326Y1352D01*
X326Y1361D01*
X296Y1361D01*
G37*
D02*
G36*
X411Y1361D02*
X411Y1352D01*
X419Y1352D01*
X419Y1361D01*
X411Y1361D01*
G37*
D02*
G36*
X296Y1352D02*
X296Y1348D01*
X351Y1348D01*
X351Y1352D01*
X296Y1352D01*
G37*
D02*
G36*
X296Y1352D02*
X296Y1348D01*
X351Y1348D01*
X351Y1352D01*
X296Y1352D01*
G37*
D02*
G36*
X411Y1352D02*
X411Y1348D01*
X466Y1348D01*
X466Y1352D01*
X411Y1352D01*
G37*
D02*
G36*
X411Y1352D02*
X411Y1348D01*
X466Y1348D01*
X466Y1352D01*
X411Y1352D01*
G37*
D02*
G36*
X292Y1348D02*
X292Y1318D01*
X296Y1318D01*
X296Y1301D01*
X300Y1301D01*
X300Y1293D01*
X305Y1293D01*
X305Y1284D01*
X309Y1284D01*
X309Y1280D01*
X313Y1280D01*
X313Y1276D01*
X317Y1276D01*
X317Y1272D01*
X322Y1272D01*
X322Y1267D01*
X326Y1267D01*
X326Y1263D01*
X330Y1263D01*
X330Y1259D01*
X356Y1259D01*
X356Y1280D01*
X360Y1280D01*
X360Y1284D01*
X347Y1284D01*
X347Y1289D01*
X343Y1289D01*
X343Y1301D01*
X351Y1301D01*
X351Y1348D01*
X292Y1348D01*
G37*
D02*
G36*
X411Y1348D02*
X411Y1301D01*
X419Y1301D01*
X419Y1289D01*
X415Y1289D01*
X415Y1284D01*
X402Y1284D01*
X402Y1280D01*
X407Y1280D01*
X407Y1255D01*
X402Y1255D01*
X402Y1250D01*
X419Y1250D01*
X419Y1255D01*
X428Y1255D01*
X428Y1259D01*
X432Y1259D01*
X432Y1263D01*
X436Y1263D01*
X436Y1267D01*
X441Y1267D01*
X441Y1272D01*
X445Y1272D01*
X445Y1276D01*
X449Y1276D01*
X449Y1280D01*
X453Y1280D01*
X453Y1284D01*
X458Y1284D01*
X458Y1293D01*
X462Y1293D01*
X462Y1301D01*
X466Y1301D01*
X466Y1318D01*
X470Y1318D01*
X470Y1348D01*
X411Y1348D01*
G37*
D02*
G36*
X368Y1284D02*
X368Y1259D01*
X394Y1259D01*
X394Y1284D01*
X368Y1284D01*
G37*
D02*
G36*
X339Y1259D02*
X339Y1255D01*
X394Y1255D01*
X394Y1259D01*
X339Y1259D01*
G37*
D02*
G36*
X339Y1259D02*
X339Y1255D01*
X394Y1255D01*
X394Y1259D01*
X339Y1259D01*
G37*
D02*
G36*
X347Y1255D02*
X347Y1250D01*
X394Y1250D01*
X394Y1255D01*
X347Y1255D01*
G37*
D02*
G36*
X356Y1250D02*
X356Y1246D01*
X407Y1246D01*
X407Y1250D01*
X356Y1250D01*
G37*
D02*
G36*
X356Y1250D02*
X356Y1246D01*
X407Y1246D01*
X407Y1250D01*
X356Y1250D01*
G37*
D02*
G36*
X377Y1246D02*
X377Y1242D01*
X385Y1242D01*
X385Y1246D01*
X377Y1246D01*
G37*
D02*
G36*
X364Y1335D02*
X364Y1306D01*
X360Y1306D01*
X360Y1301D01*
X373Y1301D01*
X373Y1306D01*
X368Y1306D01*
X368Y1314D01*
X377Y1314D01*
X377Y1323D01*
X381Y1323D01*
X381Y1335D01*
X364Y1335D01*
G37*
D02*
G36*
X385Y1335D02*
X385Y1314D01*
X394Y1314D01*
X394Y1306D01*
X390Y1306D01*
X390Y1301D01*
X402Y1301D01*
X402Y1335D01*
X385Y1335D01*
G37*
D02*
G36*
X360Y1289D02*
X360Y1284D01*
X364Y1284D01*
X364Y1289D01*
X360Y1289D01*
G37*
D02*
G36*
X398Y1289D02*
X398Y1284D01*
X402Y1284D01*
X402Y1289D01*
X398Y1289D01*
G37*
D02*
G54D13*
X1Y1653D02*
X1771Y1653D01*
X1Y1652D02*
X1771Y1652D01*
X1Y1651D02*
X1771Y1651D01*
X1Y1650D02*
X1771Y1650D01*
X1Y1649D02*
X1771Y1649D01*
X1Y1648D02*
X1771Y1648D01*
X1Y1647D02*
X1771Y1647D01*
X1Y1646D02*
X1771Y1646D01*
X1Y1645D02*
X8Y1645D01*
X1764Y1645D02*
X1771Y1645D01*
X1Y1644D02*
X8Y1644D01*
X1764Y1644D02*
X1771Y1644D01*
X1Y1643D02*
X8Y1643D01*
X1764Y1643D02*
X1771Y1643D01*
X1Y1642D02*
X8Y1642D01*
X1764Y1642D02*
X1771Y1642D01*
X1Y1641D02*
X8Y1641D01*
X1764Y1641D02*
X1771Y1641D01*
X1Y1640D02*
X8Y1640D01*
X1764Y1640D02*
X1771Y1640D01*
X1Y1639D02*
X8Y1639D01*
X1764Y1639D02*
X1771Y1639D01*
X1Y1638D02*
X8Y1638D01*
X1764Y1638D02*
X1771Y1638D01*
X1Y1637D02*
X8Y1637D01*
X1764Y1637D02*
X1771Y1637D01*
X1Y1636D02*
X8Y1636D01*
X1764Y1636D02*
X1771Y1636D01*
X1Y1635D02*
X8Y1635D01*
X1764Y1635D02*
X1771Y1635D01*
X1Y1634D02*
X8Y1634D01*
X1764Y1634D02*
X1771Y1634D01*
X1Y1633D02*
X8Y1633D01*
X1764Y1633D02*
X1771Y1633D01*
X1Y1632D02*
X8Y1632D01*
X1764Y1632D02*
X1771Y1632D01*
X1Y1631D02*
X8Y1631D01*
X1764Y1631D02*
X1771Y1631D01*
X1Y1630D02*
X8Y1630D01*
X1764Y1630D02*
X1771Y1630D01*
X1Y1629D02*
X8Y1629D01*
X1764Y1629D02*
X1771Y1629D01*
X1Y1628D02*
X8Y1628D01*
X1764Y1628D02*
X1771Y1628D01*
X1Y1627D02*
X8Y1627D01*
X1764Y1627D02*
X1771Y1627D01*
X1Y1626D02*
X8Y1626D01*
X1764Y1626D02*
X1771Y1626D01*
X1Y1625D02*
X8Y1625D01*
X1764Y1625D02*
X1771Y1625D01*
X1Y1624D02*
X8Y1624D01*
X1764Y1624D02*
X1771Y1624D01*
X1Y1623D02*
X8Y1623D01*
X1764Y1623D02*
X1771Y1623D01*
X1Y1622D02*
X8Y1622D01*
X1764Y1622D02*
X1771Y1622D01*
X1Y1621D02*
X8Y1621D01*
X1764Y1621D02*
X1771Y1621D01*
X1Y1620D02*
X8Y1620D01*
X1764Y1620D02*
X1771Y1620D01*
X1Y1619D02*
X8Y1619D01*
X1764Y1619D02*
X1771Y1619D01*
X1Y1618D02*
X8Y1618D01*
X1764Y1618D02*
X1771Y1618D01*
X1Y1617D02*
X8Y1617D01*
X1764Y1617D02*
X1771Y1617D01*
X1Y1616D02*
X8Y1616D01*
X1764Y1616D02*
X1771Y1616D01*
X1Y1615D02*
X8Y1615D01*
X1764Y1615D02*
X1771Y1615D01*
X1Y1614D02*
X8Y1614D01*
X1764Y1614D02*
X1771Y1614D01*
X1Y1613D02*
X8Y1613D01*
X1764Y1613D02*
X1771Y1613D01*
X1Y1612D02*
X8Y1612D01*
X1764Y1612D02*
X1771Y1612D01*
X1Y1611D02*
X8Y1611D01*
X1764Y1611D02*
X1771Y1611D01*
X1Y1610D02*
X8Y1610D01*
X1764Y1610D02*
X1771Y1610D01*
X1Y1609D02*
X8Y1609D01*
X1764Y1609D02*
X1771Y1609D01*
X1Y1608D02*
X8Y1608D01*
X1764Y1608D02*
X1771Y1608D01*
X1Y1607D02*
X8Y1607D01*
X1764Y1607D02*
X1771Y1607D01*
X1Y1606D02*
X8Y1606D01*
X1764Y1606D02*
X1771Y1606D01*
X1Y1605D02*
X8Y1605D01*
X1764Y1605D02*
X1771Y1605D01*
X1Y1604D02*
X8Y1604D01*
X1764Y1604D02*
X1771Y1604D01*
X1Y1603D02*
X8Y1603D01*
X1764Y1603D02*
X1771Y1603D01*
X1Y1602D02*
X8Y1602D01*
X1764Y1602D02*
X1771Y1602D01*
X1Y1601D02*
X8Y1601D01*
X1764Y1601D02*
X1771Y1601D01*
X1Y1600D02*
X8Y1600D01*
X1764Y1600D02*
X1771Y1600D01*
X1Y1599D02*
X8Y1599D01*
X1764Y1599D02*
X1771Y1599D01*
X1Y1598D02*
X8Y1598D01*
X1764Y1598D02*
X1771Y1598D01*
X1Y1597D02*
X8Y1597D01*
X1764Y1597D02*
X1771Y1597D01*
X1Y1596D02*
X8Y1596D01*
X1764Y1596D02*
X1771Y1596D01*
X1Y1595D02*
X8Y1595D01*
X1764Y1595D02*
X1771Y1595D01*
X1Y1594D02*
X8Y1594D01*
X1764Y1594D02*
X1771Y1594D01*
X1Y1593D02*
X8Y1593D01*
X1764Y1593D02*
X1771Y1593D01*
X1Y1592D02*
X8Y1592D01*
X1764Y1592D02*
X1771Y1592D01*
X1Y1591D02*
X8Y1591D01*
X1764Y1591D02*
X1771Y1591D01*
X1Y1590D02*
X8Y1590D01*
X1764Y1590D02*
X1771Y1590D01*
X1Y1589D02*
X8Y1589D01*
X1764Y1589D02*
X1771Y1589D01*
X1Y1588D02*
X8Y1588D01*
X1764Y1588D02*
X1771Y1588D01*
X1Y1587D02*
X8Y1587D01*
X1764Y1587D02*
X1771Y1587D01*
X1Y1586D02*
X8Y1586D01*
X1764Y1586D02*
X1771Y1586D01*
X1Y1585D02*
X8Y1585D01*
X1764Y1585D02*
X1771Y1585D01*
X1Y1584D02*
X8Y1584D01*
X1764Y1584D02*
X1771Y1584D01*
X1Y1583D02*
X8Y1583D01*
X1764Y1583D02*
X1771Y1583D01*
X1Y1582D02*
X8Y1582D01*
X1764Y1582D02*
X1771Y1582D01*
X1Y1581D02*
X8Y1581D01*
X1764Y1581D02*
X1771Y1581D01*
X1Y1580D02*
X8Y1580D01*
X1764Y1580D02*
X1771Y1580D01*
X1Y1579D02*
X8Y1579D01*
X1764Y1579D02*
X1771Y1579D01*
X1Y1578D02*
X8Y1578D01*
X1764Y1578D02*
X1771Y1578D01*
X1Y1577D02*
X8Y1577D01*
X1764Y1577D02*
X1771Y1577D01*
X1Y1576D02*
X8Y1576D01*
X1764Y1576D02*
X1771Y1576D01*
X1Y1575D02*
X8Y1575D01*
X1764Y1575D02*
X1771Y1575D01*
X1Y1574D02*
X8Y1574D01*
X1764Y1574D02*
X1771Y1574D01*
X1Y1573D02*
X8Y1573D01*
X1764Y1573D02*
X1771Y1573D01*
X1Y1572D02*
X8Y1572D01*
X1764Y1572D02*
X1771Y1572D01*
X1Y1571D02*
X8Y1571D01*
X1764Y1571D02*
X1771Y1571D01*
X1Y1570D02*
X8Y1570D01*
X1764Y1570D02*
X1771Y1570D01*
X1Y1569D02*
X8Y1569D01*
X1764Y1569D02*
X1771Y1569D01*
X1Y1568D02*
X8Y1568D01*
X1764Y1568D02*
X1771Y1568D01*
X1Y1567D02*
X8Y1567D01*
X1764Y1567D02*
X1771Y1567D01*
X1Y1566D02*
X8Y1566D01*
X1764Y1566D02*
X1771Y1566D01*
X1Y1565D02*
X8Y1565D01*
X1764Y1565D02*
X1771Y1565D01*
X1Y1564D02*
X8Y1564D01*
X1764Y1564D02*
X1771Y1564D01*
X1Y1563D02*
X8Y1563D01*
X1764Y1563D02*
X1771Y1563D01*
X1Y1562D02*
X8Y1562D01*
X1764Y1562D02*
X1771Y1562D01*
X1Y1561D02*
X8Y1561D01*
X1764Y1561D02*
X1771Y1561D01*
X1Y1560D02*
X8Y1560D01*
X1764Y1560D02*
X1771Y1560D01*
X1Y1559D02*
X8Y1559D01*
X1764Y1559D02*
X1771Y1559D01*
X1Y1558D02*
X8Y1558D01*
X1764Y1558D02*
X1771Y1558D01*
X1Y1557D02*
X8Y1557D01*
X1764Y1557D02*
X1771Y1557D01*
X1Y1556D02*
X8Y1556D01*
X1764Y1556D02*
X1771Y1556D01*
X1Y1555D02*
X8Y1555D01*
X1764Y1555D02*
X1771Y1555D01*
X1Y1554D02*
X8Y1554D01*
X1764Y1554D02*
X1771Y1554D01*
X1Y1553D02*
X8Y1553D01*
X1764Y1553D02*
X1771Y1553D01*
X1Y1552D02*
X8Y1552D01*
X1764Y1552D02*
X1771Y1552D01*
X1Y1551D02*
X8Y1551D01*
X1764Y1551D02*
X1771Y1551D01*
X1Y1550D02*
X8Y1550D01*
X1764Y1550D02*
X1771Y1550D01*
X1Y1549D02*
X8Y1549D01*
X1764Y1549D02*
X1771Y1549D01*
X1Y1548D02*
X8Y1548D01*
X1764Y1548D02*
X1771Y1548D01*
X1Y1547D02*
X8Y1547D01*
X1764Y1547D02*
X1771Y1547D01*
X1Y1546D02*
X8Y1546D01*
X1764Y1546D02*
X1771Y1546D01*
X1Y1545D02*
X8Y1545D01*
X1764Y1545D02*
X1771Y1545D01*
X1Y1544D02*
X8Y1544D01*
X1764Y1544D02*
X1771Y1544D01*
X1Y1543D02*
X8Y1543D01*
X1764Y1543D02*
X1771Y1543D01*
X1Y1542D02*
X8Y1542D01*
X1764Y1542D02*
X1771Y1542D01*
X1Y1541D02*
X8Y1541D01*
X1764Y1541D02*
X1771Y1541D01*
X1Y1540D02*
X8Y1540D01*
X1764Y1540D02*
X1771Y1540D01*
X1Y1539D02*
X8Y1539D01*
X1764Y1539D02*
X1771Y1539D01*
X1Y1538D02*
X8Y1538D01*
X1764Y1538D02*
X1771Y1538D01*
X1Y1537D02*
X8Y1537D01*
X1764Y1537D02*
X1771Y1537D01*
X1Y1536D02*
X8Y1536D01*
X1764Y1536D02*
X1771Y1536D01*
X1Y1535D02*
X8Y1535D01*
X1764Y1535D02*
X1771Y1535D01*
X1Y1534D02*
X8Y1534D01*
X1764Y1534D02*
X1771Y1534D01*
X1Y1533D02*
X8Y1533D01*
X1764Y1533D02*
X1771Y1533D01*
X1Y1532D02*
X8Y1532D01*
X1764Y1532D02*
X1771Y1532D01*
X1Y1531D02*
X8Y1531D01*
X1764Y1531D02*
X1771Y1531D01*
X1Y1530D02*
X8Y1530D01*
X1764Y1530D02*
X1771Y1530D01*
X1Y1529D02*
X8Y1529D01*
X1764Y1529D02*
X1771Y1529D01*
X1Y1528D02*
X8Y1528D01*
X1764Y1528D02*
X1771Y1528D01*
X1Y1527D02*
X8Y1527D01*
X1764Y1527D02*
X1771Y1527D01*
X1Y1526D02*
X8Y1526D01*
X1764Y1526D02*
X1771Y1526D01*
X1Y1525D02*
X8Y1525D01*
X1764Y1525D02*
X1771Y1525D01*
X1Y1524D02*
X8Y1524D01*
X1764Y1524D02*
X1771Y1524D01*
X1Y1523D02*
X8Y1523D01*
X1764Y1523D02*
X1771Y1523D01*
X1Y1522D02*
X8Y1522D01*
X1764Y1522D02*
X1771Y1522D01*
X1Y1521D02*
X8Y1521D01*
X1764Y1521D02*
X1771Y1521D01*
X1Y1520D02*
X8Y1520D01*
X1764Y1520D02*
X1771Y1520D01*
X1Y1519D02*
X8Y1519D01*
X1764Y1519D02*
X1771Y1519D01*
X1Y1518D02*
X8Y1518D01*
X1764Y1518D02*
X1771Y1518D01*
X1Y1517D02*
X8Y1517D01*
X1764Y1517D02*
X1771Y1517D01*
X1Y1516D02*
X8Y1516D01*
X1764Y1516D02*
X1771Y1516D01*
X1Y1515D02*
X8Y1515D01*
X1764Y1515D02*
X1771Y1515D01*
X1Y1514D02*
X8Y1514D01*
X1764Y1514D02*
X1771Y1514D01*
X1Y1513D02*
X8Y1513D01*
X1764Y1513D02*
X1771Y1513D01*
X1Y1512D02*
X8Y1512D01*
X1764Y1512D02*
X1771Y1512D01*
X1Y1511D02*
X8Y1511D01*
X1764Y1511D02*
X1771Y1511D01*
X1Y1510D02*
X8Y1510D01*
X1764Y1510D02*
X1771Y1510D01*
X1Y1509D02*
X8Y1509D01*
X1764Y1509D02*
X1771Y1509D01*
X1Y1508D02*
X8Y1508D01*
X1764Y1508D02*
X1771Y1508D01*
X1Y1507D02*
X8Y1507D01*
X1764Y1507D02*
X1771Y1507D01*
X1Y1506D02*
X8Y1506D01*
X1764Y1506D02*
X1771Y1506D01*
X1Y1505D02*
X8Y1505D01*
X1764Y1505D02*
X1771Y1505D01*
X1Y1504D02*
X8Y1504D01*
X1764Y1504D02*
X1771Y1504D01*
X1Y1503D02*
X8Y1503D01*
X1764Y1503D02*
X1771Y1503D01*
X1Y1502D02*
X8Y1502D01*
X1764Y1502D02*
X1771Y1502D01*
X1Y1501D02*
X8Y1501D01*
X1764Y1501D02*
X1771Y1501D01*
X1Y1500D02*
X8Y1500D01*
X1764Y1500D02*
X1771Y1500D01*
X1Y1499D02*
X8Y1499D01*
X1764Y1499D02*
X1771Y1499D01*
X1Y1498D02*
X8Y1498D01*
X1764Y1498D02*
X1771Y1498D01*
X1Y1497D02*
X8Y1497D01*
X1764Y1497D02*
X1771Y1497D01*
X1Y1496D02*
X8Y1496D01*
X1764Y1496D02*
X1771Y1496D01*
X1Y1495D02*
X8Y1495D01*
X1764Y1495D02*
X1771Y1495D01*
X1Y1494D02*
X8Y1494D01*
X1764Y1494D02*
X1771Y1494D01*
X1Y1493D02*
X8Y1493D01*
X1764Y1493D02*
X1771Y1493D01*
X1Y1492D02*
X8Y1492D01*
X1764Y1492D02*
X1771Y1492D01*
X1Y1491D02*
X8Y1491D01*
X1764Y1491D02*
X1771Y1491D01*
X1Y1490D02*
X8Y1490D01*
X1764Y1490D02*
X1771Y1490D01*
X1Y1489D02*
X8Y1489D01*
X1764Y1489D02*
X1771Y1489D01*
X1Y1488D02*
X8Y1488D01*
X1764Y1488D02*
X1771Y1488D01*
X1Y1487D02*
X8Y1487D01*
X1764Y1487D02*
X1771Y1487D01*
X1Y1486D02*
X8Y1486D01*
X1764Y1486D02*
X1771Y1486D01*
X1Y1485D02*
X8Y1485D01*
X1764Y1485D02*
X1771Y1485D01*
X1Y1484D02*
X8Y1484D01*
X1764Y1484D02*
X1771Y1484D01*
X1Y1483D02*
X8Y1483D01*
X1764Y1483D02*
X1771Y1483D01*
X1Y1482D02*
X8Y1482D01*
X1764Y1482D02*
X1771Y1482D01*
X1Y1481D02*
X8Y1481D01*
X1764Y1481D02*
X1771Y1481D01*
X1Y1480D02*
X8Y1480D01*
X1764Y1480D02*
X1771Y1480D01*
X1Y1479D02*
X8Y1479D01*
X1764Y1479D02*
X1771Y1479D01*
X1Y1478D02*
X8Y1478D01*
X1764Y1478D02*
X1771Y1478D01*
X1Y1477D02*
X8Y1477D01*
X1764Y1477D02*
X1771Y1477D01*
X1Y1476D02*
X8Y1476D01*
X1764Y1476D02*
X1771Y1476D01*
X1Y1475D02*
X8Y1475D01*
X1764Y1475D02*
X1771Y1475D01*
X1Y1474D02*
X8Y1474D01*
X1764Y1474D02*
X1771Y1474D01*
X1Y1473D02*
X8Y1473D01*
X1764Y1473D02*
X1771Y1473D01*
X1Y1472D02*
X8Y1472D01*
X1764Y1472D02*
X1771Y1472D01*
X1Y1471D02*
X8Y1471D01*
X1764Y1471D02*
X1771Y1471D01*
X1Y1470D02*
X8Y1470D01*
X1764Y1470D02*
X1771Y1470D01*
X1Y1469D02*
X8Y1469D01*
X1764Y1469D02*
X1771Y1469D01*
X1Y1468D02*
X8Y1468D01*
X1764Y1468D02*
X1771Y1468D01*
X1Y1467D02*
X8Y1467D01*
X1764Y1467D02*
X1771Y1467D01*
X1Y1466D02*
X8Y1466D01*
X1764Y1466D02*
X1771Y1466D01*
X1Y1465D02*
X8Y1465D01*
X1764Y1465D02*
X1771Y1465D01*
X1Y1464D02*
X8Y1464D01*
X1764Y1464D02*
X1771Y1464D01*
X1Y1463D02*
X8Y1463D01*
X1764Y1463D02*
X1771Y1463D01*
X1Y1462D02*
X8Y1462D01*
X1764Y1462D02*
X1771Y1462D01*
X1Y1461D02*
X8Y1461D01*
X1764Y1461D02*
X1771Y1461D01*
X1Y1460D02*
X8Y1460D01*
X1764Y1460D02*
X1771Y1460D01*
X1Y1459D02*
X8Y1459D01*
X1764Y1459D02*
X1771Y1459D01*
X1Y1458D02*
X8Y1458D01*
X1764Y1458D02*
X1771Y1458D01*
X1Y1457D02*
X8Y1457D01*
X1764Y1457D02*
X1771Y1457D01*
X1Y1456D02*
X8Y1456D01*
X1764Y1456D02*
X1771Y1456D01*
X1Y1455D02*
X8Y1455D01*
X1764Y1455D02*
X1771Y1455D01*
X1Y1454D02*
X8Y1454D01*
X1764Y1454D02*
X1771Y1454D01*
X1Y1453D02*
X8Y1453D01*
X1764Y1453D02*
X1771Y1453D01*
X1Y1452D02*
X8Y1452D01*
X1764Y1452D02*
X1771Y1452D01*
X1Y1451D02*
X8Y1451D01*
X1764Y1451D02*
X1771Y1451D01*
X1Y1450D02*
X8Y1450D01*
X1764Y1450D02*
X1771Y1450D01*
X1Y1449D02*
X8Y1449D01*
X1764Y1449D02*
X1771Y1449D01*
X1Y1448D02*
X8Y1448D01*
X1764Y1448D02*
X1771Y1448D01*
X1Y1447D02*
X8Y1447D01*
X1764Y1447D02*
X1771Y1447D01*
X1Y1446D02*
X8Y1446D01*
X1764Y1446D02*
X1771Y1446D01*
X1Y1445D02*
X8Y1445D01*
X1764Y1445D02*
X1771Y1445D01*
X1Y1444D02*
X8Y1444D01*
X1764Y1444D02*
X1771Y1444D01*
X1Y1443D02*
X8Y1443D01*
X1764Y1443D02*
X1771Y1443D01*
X1Y1442D02*
X8Y1442D01*
X1764Y1442D02*
X1771Y1442D01*
X1Y1441D02*
X8Y1441D01*
X1764Y1441D02*
X1771Y1441D01*
X1Y1440D02*
X8Y1440D01*
X1764Y1440D02*
X1771Y1440D01*
X1Y1439D02*
X8Y1439D01*
X1764Y1439D02*
X1771Y1439D01*
X1Y1438D02*
X8Y1438D01*
X1764Y1438D02*
X1771Y1438D01*
X1Y1437D02*
X8Y1437D01*
X1764Y1437D02*
X1771Y1437D01*
X1Y1436D02*
X8Y1436D01*
X1764Y1436D02*
X1771Y1436D01*
X1Y1435D02*
X8Y1435D01*
X1764Y1435D02*
X1771Y1435D01*
X1Y1434D02*
X8Y1434D01*
X1764Y1434D02*
X1771Y1434D01*
X1Y1433D02*
X8Y1433D01*
X1764Y1433D02*
X1771Y1433D01*
X1Y1432D02*
X8Y1432D01*
X1764Y1432D02*
X1771Y1432D01*
X1Y1431D02*
X8Y1431D01*
X1764Y1431D02*
X1771Y1431D01*
X1Y1430D02*
X8Y1430D01*
X1764Y1430D02*
X1771Y1430D01*
X1Y1429D02*
X8Y1429D01*
X1764Y1429D02*
X1771Y1429D01*
X1Y1428D02*
X8Y1428D01*
X1764Y1428D02*
X1771Y1428D01*
X1Y1427D02*
X8Y1427D01*
X1764Y1427D02*
X1771Y1427D01*
X1Y1426D02*
X8Y1426D01*
X1764Y1426D02*
X1771Y1426D01*
X1Y1425D02*
X8Y1425D01*
X1764Y1425D02*
X1771Y1425D01*
X1Y1424D02*
X8Y1424D01*
X1764Y1424D02*
X1771Y1424D01*
X1Y1423D02*
X8Y1423D01*
X1764Y1423D02*
X1771Y1423D01*
X1Y1422D02*
X8Y1422D01*
X1764Y1422D02*
X1771Y1422D01*
X1Y1421D02*
X8Y1421D01*
X1764Y1421D02*
X1771Y1421D01*
X1Y1420D02*
X8Y1420D01*
X1764Y1420D02*
X1771Y1420D01*
X1Y1419D02*
X8Y1419D01*
X1764Y1419D02*
X1771Y1419D01*
X1Y1418D02*
X8Y1418D01*
X1764Y1418D02*
X1771Y1418D01*
X1Y1417D02*
X8Y1417D01*
X1764Y1417D02*
X1771Y1417D01*
X1Y1416D02*
X8Y1416D01*
X1764Y1416D02*
X1771Y1416D01*
X1Y1415D02*
X8Y1415D01*
X1764Y1415D02*
X1771Y1415D01*
X1Y1414D02*
X8Y1414D01*
X1764Y1414D02*
X1771Y1414D01*
X1Y1413D02*
X8Y1413D01*
X1764Y1413D02*
X1771Y1413D01*
X1Y1412D02*
X8Y1412D01*
X1764Y1412D02*
X1771Y1412D01*
X1Y1411D02*
X8Y1411D01*
X1764Y1411D02*
X1771Y1411D01*
X1Y1410D02*
X8Y1410D01*
X1764Y1410D02*
X1771Y1410D01*
X1Y1409D02*
X8Y1409D01*
X1764Y1409D02*
X1771Y1409D01*
X1Y1408D02*
X8Y1408D01*
X1764Y1408D02*
X1771Y1408D01*
X1Y1407D02*
X8Y1407D01*
X1764Y1407D02*
X1771Y1407D01*
X1Y1406D02*
X8Y1406D01*
X1764Y1406D02*
X1771Y1406D01*
X1Y1405D02*
X8Y1405D01*
X1764Y1405D02*
X1771Y1405D01*
X1Y1404D02*
X8Y1404D01*
X1764Y1404D02*
X1771Y1404D01*
X1Y1403D02*
X8Y1403D01*
X1764Y1403D02*
X1771Y1403D01*
X1Y1402D02*
X8Y1402D01*
X1764Y1402D02*
X1771Y1402D01*
X1Y1401D02*
X8Y1401D01*
X1764Y1401D02*
X1771Y1401D01*
X1Y1400D02*
X8Y1400D01*
X1764Y1400D02*
X1771Y1400D01*
X1Y1399D02*
X8Y1399D01*
X1764Y1399D02*
X1771Y1399D01*
X1Y1398D02*
X8Y1398D01*
X1764Y1398D02*
X1771Y1398D01*
X1Y1397D02*
X8Y1397D01*
X1764Y1397D02*
X1771Y1397D01*
X1Y1396D02*
X8Y1396D01*
X1764Y1396D02*
X1771Y1396D01*
X1Y1395D02*
X8Y1395D01*
X1764Y1395D02*
X1771Y1395D01*
X1Y1394D02*
X8Y1394D01*
X1764Y1394D02*
X1771Y1394D01*
X1Y1393D02*
X8Y1393D01*
X1764Y1393D02*
X1771Y1393D01*
X1Y1392D02*
X8Y1392D01*
X1764Y1392D02*
X1771Y1392D01*
X1Y1391D02*
X8Y1391D01*
X1764Y1391D02*
X1771Y1391D01*
X1Y1390D02*
X8Y1390D01*
X1764Y1390D02*
X1771Y1390D01*
X1Y1389D02*
X8Y1389D01*
X1764Y1389D02*
X1771Y1389D01*
X1Y1388D02*
X8Y1388D01*
X1764Y1388D02*
X1771Y1388D01*
X1Y1387D02*
X8Y1387D01*
X1764Y1387D02*
X1771Y1387D01*
X1Y1386D02*
X8Y1386D01*
X1764Y1386D02*
X1771Y1386D01*
X1Y1385D02*
X8Y1385D01*
X1764Y1385D02*
X1771Y1385D01*
X1Y1384D02*
X8Y1384D01*
X1764Y1384D02*
X1771Y1384D01*
X1Y1383D02*
X8Y1383D01*
X1764Y1383D02*
X1771Y1383D01*
X1Y1382D02*
X8Y1382D01*
X1764Y1382D02*
X1771Y1382D01*
X1Y1381D02*
X8Y1381D01*
X1764Y1381D02*
X1771Y1381D01*
X1Y1380D02*
X8Y1380D01*
X1764Y1380D02*
X1771Y1380D01*
X1Y1379D02*
X8Y1379D01*
X1764Y1379D02*
X1771Y1379D01*
X1Y1378D02*
X8Y1378D01*
X1764Y1378D02*
X1771Y1378D01*
X1Y1377D02*
X8Y1377D01*
X1764Y1377D02*
X1771Y1377D01*
X1Y1376D02*
X8Y1376D01*
X1764Y1376D02*
X1771Y1376D01*
X1Y1375D02*
X8Y1375D01*
X1764Y1375D02*
X1771Y1375D01*
X1Y1374D02*
X8Y1374D01*
X1764Y1374D02*
X1771Y1374D01*
X1Y1373D02*
X8Y1373D01*
X1764Y1373D02*
X1771Y1373D01*
X1Y1372D02*
X8Y1372D01*
X1764Y1372D02*
X1771Y1372D01*
X1Y1371D02*
X8Y1371D01*
X1764Y1371D02*
X1771Y1371D01*
X1Y1370D02*
X8Y1370D01*
X1764Y1370D02*
X1771Y1370D01*
X1Y1369D02*
X8Y1369D01*
X1764Y1369D02*
X1771Y1369D01*
X1Y1368D02*
X8Y1368D01*
X1764Y1368D02*
X1771Y1368D01*
X1Y1367D02*
X8Y1367D01*
X1764Y1367D02*
X1771Y1367D01*
X1Y1366D02*
X8Y1366D01*
X1764Y1366D02*
X1771Y1366D01*
X1Y1365D02*
X8Y1365D01*
X1764Y1365D02*
X1771Y1365D01*
X1Y1364D02*
X8Y1364D01*
X1764Y1364D02*
X1771Y1364D01*
X1Y1363D02*
X8Y1363D01*
X1764Y1363D02*
X1771Y1363D01*
X1Y1362D02*
X8Y1362D01*
X1764Y1362D02*
X1771Y1362D01*
X1Y1361D02*
X8Y1361D01*
X1764Y1361D02*
X1771Y1361D01*
X1Y1360D02*
X8Y1360D01*
X1764Y1360D02*
X1771Y1360D01*
X1Y1359D02*
X8Y1359D01*
X1764Y1359D02*
X1771Y1359D01*
X1Y1358D02*
X8Y1358D01*
X1764Y1358D02*
X1771Y1358D01*
X1Y1357D02*
X8Y1357D01*
X1764Y1357D02*
X1771Y1357D01*
X1Y1356D02*
X8Y1356D01*
X1764Y1356D02*
X1771Y1356D01*
X1Y1355D02*
X8Y1355D01*
X1764Y1355D02*
X1771Y1355D01*
X1Y1354D02*
X8Y1354D01*
X1764Y1354D02*
X1771Y1354D01*
X1Y1353D02*
X8Y1353D01*
X1764Y1353D02*
X1771Y1353D01*
X1Y1352D02*
X8Y1352D01*
X1764Y1352D02*
X1771Y1352D01*
X1Y1351D02*
X8Y1351D01*
X1764Y1351D02*
X1771Y1351D01*
X1Y1350D02*
X8Y1350D01*
X1764Y1350D02*
X1771Y1350D01*
X1Y1349D02*
X8Y1349D01*
X1764Y1349D02*
X1771Y1349D01*
X1Y1348D02*
X8Y1348D01*
X1764Y1348D02*
X1771Y1348D01*
X1Y1347D02*
X8Y1347D01*
X1764Y1347D02*
X1771Y1347D01*
X1Y1346D02*
X8Y1346D01*
X1764Y1346D02*
X1771Y1346D01*
X1Y1345D02*
X8Y1345D01*
X1764Y1345D02*
X1771Y1345D01*
X1Y1344D02*
X8Y1344D01*
X1764Y1344D02*
X1771Y1344D01*
X1Y1343D02*
X8Y1343D01*
X1764Y1343D02*
X1771Y1343D01*
X1Y1342D02*
X8Y1342D01*
X1764Y1342D02*
X1771Y1342D01*
X1Y1341D02*
X8Y1341D01*
X1764Y1341D02*
X1771Y1341D01*
X1Y1340D02*
X8Y1340D01*
X1764Y1340D02*
X1771Y1340D01*
X1Y1339D02*
X8Y1339D01*
X1764Y1339D02*
X1771Y1339D01*
X1Y1338D02*
X8Y1338D01*
X1764Y1338D02*
X1771Y1338D01*
X1Y1337D02*
X8Y1337D01*
X1764Y1337D02*
X1771Y1337D01*
X1Y1336D02*
X8Y1336D01*
X1764Y1336D02*
X1771Y1336D01*
X1Y1335D02*
X8Y1335D01*
X1764Y1335D02*
X1771Y1335D01*
X1Y1334D02*
X8Y1334D01*
X1764Y1334D02*
X1771Y1334D01*
X1Y1333D02*
X8Y1333D01*
X1764Y1333D02*
X1771Y1333D01*
X1Y1332D02*
X8Y1332D01*
X1764Y1332D02*
X1771Y1332D01*
X1Y1331D02*
X8Y1331D01*
X1764Y1331D02*
X1771Y1331D01*
X1Y1330D02*
X8Y1330D01*
X1764Y1330D02*
X1771Y1330D01*
X1Y1329D02*
X8Y1329D01*
X1764Y1329D02*
X1771Y1329D01*
X1Y1328D02*
X8Y1328D01*
X1764Y1328D02*
X1771Y1328D01*
X1Y1327D02*
X8Y1327D01*
X1764Y1327D02*
X1771Y1327D01*
X1Y1326D02*
X8Y1326D01*
X1764Y1326D02*
X1771Y1326D01*
X1Y1325D02*
X8Y1325D01*
X1764Y1325D02*
X1771Y1325D01*
X1Y1324D02*
X8Y1324D01*
X1764Y1324D02*
X1771Y1324D01*
X1Y1323D02*
X8Y1323D01*
X1764Y1323D02*
X1771Y1323D01*
X1Y1322D02*
X8Y1322D01*
X1764Y1322D02*
X1771Y1322D01*
X1Y1321D02*
X8Y1321D01*
X1764Y1321D02*
X1771Y1321D01*
X1Y1320D02*
X8Y1320D01*
X1764Y1320D02*
X1771Y1320D01*
X1Y1319D02*
X8Y1319D01*
X1764Y1319D02*
X1771Y1319D01*
X1Y1318D02*
X8Y1318D01*
X1764Y1318D02*
X1771Y1318D01*
X1Y1317D02*
X8Y1317D01*
X1764Y1317D02*
X1771Y1317D01*
X1Y1316D02*
X8Y1316D01*
X1764Y1316D02*
X1771Y1316D01*
X1Y1315D02*
X8Y1315D01*
X1764Y1315D02*
X1771Y1315D01*
X1Y1314D02*
X8Y1314D01*
X1764Y1314D02*
X1771Y1314D01*
X1Y1313D02*
X8Y1313D01*
X1764Y1313D02*
X1771Y1313D01*
X1Y1312D02*
X8Y1312D01*
X1764Y1312D02*
X1771Y1312D01*
X1Y1311D02*
X8Y1311D01*
X1764Y1311D02*
X1771Y1311D01*
X1Y1310D02*
X8Y1310D01*
X1764Y1310D02*
X1771Y1310D01*
X1Y1309D02*
X8Y1309D01*
X1764Y1309D02*
X1771Y1309D01*
X1Y1308D02*
X8Y1308D01*
X1764Y1308D02*
X1771Y1308D01*
X1Y1307D02*
X8Y1307D01*
X1764Y1307D02*
X1771Y1307D01*
X1Y1306D02*
X8Y1306D01*
X1764Y1306D02*
X1771Y1306D01*
X1Y1305D02*
X8Y1305D01*
X1764Y1305D02*
X1771Y1305D01*
X1Y1304D02*
X8Y1304D01*
X1764Y1304D02*
X1771Y1304D01*
X1Y1303D02*
X8Y1303D01*
X1764Y1303D02*
X1771Y1303D01*
X1Y1302D02*
X8Y1302D01*
X1764Y1302D02*
X1771Y1302D01*
X1Y1301D02*
X8Y1301D01*
X1764Y1301D02*
X1771Y1301D01*
X1Y1300D02*
X8Y1300D01*
X1764Y1300D02*
X1771Y1300D01*
X1Y1299D02*
X8Y1299D01*
X1764Y1299D02*
X1771Y1299D01*
X1Y1298D02*
X8Y1298D01*
X1764Y1298D02*
X1771Y1298D01*
X1Y1297D02*
X8Y1297D01*
X1764Y1297D02*
X1771Y1297D01*
X1Y1296D02*
X8Y1296D01*
X1764Y1296D02*
X1771Y1296D01*
X1Y1295D02*
X8Y1295D01*
X1764Y1295D02*
X1771Y1295D01*
X1Y1294D02*
X8Y1294D01*
X1764Y1294D02*
X1771Y1294D01*
X1Y1293D02*
X8Y1293D01*
X1764Y1293D02*
X1771Y1293D01*
X1Y1292D02*
X8Y1292D01*
X1764Y1292D02*
X1771Y1292D01*
X1Y1291D02*
X8Y1291D01*
X1764Y1291D02*
X1771Y1291D01*
X1Y1290D02*
X8Y1290D01*
X1764Y1290D02*
X1771Y1290D01*
X1Y1289D02*
X8Y1289D01*
X1764Y1289D02*
X1771Y1289D01*
X1Y1288D02*
X8Y1288D01*
X1764Y1288D02*
X1771Y1288D01*
X1Y1287D02*
X8Y1287D01*
X1764Y1287D02*
X1771Y1287D01*
X1Y1286D02*
X8Y1286D01*
X1764Y1286D02*
X1771Y1286D01*
X1Y1285D02*
X8Y1285D01*
X1764Y1285D02*
X1771Y1285D01*
X1Y1284D02*
X8Y1284D01*
X1764Y1284D02*
X1771Y1284D01*
X1Y1283D02*
X8Y1283D01*
X1764Y1283D02*
X1771Y1283D01*
X1Y1282D02*
X8Y1282D01*
X1764Y1282D02*
X1771Y1282D01*
X1Y1281D02*
X8Y1281D01*
X1764Y1281D02*
X1771Y1281D01*
X1Y1280D02*
X8Y1280D01*
X1764Y1280D02*
X1771Y1280D01*
X1Y1279D02*
X8Y1279D01*
X1764Y1279D02*
X1771Y1279D01*
X1Y1278D02*
X8Y1278D01*
X1764Y1278D02*
X1771Y1278D01*
X1Y1277D02*
X8Y1277D01*
X1764Y1277D02*
X1771Y1277D01*
X1Y1276D02*
X8Y1276D01*
X1764Y1276D02*
X1771Y1276D01*
X1Y1275D02*
X8Y1275D01*
X1764Y1275D02*
X1771Y1275D01*
X1Y1274D02*
X8Y1274D01*
X1764Y1274D02*
X1771Y1274D01*
X1Y1273D02*
X8Y1273D01*
X1764Y1273D02*
X1771Y1273D01*
X1Y1272D02*
X8Y1272D01*
X1764Y1272D02*
X1771Y1272D01*
X1Y1271D02*
X8Y1271D01*
X1764Y1271D02*
X1771Y1271D01*
X1Y1270D02*
X8Y1270D01*
X1764Y1270D02*
X1771Y1270D01*
X1Y1269D02*
X8Y1269D01*
X1764Y1269D02*
X1771Y1269D01*
X1Y1268D02*
X8Y1268D01*
X1764Y1268D02*
X1771Y1268D01*
X1Y1267D02*
X8Y1267D01*
X1764Y1267D02*
X1771Y1267D01*
X1Y1266D02*
X8Y1266D01*
X1764Y1266D02*
X1771Y1266D01*
X1Y1265D02*
X8Y1265D01*
X1764Y1265D02*
X1771Y1265D01*
X1Y1264D02*
X8Y1264D01*
X1764Y1264D02*
X1771Y1264D01*
X1Y1263D02*
X8Y1263D01*
X1764Y1263D02*
X1771Y1263D01*
X1Y1262D02*
X8Y1262D01*
X1764Y1262D02*
X1771Y1262D01*
X1Y1261D02*
X8Y1261D01*
X1764Y1261D02*
X1771Y1261D01*
X1Y1260D02*
X8Y1260D01*
X1764Y1260D02*
X1771Y1260D01*
X1Y1259D02*
X8Y1259D01*
X1764Y1259D02*
X1771Y1259D01*
X1Y1258D02*
X8Y1258D01*
X1764Y1258D02*
X1771Y1258D01*
X1Y1257D02*
X8Y1257D01*
X1764Y1257D02*
X1771Y1257D01*
X1Y1256D02*
X8Y1256D01*
X1764Y1256D02*
X1771Y1256D01*
X1Y1255D02*
X8Y1255D01*
X1764Y1255D02*
X1771Y1255D01*
X1Y1254D02*
X8Y1254D01*
X1764Y1254D02*
X1771Y1254D01*
X1Y1253D02*
X8Y1253D01*
X1764Y1253D02*
X1771Y1253D01*
X1Y1252D02*
X8Y1252D01*
X1764Y1252D02*
X1771Y1252D01*
X1Y1251D02*
X8Y1251D01*
X1764Y1251D02*
X1771Y1251D01*
X1Y1250D02*
X8Y1250D01*
X1764Y1250D02*
X1771Y1250D01*
X1Y1249D02*
X8Y1249D01*
X1764Y1249D02*
X1771Y1249D01*
X1Y1248D02*
X8Y1248D01*
X1764Y1248D02*
X1771Y1248D01*
X1Y1247D02*
X8Y1247D01*
X1764Y1247D02*
X1771Y1247D01*
X1Y1246D02*
X8Y1246D01*
X1764Y1246D02*
X1771Y1246D01*
X1Y1245D02*
X8Y1245D01*
X1764Y1245D02*
X1771Y1245D01*
X1Y1244D02*
X8Y1244D01*
X1764Y1244D02*
X1771Y1244D01*
X1Y1243D02*
X8Y1243D01*
X1764Y1243D02*
X1771Y1243D01*
X1Y1242D02*
X8Y1242D01*
X1764Y1242D02*
X1771Y1242D01*
X1Y1241D02*
X8Y1241D01*
X1764Y1241D02*
X1771Y1241D01*
X1Y1240D02*
X8Y1240D01*
X1764Y1240D02*
X1771Y1240D01*
X1Y1239D02*
X8Y1239D01*
X1764Y1239D02*
X1771Y1239D01*
X1Y1238D02*
X8Y1238D01*
X1764Y1238D02*
X1771Y1238D01*
X1Y1237D02*
X8Y1237D01*
X1764Y1237D02*
X1771Y1237D01*
X1Y1236D02*
X8Y1236D01*
X1764Y1236D02*
X1771Y1236D01*
X1Y1235D02*
X8Y1235D01*
X1764Y1235D02*
X1771Y1235D01*
X1Y1234D02*
X8Y1234D01*
X1764Y1234D02*
X1771Y1234D01*
X1Y1233D02*
X8Y1233D01*
X1764Y1233D02*
X1771Y1233D01*
X1Y1232D02*
X8Y1232D01*
X1764Y1232D02*
X1771Y1232D01*
X1Y1231D02*
X8Y1231D01*
X1764Y1231D02*
X1771Y1231D01*
X1Y1230D02*
X8Y1230D01*
X1764Y1230D02*
X1771Y1230D01*
X1Y1229D02*
X8Y1229D01*
X1764Y1229D02*
X1771Y1229D01*
X1Y1228D02*
X8Y1228D01*
X1764Y1228D02*
X1771Y1228D01*
X1Y1227D02*
X8Y1227D01*
X1764Y1227D02*
X1771Y1227D01*
X1Y1226D02*
X8Y1226D01*
X1764Y1226D02*
X1771Y1226D01*
X1Y1225D02*
X8Y1225D01*
X1764Y1225D02*
X1771Y1225D01*
X1Y1224D02*
X8Y1224D01*
X1764Y1224D02*
X1771Y1224D01*
X1Y1223D02*
X8Y1223D01*
X1764Y1223D02*
X1771Y1223D01*
X1Y1222D02*
X8Y1222D01*
X1764Y1222D02*
X1771Y1222D01*
X1Y1221D02*
X8Y1221D01*
X1764Y1221D02*
X1771Y1221D01*
X1Y1220D02*
X8Y1220D01*
X1764Y1220D02*
X1771Y1220D01*
X1Y1219D02*
X8Y1219D01*
X1764Y1219D02*
X1771Y1219D01*
X1Y1218D02*
X8Y1218D01*
X1764Y1218D02*
X1771Y1218D01*
X1Y1217D02*
X8Y1217D01*
X1764Y1217D02*
X1771Y1217D01*
X1Y1216D02*
X8Y1216D01*
X1764Y1216D02*
X1771Y1216D01*
X1Y1215D02*
X8Y1215D01*
X1764Y1215D02*
X1771Y1215D01*
X1Y1214D02*
X8Y1214D01*
X1764Y1214D02*
X1771Y1214D01*
X1Y1213D02*
X8Y1213D01*
X1764Y1213D02*
X1771Y1213D01*
X1Y1212D02*
X8Y1212D01*
X1764Y1212D02*
X1771Y1212D01*
X1Y1211D02*
X8Y1211D01*
X1764Y1211D02*
X1771Y1211D01*
X1Y1210D02*
X8Y1210D01*
X1764Y1210D02*
X1771Y1210D01*
X1Y1209D02*
X8Y1209D01*
X1764Y1209D02*
X1771Y1209D01*
X1Y1208D02*
X8Y1208D01*
X1764Y1208D02*
X1771Y1208D01*
X1Y1207D02*
X8Y1207D01*
X1764Y1207D02*
X1771Y1207D01*
X1Y1206D02*
X8Y1206D01*
X1764Y1206D02*
X1771Y1206D01*
X1Y1205D02*
X8Y1205D01*
X1764Y1205D02*
X1771Y1205D01*
X1Y1204D02*
X8Y1204D01*
X1764Y1204D02*
X1771Y1204D01*
X1Y1203D02*
X8Y1203D01*
X1764Y1203D02*
X1771Y1203D01*
X1Y1202D02*
X8Y1202D01*
X1764Y1202D02*
X1771Y1202D01*
X1Y1201D02*
X8Y1201D01*
X1764Y1201D02*
X1771Y1201D01*
X1Y1200D02*
X8Y1200D01*
X1764Y1200D02*
X1771Y1200D01*
X1Y1199D02*
X8Y1199D01*
X1764Y1199D02*
X1771Y1199D01*
X1Y1198D02*
X8Y1198D01*
X1533Y1198D02*
X1548Y1198D01*
X1613Y1198D02*
X1628Y1198D01*
X1764Y1198D02*
X1771Y1198D01*
X1Y1197D02*
X8Y1197D01*
X1532Y1197D02*
X1548Y1197D01*
X1613Y1197D02*
X1629Y1197D01*
X1764Y1197D02*
X1771Y1197D01*
X1Y1196D02*
X8Y1196D01*
X1531Y1196D02*
X1548Y1196D01*
X1614Y1196D02*
X1630Y1196D01*
X1764Y1196D02*
X1771Y1196D01*
X1Y1195D02*
X8Y1195D01*
X1530Y1195D02*
X1547Y1195D01*
X1614Y1195D02*
X1631Y1195D01*
X1764Y1195D02*
X1771Y1195D01*
X1Y1194D02*
X8Y1194D01*
X1528Y1194D02*
X1547Y1194D01*
X1614Y1194D02*
X1633Y1194D01*
X1764Y1194D02*
X1771Y1194D01*
X1Y1193D02*
X8Y1193D01*
X1527Y1193D02*
X1534Y1193D01*
X1627Y1193D02*
X1634Y1193D01*
X1764Y1193D02*
X1771Y1193D01*
X1Y1192D02*
X8Y1192D01*
X1526Y1192D02*
X1533Y1192D01*
X1628Y1192D02*
X1635Y1192D01*
X1764Y1192D02*
X1771Y1192D01*
X1Y1191D02*
X8Y1191D01*
X1525Y1191D02*
X1532Y1191D01*
X1629Y1191D02*
X1636Y1191D01*
X1764Y1191D02*
X1771Y1191D01*
X1Y1190D02*
X8Y1190D01*
X1524Y1190D02*
X1531Y1190D01*
X1630Y1190D02*
X1637Y1190D01*
X1764Y1190D02*
X1771Y1190D01*
X1Y1189D02*
X8Y1189D01*
X1523Y1189D02*
X1530Y1189D01*
X1632Y1189D02*
X1638Y1189D01*
X1764Y1189D02*
X1771Y1189D01*
X1Y1188D02*
X8Y1188D01*
X1522Y1188D02*
X1528Y1188D01*
X1633Y1188D02*
X1639Y1188D01*
X1764Y1188D02*
X1771Y1188D01*
X1Y1187D02*
X8Y1187D01*
X1521Y1187D02*
X1527Y1187D01*
X1634Y1187D02*
X1640Y1187D01*
X1764Y1187D02*
X1771Y1187D01*
X1Y1186D02*
X8Y1186D01*
X1521Y1186D02*
X1526Y1186D01*
X1635Y1186D02*
X1640Y1186D01*
X1764Y1186D02*
X1771Y1186D01*
X1Y1185D02*
X8Y1185D01*
X1520Y1185D02*
X1526Y1185D01*
X1636Y1185D02*
X1641Y1185D01*
X1764Y1185D02*
X1771Y1185D01*
X1Y1184D02*
X8Y1184D01*
X1519Y1184D02*
X1525Y1184D01*
X1637Y1184D02*
X1642Y1184D01*
X1764Y1184D02*
X1771Y1184D01*
X1Y1183D02*
X8Y1183D01*
X1518Y1183D02*
X1524Y1183D01*
X1637Y1183D02*
X1643Y1183D01*
X1764Y1183D02*
X1771Y1183D01*
X1Y1182D02*
X8Y1182D01*
X1517Y1182D02*
X1523Y1182D01*
X1638Y1182D02*
X1644Y1182D01*
X1764Y1182D02*
X1771Y1182D01*
X1Y1181D02*
X8Y1181D01*
X1517Y1181D02*
X1522Y1181D01*
X1639Y1181D02*
X1644Y1181D01*
X1764Y1181D02*
X1771Y1181D01*
X1Y1180D02*
X8Y1180D01*
X1516Y1180D02*
X1521Y1180D01*
X1640Y1180D02*
X1645Y1180D01*
X1764Y1180D02*
X1771Y1180D01*
X1Y1179D02*
X8Y1179D01*
X1515Y1179D02*
X1521Y1179D01*
X1641Y1179D02*
X1646Y1179D01*
X1764Y1179D02*
X1771Y1179D01*
X1Y1178D02*
X8Y1178D01*
X1515Y1178D02*
X1520Y1178D01*
X1641Y1178D02*
X1646Y1178D01*
X1764Y1178D02*
X1771Y1178D01*
X1Y1177D02*
X8Y1177D01*
X1514Y1177D02*
X1519Y1177D01*
X1642Y1177D02*
X1647Y1177D01*
X1764Y1177D02*
X1771Y1177D01*
X1Y1176D02*
X8Y1176D01*
X1513Y1176D02*
X1518Y1176D01*
X1643Y1176D02*
X1648Y1176D01*
X1764Y1176D02*
X1771Y1176D01*
X1Y1175D02*
X8Y1175D01*
X1513Y1175D02*
X1518Y1175D01*
X1643Y1175D02*
X1648Y1175D01*
X1764Y1175D02*
X1771Y1175D01*
X1Y1174D02*
X8Y1174D01*
X1512Y1174D02*
X1517Y1174D01*
X1644Y1174D02*
X1649Y1174D01*
X1764Y1174D02*
X1771Y1174D01*
X1Y1173D02*
X8Y1173D01*
X1512Y1173D02*
X1516Y1173D01*
X1645Y1173D02*
X1649Y1173D01*
X1764Y1173D02*
X1771Y1173D01*
X1Y1172D02*
X8Y1172D01*
X1511Y1172D02*
X1516Y1172D01*
X1645Y1172D02*
X1650Y1172D01*
X1764Y1172D02*
X1771Y1172D01*
X1Y1171D02*
X8Y1171D01*
X1511Y1171D02*
X1515Y1171D01*
X1646Y1171D02*
X1650Y1171D01*
X1764Y1171D02*
X1771Y1171D01*
X1Y1170D02*
X8Y1170D01*
X1510Y1170D02*
X1515Y1170D01*
X1646Y1170D02*
X1651Y1170D01*
X1764Y1170D02*
X1771Y1170D01*
X1Y1169D02*
X8Y1169D01*
X1510Y1169D02*
X1514Y1169D01*
X1647Y1169D02*
X1651Y1169D01*
X1764Y1169D02*
X1771Y1169D01*
X1Y1168D02*
X8Y1168D01*
X1509Y1168D02*
X1514Y1168D01*
X1647Y1168D02*
X1652Y1168D01*
X1764Y1168D02*
X1771Y1168D01*
X1Y1167D02*
X8Y1167D01*
X1509Y1167D02*
X1513Y1167D01*
X1648Y1167D02*
X1652Y1167D01*
X1764Y1167D02*
X1771Y1167D01*
X1Y1166D02*
X8Y1166D01*
X1508Y1166D02*
X1513Y1166D01*
X1648Y1166D02*
X1653Y1166D01*
X1764Y1166D02*
X1771Y1166D01*
X1Y1165D02*
X8Y1165D01*
X1508Y1165D02*
X1512Y1165D01*
X1649Y1165D02*
X1653Y1165D01*
X1764Y1165D02*
X1771Y1165D01*
X1Y1164D02*
X8Y1164D01*
X1507Y1164D02*
X1512Y1164D01*
X1649Y1164D02*
X1654Y1164D01*
X1764Y1164D02*
X1771Y1164D01*
X1Y1163D02*
X8Y1163D01*
X1507Y1163D02*
X1511Y1163D01*
X1650Y1163D02*
X1654Y1163D01*
X1764Y1163D02*
X1771Y1163D01*
X1Y1162D02*
X8Y1162D01*
X1507Y1162D02*
X1511Y1162D01*
X1650Y1162D02*
X1654Y1162D01*
X1764Y1162D02*
X1771Y1162D01*
X1Y1161D02*
X8Y1161D01*
X1506Y1161D02*
X1511Y1161D01*
X1651Y1161D02*
X1655Y1161D01*
X1764Y1161D02*
X1771Y1161D01*
X1Y1160D02*
X8Y1160D01*
X1506Y1160D02*
X1510Y1160D01*
X1651Y1160D02*
X1655Y1160D01*
X1764Y1160D02*
X1771Y1160D01*
X1Y1159D02*
X8Y1159D01*
X1506Y1159D02*
X1510Y1159D01*
X1651Y1159D02*
X1655Y1159D01*
X1764Y1159D02*
X1771Y1159D01*
X1Y1158D02*
X8Y1158D01*
X1505Y1158D02*
X1510Y1158D01*
X1652Y1158D02*
X1656Y1158D01*
X1764Y1158D02*
X1771Y1158D01*
X1Y1157D02*
X8Y1157D01*
X1505Y1157D02*
X1509Y1157D01*
X1652Y1157D02*
X1656Y1157D01*
X1764Y1157D02*
X1771Y1157D01*
X1Y1156D02*
X8Y1156D01*
X1505Y1156D02*
X1509Y1156D01*
X1652Y1156D02*
X1656Y1156D01*
X1764Y1156D02*
X1771Y1156D01*
X1Y1155D02*
X8Y1155D01*
X1504Y1155D02*
X1509Y1155D01*
X1653Y1155D02*
X1656Y1155D01*
X1764Y1155D02*
X1771Y1155D01*
X1Y1154D02*
X8Y1154D01*
X1504Y1154D02*
X1508Y1154D01*
X1653Y1154D02*
X1657Y1154D01*
X1764Y1154D02*
X1771Y1154D01*
X1Y1153D02*
X8Y1153D01*
X1504Y1153D02*
X1508Y1153D01*
X1653Y1153D02*
X1657Y1153D01*
X1764Y1153D02*
X1771Y1153D01*
X1Y1152D02*
X8Y1152D01*
X1504Y1152D02*
X1508Y1152D01*
X1653Y1152D02*
X1657Y1152D01*
X1764Y1152D02*
X1771Y1152D01*
X1Y1151D02*
X8Y1151D01*
X1504Y1151D02*
X1508Y1151D01*
X1654Y1151D02*
X1657Y1151D01*
X1764Y1151D02*
X1771Y1151D01*
X1Y1150D02*
X8Y1150D01*
X1503Y1150D02*
X1507Y1150D01*
X1654Y1150D02*
X1658Y1150D01*
X1764Y1150D02*
X1771Y1150D01*
X1Y1149D02*
X8Y1149D01*
X1503Y1149D02*
X1507Y1149D01*
X1654Y1149D02*
X1658Y1149D01*
X1764Y1149D02*
X1771Y1149D01*
X1Y1148D02*
X8Y1148D01*
X1503Y1148D02*
X1507Y1148D01*
X1654Y1148D02*
X1658Y1148D01*
X1764Y1148D02*
X1771Y1148D01*
X1Y1147D02*
X8Y1147D01*
X1503Y1147D02*
X1507Y1147D01*
X1654Y1147D02*
X1658Y1147D01*
X1764Y1147D02*
X1771Y1147D01*
X1Y1146D02*
X8Y1146D01*
X1503Y1146D02*
X1507Y1146D01*
X1655Y1146D02*
X1658Y1146D01*
X1764Y1146D02*
X1771Y1146D01*
X1Y1145D02*
X8Y1145D01*
X1503Y1145D02*
X1506Y1145D01*
X1655Y1145D02*
X1658Y1145D01*
X1764Y1145D02*
X1771Y1145D01*
X1Y1144D02*
X8Y1144D01*
X1502Y1144D02*
X1506Y1144D01*
X1655Y1144D02*
X1659Y1144D01*
X1764Y1144D02*
X1771Y1144D01*
X1Y1143D02*
X8Y1143D01*
X1502Y1143D02*
X1506Y1143D01*
X1655Y1143D02*
X1659Y1143D01*
X1764Y1143D02*
X1771Y1143D01*
X1Y1142D02*
X8Y1142D01*
X1502Y1142D02*
X1506Y1142D01*
X1655Y1142D02*
X1659Y1142D01*
X1764Y1142D02*
X1771Y1142D01*
X1Y1141D02*
X8Y1141D01*
X1502Y1141D02*
X1506Y1141D01*
X1655Y1141D02*
X1659Y1141D01*
X1764Y1141D02*
X1771Y1141D01*
X1Y1140D02*
X8Y1140D01*
X1502Y1140D02*
X1506Y1140D01*
X1655Y1140D02*
X1659Y1140D01*
X1764Y1140D02*
X1771Y1140D01*
X1Y1139D02*
X8Y1139D01*
X1502Y1139D02*
X1506Y1139D01*
X1655Y1139D02*
X1659Y1139D01*
X1764Y1139D02*
X1771Y1139D01*
X1Y1138D02*
X8Y1138D01*
X1502Y1138D02*
X1506Y1138D01*
X1655Y1138D02*
X1659Y1138D01*
X1764Y1138D02*
X1771Y1138D01*
X1Y1137D02*
X8Y1137D01*
X1502Y1137D02*
X1506Y1137D01*
X1655Y1137D02*
X1659Y1137D01*
X1764Y1137D02*
X1771Y1137D01*
X1Y1136D02*
X8Y1136D01*
X1502Y1136D02*
X1506Y1136D01*
X1655Y1136D02*
X1659Y1136D01*
X1764Y1136D02*
X1771Y1136D01*
X1Y1135D02*
X8Y1135D01*
X1502Y1135D02*
X1506Y1135D01*
X1655Y1135D02*
X1659Y1135D01*
X1764Y1135D02*
X1771Y1135D01*
X1Y1134D02*
X8Y1134D01*
X1502Y1134D02*
X1506Y1134D01*
X1655Y1134D02*
X1659Y1134D01*
X1764Y1134D02*
X1771Y1134D01*
X1Y1133D02*
X8Y1133D01*
X1502Y1133D02*
X1506Y1133D01*
X1655Y1133D02*
X1659Y1133D01*
X1764Y1133D02*
X1771Y1133D01*
X1Y1132D02*
X8Y1132D01*
X1502Y1132D02*
X1506Y1132D01*
X1655Y1132D02*
X1659Y1132D01*
X1764Y1132D02*
X1771Y1132D01*
X1Y1131D02*
X8Y1131D01*
X1502Y1131D02*
X1506Y1131D01*
X1655Y1131D02*
X1659Y1131D01*
X1764Y1131D02*
X1771Y1131D01*
X1Y1130D02*
X8Y1130D01*
X1502Y1130D02*
X1506Y1130D01*
X1655Y1130D02*
X1659Y1130D01*
X1764Y1130D02*
X1771Y1130D01*
X1Y1129D02*
X8Y1129D01*
X1502Y1129D02*
X1506Y1129D01*
X1655Y1129D02*
X1659Y1129D01*
X1764Y1129D02*
X1771Y1129D01*
X1Y1128D02*
X8Y1128D01*
X1502Y1128D02*
X1506Y1128D01*
X1655Y1128D02*
X1659Y1128D01*
X1764Y1128D02*
X1771Y1128D01*
X1Y1127D02*
X8Y1127D01*
X1502Y1127D02*
X1506Y1127D01*
X1655Y1127D02*
X1659Y1127D01*
X1764Y1127D02*
X1771Y1127D01*
X1Y1126D02*
X8Y1126D01*
X1502Y1126D02*
X1506Y1126D01*
X1655Y1126D02*
X1659Y1126D01*
X1764Y1126D02*
X1771Y1126D01*
X1Y1125D02*
X8Y1125D01*
X1503Y1125D02*
X1506Y1125D01*
X1655Y1125D02*
X1659Y1125D01*
X1764Y1125D02*
X1771Y1125D01*
X1Y1124D02*
X8Y1124D01*
X1503Y1124D02*
X1506Y1124D01*
X1655Y1124D02*
X1658Y1124D01*
X1764Y1124D02*
X1771Y1124D01*
X1Y1123D02*
X8Y1123D01*
X1503Y1123D02*
X1507Y1123D01*
X1654Y1123D02*
X1658Y1123D01*
X1764Y1123D02*
X1771Y1123D01*
X1Y1122D02*
X8Y1122D01*
X1503Y1122D02*
X1507Y1122D01*
X1654Y1122D02*
X1658Y1122D01*
X1764Y1122D02*
X1771Y1122D01*
X1Y1121D02*
X8Y1121D01*
X1503Y1121D02*
X1507Y1121D01*
X1654Y1121D02*
X1658Y1121D01*
X1764Y1121D02*
X1771Y1121D01*
X1Y1120D02*
X8Y1120D01*
X1503Y1120D02*
X1507Y1120D01*
X1654Y1120D02*
X1658Y1120D01*
X1764Y1120D02*
X1771Y1120D01*
X1Y1119D02*
X8Y1119D01*
X1504Y1119D02*
X1507Y1119D01*
X1654Y1119D02*
X1658Y1119D01*
X1764Y1119D02*
X1771Y1119D01*
X1Y1118D02*
X8Y1118D01*
X1504Y1118D02*
X1508Y1118D01*
X1653Y1118D02*
X1657Y1118D01*
X1764Y1118D02*
X1771Y1118D01*
X1Y1117D02*
X8Y1117D01*
X1504Y1117D02*
X1508Y1117D01*
X1653Y1117D02*
X1657Y1117D01*
X1764Y1117D02*
X1771Y1117D01*
X1Y1116D02*
X8Y1116D01*
X1504Y1116D02*
X1508Y1116D01*
X1653Y1116D02*
X1657Y1116D01*
X1764Y1116D02*
X1771Y1116D01*
X1Y1115D02*
X8Y1115D01*
X1504Y1115D02*
X1508Y1115D01*
X1653Y1115D02*
X1657Y1115D01*
X1764Y1115D02*
X1771Y1115D01*
X1Y1114D02*
X8Y1114D01*
X1505Y1114D02*
X1509Y1114D01*
X1652Y1114D02*
X1656Y1114D01*
X1764Y1114D02*
X1771Y1114D01*
X1Y1113D02*
X8Y1113D01*
X1505Y1113D02*
X1509Y1113D01*
X1652Y1113D02*
X1656Y1113D01*
X1764Y1113D02*
X1771Y1113D01*
X1Y1112D02*
X8Y1112D01*
X1505Y1112D02*
X1509Y1112D01*
X1652Y1112D02*
X1656Y1112D01*
X1764Y1112D02*
X1771Y1112D01*
X1Y1111D02*
X8Y1111D01*
X1506Y1111D02*
X1510Y1111D01*
X1651Y1111D02*
X1656Y1111D01*
X1764Y1111D02*
X1771Y1111D01*
X1Y1110D02*
X8Y1110D01*
X1506Y1110D02*
X1510Y1110D01*
X1651Y1110D02*
X1655Y1110D01*
X1764Y1110D02*
X1771Y1110D01*
X1Y1109D02*
X8Y1109D01*
X1506Y1109D02*
X1510Y1109D01*
X1651Y1109D02*
X1655Y1109D01*
X1764Y1109D02*
X1771Y1109D01*
X1Y1108D02*
X8Y1108D01*
X1507Y1108D02*
X1511Y1108D01*
X1650Y1108D02*
X1655Y1108D01*
X1764Y1108D02*
X1771Y1108D01*
X1Y1107D02*
X8Y1107D01*
X1507Y1107D02*
X1511Y1107D01*
X1650Y1107D02*
X1654Y1107D01*
X1764Y1107D02*
X1771Y1107D01*
X1Y1106D02*
X8Y1106D01*
X1507Y1106D02*
X1512Y1106D01*
X1649Y1106D02*
X1654Y1106D01*
X1764Y1106D02*
X1771Y1106D01*
X1Y1105D02*
X8Y1105D01*
X1508Y1105D02*
X1512Y1105D01*
X1649Y1105D02*
X1653Y1105D01*
X1764Y1105D02*
X1771Y1105D01*
X1Y1104D02*
X8Y1104D01*
X1508Y1104D02*
X1512Y1104D01*
X1649Y1104D02*
X1653Y1104D01*
X1764Y1104D02*
X1771Y1104D01*
X1Y1103D02*
X8Y1103D01*
X1509Y1103D02*
X1513Y1103D01*
X1648Y1103D02*
X1653Y1103D01*
X1764Y1103D02*
X1771Y1103D01*
X1Y1102D02*
X8Y1102D01*
X1509Y1102D02*
X1513Y1102D01*
X1648Y1102D02*
X1652Y1102D01*
X1764Y1102D02*
X1771Y1102D01*
X1Y1101D02*
X8Y1101D01*
X1509Y1101D02*
X1514Y1101D01*
X1647Y1101D02*
X1652Y1101D01*
X1764Y1101D02*
X1771Y1101D01*
X1Y1100D02*
X8Y1100D01*
X1510Y1100D02*
X1514Y1100D01*
X1647Y1100D02*
X1651Y1100D01*
X1764Y1100D02*
X1771Y1100D01*
X1Y1099D02*
X8Y1099D01*
X1510Y1099D02*
X1515Y1099D01*
X1646Y1099D02*
X1651Y1099D01*
X1764Y1099D02*
X1771Y1099D01*
X1Y1098D02*
X8Y1098D01*
X1511Y1098D02*
X1515Y1098D01*
X1645Y1098D02*
X1650Y1098D01*
X1764Y1098D02*
X1771Y1098D01*
X1Y1097D02*
X8Y1097D01*
X1511Y1097D02*
X1516Y1097D01*
X1645Y1097D02*
X1650Y1097D01*
X1764Y1097D02*
X1771Y1097D01*
X1Y1096D02*
X8Y1096D01*
X1512Y1096D02*
X1517Y1096D01*
X1644Y1096D02*
X1649Y1096D01*
X1764Y1096D02*
X1771Y1096D01*
X1Y1095D02*
X8Y1095D01*
X1512Y1095D02*
X1517Y1095D01*
X1644Y1095D02*
X1649Y1095D01*
X1764Y1095D02*
X1771Y1095D01*
X1Y1094D02*
X8Y1094D01*
X1513Y1094D02*
X1518Y1094D01*
X1643Y1094D02*
X1648Y1094D01*
X1764Y1094D02*
X1771Y1094D01*
X1Y1093D02*
X8Y1093D01*
X1514Y1093D02*
X1519Y1093D01*
X1642Y1093D02*
X1648Y1093D01*
X1764Y1093D02*
X1771Y1093D01*
X1Y1092D02*
X8Y1092D01*
X1514Y1092D02*
X1519Y1092D01*
X1642Y1092D02*
X1647Y1092D01*
X1764Y1092D02*
X1771Y1092D01*
X1Y1091D02*
X8Y1091D01*
X1515Y1091D02*
X1520Y1091D01*
X1641Y1091D02*
X1646Y1091D01*
X1764Y1091D02*
X1771Y1091D01*
X1Y1090D02*
X8Y1090D01*
X1516Y1090D02*
X1521Y1090D01*
X1640Y1090D02*
X1645Y1090D01*
X1764Y1090D02*
X1771Y1090D01*
X1Y1089D02*
X8Y1089D01*
X1516Y1089D02*
X1522Y1089D01*
X1639Y1089D02*
X1645Y1089D01*
X1764Y1089D02*
X1771Y1089D01*
X1Y1088D02*
X8Y1088D01*
X1517Y1088D02*
X1522Y1088D01*
X1639Y1088D02*
X1644Y1088D01*
X1764Y1088D02*
X1771Y1088D01*
X1Y1087D02*
X8Y1087D01*
X1518Y1087D02*
X1523Y1087D01*
X1638Y1087D02*
X1643Y1087D01*
X1764Y1087D02*
X1771Y1087D01*
X1Y1086D02*
X8Y1086D01*
X1519Y1086D02*
X1524Y1086D01*
X1637Y1086D02*
X1643Y1086D01*
X1764Y1086D02*
X1771Y1086D01*
X1Y1085D02*
X8Y1085D01*
X1519Y1085D02*
X1525Y1085D01*
X1636Y1085D02*
X1642Y1085D01*
X1764Y1085D02*
X1771Y1085D01*
X1Y1084D02*
X8Y1084D01*
X1520Y1084D02*
X1526Y1084D01*
X1635Y1084D02*
X1641Y1084D01*
X1764Y1084D02*
X1771Y1084D01*
X1Y1083D02*
X8Y1083D01*
X1521Y1083D02*
X1527Y1083D01*
X1634Y1083D02*
X1640Y1083D01*
X1764Y1083D02*
X1771Y1083D01*
X1Y1082D02*
X8Y1082D01*
X1522Y1082D02*
X1528Y1082D01*
X1633Y1082D02*
X1639Y1082D01*
X1764Y1082D02*
X1771Y1082D01*
X1Y1081D02*
X8Y1081D01*
X1523Y1081D02*
X1529Y1081D01*
X1632Y1081D02*
X1638Y1081D01*
X1764Y1081D02*
X1771Y1081D01*
X1Y1080D02*
X8Y1080D01*
X1524Y1080D02*
X1530Y1080D01*
X1631Y1080D02*
X1637Y1080D01*
X1764Y1080D02*
X1771Y1080D01*
X1Y1079D02*
X8Y1079D01*
X1525Y1079D02*
X1531Y1079D01*
X1630Y1079D02*
X1636Y1079D01*
X1764Y1079D02*
X1771Y1079D01*
X1Y1078D02*
X8Y1078D01*
X1526Y1078D02*
X1532Y1078D01*
X1629Y1078D02*
X1635Y1078D01*
X1764Y1078D02*
X1771Y1078D01*
X1Y1077D02*
X8Y1077D01*
X1527Y1077D02*
X1534Y1077D01*
X1628Y1077D02*
X1634Y1077D01*
X1764Y1077D02*
X1771Y1077D01*
X1Y1076D02*
X8Y1076D01*
X1528Y1076D02*
X1535Y1076D01*
X1626Y1076D02*
X1633Y1076D01*
X1764Y1076D02*
X1771Y1076D01*
X1Y1075D02*
X8Y1075D01*
X1529Y1075D02*
X1536Y1075D01*
X1625Y1075D02*
X1632Y1075D01*
X1764Y1075D02*
X1771Y1075D01*
X1Y1074D02*
X8Y1074D01*
X1530Y1074D02*
X1537Y1074D01*
X1624Y1074D02*
X1631Y1074D01*
X1764Y1074D02*
X1771Y1074D01*
X1Y1073D02*
X8Y1073D01*
X1531Y1073D02*
X1539Y1073D01*
X1622Y1073D02*
X1630Y1073D01*
X1764Y1073D02*
X1771Y1073D01*
X1Y1072D02*
X8Y1072D01*
X1533Y1072D02*
X1540Y1072D01*
X1621Y1072D02*
X1629Y1072D01*
X1764Y1072D02*
X1771Y1072D01*
X1Y1071D02*
X8Y1071D01*
X1534Y1071D02*
X1542Y1071D01*
X1619Y1071D02*
X1627Y1071D01*
X1764Y1071D02*
X1771Y1071D01*
X1Y1070D02*
X8Y1070D01*
X1535Y1070D02*
X1543Y1070D01*
X1618Y1070D02*
X1626Y1070D01*
X1764Y1070D02*
X1771Y1070D01*
X1Y1069D02*
X8Y1069D01*
X1537Y1069D02*
X1544Y1069D01*
X1618Y1069D02*
X1624Y1069D01*
X1764Y1069D02*
X1771Y1069D01*
X1Y1068D02*
X8Y1068D01*
X1538Y1068D02*
X1544Y1068D01*
X1618Y1068D02*
X1623Y1068D01*
X1764Y1068D02*
X1771Y1068D01*
X1Y1067D02*
X8Y1067D01*
X1540Y1067D02*
X1544Y1067D01*
X1619Y1067D02*
X1621Y1067D01*
X1764Y1067D02*
X1771Y1067D01*
X1Y1066D02*
X8Y1066D01*
X1541Y1066D02*
X1543Y1066D01*
X1764Y1066D02*
X1771Y1066D01*
X1Y1065D02*
X8Y1065D01*
X1764Y1065D02*
X1771Y1065D01*
X1Y1064D02*
X8Y1064D01*
X1764Y1064D02*
X1771Y1064D01*
X1Y1063D02*
X8Y1063D01*
X1764Y1063D02*
X1771Y1063D01*
X1Y1062D02*
X8Y1062D01*
X1764Y1062D02*
X1771Y1062D01*
X1Y1061D02*
X8Y1061D01*
X1764Y1061D02*
X1771Y1061D01*
X1Y1060D02*
X8Y1060D01*
X1764Y1060D02*
X1771Y1060D01*
X1Y1059D02*
X8Y1059D01*
X1764Y1059D02*
X1771Y1059D01*
X1Y1058D02*
X8Y1058D01*
X1764Y1058D02*
X1771Y1058D01*
X1Y1057D02*
X8Y1057D01*
X1764Y1057D02*
X1771Y1057D01*
X1Y1056D02*
X8Y1056D01*
X1764Y1056D02*
X1771Y1056D01*
X1Y1055D02*
X8Y1055D01*
X1764Y1055D02*
X1771Y1055D01*
X1Y1054D02*
X8Y1054D01*
X1764Y1054D02*
X1771Y1054D01*
X1Y1053D02*
X8Y1053D01*
X1764Y1053D02*
X1771Y1053D01*
X1Y1052D02*
X8Y1052D01*
X1764Y1052D02*
X1771Y1052D01*
X1Y1051D02*
X8Y1051D01*
X1764Y1051D02*
X1771Y1051D01*
X1Y1050D02*
X8Y1050D01*
X1764Y1050D02*
X1771Y1050D01*
X1Y1049D02*
X8Y1049D01*
X1764Y1049D02*
X1771Y1049D01*
X1Y1048D02*
X8Y1048D01*
X1764Y1048D02*
X1771Y1048D01*
X1Y1047D02*
X8Y1047D01*
X1764Y1047D02*
X1771Y1047D01*
X1Y1046D02*
X8Y1046D01*
X1764Y1046D02*
X1771Y1046D01*
X1Y1045D02*
X8Y1045D01*
X1764Y1045D02*
X1771Y1045D01*
X1Y1044D02*
X8Y1044D01*
X1764Y1044D02*
X1771Y1044D01*
X1Y1043D02*
X8Y1043D01*
X1764Y1043D02*
X1771Y1043D01*
X1Y1042D02*
X8Y1042D01*
X1764Y1042D02*
X1771Y1042D01*
X1Y1041D02*
X8Y1041D01*
X1764Y1041D02*
X1771Y1041D01*
X1Y1040D02*
X8Y1040D01*
X1494Y1040D02*
X1497Y1040D01*
X1542Y1040D02*
X1574Y1040D01*
X1594Y1040D02*
X1611Y1040D01*
X1644Y1040D02*
X1662Y1040D01*
X1764Y1040D02*
X1771Y1040D01*
X1Y1039D02*
X8Y1039D01*
X1493Y1039D02*
X1498Y1039D01*
X1542Y1039D02*
X1575Y1039D01*
X1593Y1039D02*
X1613Y1039D01*
X1643Y1039D02*
X1662Y1039D01*
X1764Y1039D02*
X1771Y1039D01*
X1Y1038D02*
X8Y1038D01*
X1493Y1038D02*
X1498Y1038D01*
X1542Y1038D02*
X1576Y1038D01*
X1593Y1038D02*
X1615Y1038D01*
X1643Y1038D02*
X1662Y1038D01*
X1764Y1038D02*
X1771Y1038D01*
X1Y1037D02*
X8Y1037D01*
X1492Y1037D02*
X1498Y1037D01*
X1542Y1037D02*
X1576Y1037D01*
X1592Y1037D02*
X1616Y1037D01*
X1642Y1037D02*
X1662Y1037D01*
X1764Y1037D02*
X1771Y1037D01*
X1Y1036D02*
X8Y1036D01*
X1492Y1036D02*
X1498Y1036D01*
X1542Y1036D02*
X1576Y1036D01*
X1593Y1036D02*
X1616Y1036D01*
X1643Y1036D02*
X1662Y1036D01*
X1764Y1036D02*
X1771Y1036D01*
X1Y1035D02*
X8Y1035D01*
X1492Y1035D02*
X1498Y1035D01*
X1542Y1035D02*
X1575Y1035D01*
X1593Y1035D02*
X1617Y1035D01*
X1643Y1035D02*
X1662Y1035D01*
X1764Y1035D02*
X1771Y1035D01*
X1Y1034D02*
X8Y1034D01*
X1492Y1034D02*
X1498Y1034D01*
X1542Y1034D02*
X1574Y1034D01*
X1594Y1034D02*
X1618Y1034D01*
X1644Y1034D02*
X1662Y1034D01*
X1764Y1034D02*
X1771Y1034D01*
X1Y1033D02*
X8Y1033D01*
X1492Y1033D02*
X1498Y1033D01*
X1542Y1033D02*
X1548Y1033D01*
X1599Y1033D02*
X1605Y1033D01*
X1611Y1033D02*
X1618Y1033D01*
X1656Y1033D02*
X1662Y1033D01*
X1764Y1033D02*
X1771Y1033D01*
X1Y1032D02*
X8Y1032D01*
X1492Y1032D02*
X1498Y1032D01*
X1542Y1032D02*
X1548Y1032D01*
X1599Y1032D02*
X1605Y1032D01*
X1612Y1032D02*
X1619Y1032D01*
X1656Y1032D02*
X1662Y1032D01*
X1764Y1032D02*
X1771Y1032D01*
X1Y1031D02*
X8Y1031D01*
X1492Y1031D02*
X1498Y1031D01*
X1542Y1031D02*
X1548Y1031D01*
X1599Y1031D02*
X1605Y1031D01*
X1612Y1031D02*
X1619Y1031D01*
X1656Y1031D02*
X1662Y1031D01*
X1764Y1031D02*
X1771Y1031D01*
X1Y1030D02*
X8Y1030D01*
X1492Y1030D02*
X1498Y1030D01*
X1542Y1030D02*
X1548Y1030D01*
X1599Y1030D02*
X1605Y1030D01*
X1613Y1030D02*
X1620Y1030D01*
X1656Y1030D02*
X1662Y1030D01*
X1764Y1030D02*
X1771Y1030D01*
X1Y1029D02*
X8Y1029D01*
X1492Y1029D02*
X1498Y1029D01*
X1542Y1029D02*
X1548Y1029D01*
X1599Y1029D02*
X1605Y1029D01*
X1613Y1029D02*
X1620Y1029D01*
X1656Y1029D02*
X1662Y1029D01*
X1764Y1029D02*
X1771Y1029D01*
X1Y1028D02*
X8Y1028D01*
X1492Y1028D02*
X1498Y1028D01*
X1542Y1028D02*
X1548Y1028D01*
X1599Y1028D02*
X1605Y1028D01*
X1614Y1028D02*
X1621Y1028D01*
X1656Y1028D02*
X1662Y1028D01*
X1764Y1028D02*
X1771Y1028D01*
X1Y1027D02*
X8Y1027D01*
X1492Y1027D02*
X1498Y1027D01*
X1542Y1027D02*
X1548Y1027D01*
X1599Y1027D02*
X1605Y1027D01*
X1614Y1027D02*
X1621Y1027D01*
X1656Y1027D02*
X1662Y1027D01*
X1764Y1027D02*
X1771Y1027D01*
X1Y1026D02*
X8Y1026D01*
X1492Y1026D02*
X1498Y1026D01*
X1542Y1026D02*
X1548Y1026D01*
X1599Y1026D02*
X1605Y1026D01*
X1615Y1026D02*
X1622Y1026D01*
X1656Y1026D02*
X1662Y1026D01*
X1764Y1026D02*
X1771Y1026D01*
X1Y1025D02*
X8Y1025D01*
X1492Y1025D02*
X1498Y1025D01*
X1542Y1025D02*
X1548Y1025D01*
X1599Y1025D02*
X1605Y1025D01*
X1615Y1025D02*
X1622Y1025D01*
X1656Y1025D02*
X1662Y1025D01*
X1764Y1025D02*
X1771Y1025D01*
X1Y1024D02*
X8Y1024D01*
X1492Y1024D02*
X1498Y1024D01*
X1542Y1024D02*
X1548Y1024D01*
X1599Y1024D02*
X1605Y1024D01*
X1616Y1024D02*
X1623Y1024D01*
X1656Y1024D02*
X1662Y1024D01*
X1764Y1024D02*
X1771Y1024D01*
X1Y1023D02*
X8Y1023D01*
X1492Y1023D02*
X1498Y1023D01*
X1542Y1023D02*
X1548Y1023D01*
X1599Y1023D02*
X1605Y1023D01*
X1616Y1023D02*
X1623Y1023D01*
X1656Y1023D02*
X1662Y1023D01*
X1764Y1023D02*
X1771Y1023D01*
X1Y1022D02*
X8Y1022D01*
X1492Y1022D02*
X1498Y1022D01*
X1542Y1022D02*
X1548Y1022D01*
X1599Y1022D02*
X1605Y1022D01*
X1617Y1022D02*
X1624Y1022D01*
X1656Y1022D02*
X1662Y1022D01*
X1764Y1022D02*
X1771Y1022D01*
X1Y1021D02*
X8Y1021D01*
X1492Y1021D02*
X1498Y1021D01*
X1542Y1021D02*
X1548Y1021D01*
X1599Y1021D02*
X1605Y1021D01*
X1617Y1021D02*
X1624Y1021D01*
X1656Y1021D02*
X1662Y1021D01*
X1764Y1021D02*
X1771Y1021D01*
X1Y1020D02*
X8Y1020D01*
X1492Y1020D02*
X1498Y1020D01*
X1542Y1020D02*
X1548Y1020D01*
X1599Y1020D02*
X1605Y1020D01*
X1618Y1020D02*
X1624Y1020D01*
X1656Y1020D02*
X1662Y1020D01*
X1764Y1020D02*
X1771Y1020D01*
X1Y1019D02*
X8Y1019D01*
X1492Y1019D02*
X1498Y1019D01*
X1542Y1019D02*
X1548Y1019D01*
X1599Y1019D02*
X1605Y1019D01*
X1618Y1019D02*
X1625Y1019D01*
X1656Y1019D02*
X1662Y1019D01*
X1764Y1019D02*
X1771Y1019D01*
X1Y1018D02*
X8Y1018D01*
X1492Y1018D02*
X1498Y1018D01*
X1542Y1018D02*
X1548Y1018D01*
X1599Y1018D02*
X1605Y1018D01*
X1619Y1018D02*
X1625Y1018D01*
X1656Y1018D02*
X1662Y1018D01*
X1764Y1018D02*
X1771Y1018D01*
X1Y1017D02*
X8Y1017D01*
X1492Y1017D02*
X1498Y1017D01*
X1542Y1017D02*
X1559Y1017D01*
X1599Y1017D02*
X1605Y1017D01*
X1619Y1017D02*
X1626Y1017D01*
X1656Y1017D02*
X1662Y1017D01*
X1764Y1017D02*
X1771Y1017D01*
X1Y1016D02*
X8Y1016D01*
X1492Y1016D02*
X1498Y1016D01*
X1542Y1016D02*
X1561Y1016D01*
X1599Y1016D02*
X1605Y1016D01*
X1620Y1016D02*
X1626Y1016D01*
X1656Y1016D02*
X1662Y1016D01*
X1764Y1016D02*
X1771Y1016D01*
X1Y1015D02*
X8Y1015D01*
X1492Y1015D02*
X1498Y1015D01*
X1542Y1015D02*
X1562Y1015D01*
X1599Y1015D02*
X1605Y1015D01*
X1620Y1015D02*
X1626Y1015D01*
X1656Y1015D02*
X1662Y1015D01*
X1764Y1015D02*
X1771Y1015D01*
X1Y1014D02*
X8Y1014D01*
X1492Y1014D02*
X1498Y1014D01*
X1542Y1014D02*
X1562Y1014D01*
X1599Y1014D02*
X1605Y1014D01*
X1620Y1014D02*
X1626Y1014D01*
X1656Y1014D02*
X1662Y1014D01*
X1764Y1014D02*
X1771Y1014D01*
X1Y1013D02*
X8Y1013D01*
X1492Y1013D02*
X1498Y1013D01*
X1542Y1013D02*
X1562Y1013D01*
X1599Y1013D02*
X1605Y1013D01*
X1620Y1013D02*
X1626Y1013D01*
X1656Y1013D02*
X1662Y1013D01*
X1764Y1013D02*
X1771Y1013D01*
X1Y1012D02*
X8Y1012D01*
X1492Y1012D02*
X1498Y1012D01*
X1542Y1012D02*
X1562Y1012D01*
X1599Y1012D02*
X1605Y1012D01*
X1620Y1012D02*
X1626Y1012D01*
X1656Y1012D02*
X1662Y1012D01*
X1764Y1012D02*
X1771Y1012D01*
X1Y1011D02*
X8Y1011D01*
X1492Y1011D02*
X1498Y1011D01*
X1542Y1011D02*
X1561Y1011D01*
X1599Y1011D02*
X1605Y1011D01*
X1619Y1011D02*
X1626Y1011D01*
X1656Y1011D02*
X1662Y1011D01*
X1672Y1011D02*
X1674Y1011D01*
X1764Y1011D02*
X1771Y1011D01*
X1Y1010D02*
X8Y1010D01*
X1492Y1010D02*
X1498Y1010D01*
X1542Y1010D02*
X1549Y1010D01*
X1599Y1010D02*
X1605Y1010D01*
X1619Y1010D02*
X1625Y1010D01*
X1656Y1010D02*
X1662Y1010D01*
X1671Y1010D02*
X1675Y1010D01*
X1764Y1010D02*
X1771Y1010D01*
X1Y1009D02*
X8Y1009D01*
X1492Y1009D02*
X1498Y1009D01*
X1542Y1009D02*
X1548Y1009D01*
X1599Y1009D02*
X1605Y1009D01*
X1619Y1009D02*
X1625Y1009D01*
X1656Y1009D02*
X1662Y1009D01*
X1670Y1009D02*
X1676Y1009D01*
X1764Y1009D02*
X1771Y1009D01*
X1Y1008D02*
X8Y1008D01*
X1492Y1008D02*
X1498Y1008D01*
X1542Y1008D02*
X1548Y1008D01*
X1599Y1008D02*
X1605Y1008D01*
X1618Y1008D02*
X1625Y1008D01*
X1656Y1008D02*
X1662Y1008D01*
X1670Y1008D02*
X1676Y1008D01*
X1764Y1008D02*
X1771Y1008D01*
X1Y1007D02*
X8Y1007D01*
X1492Y1007D02*
X1498Y1007D01*
X1542Y1007D02*
X1548Y1007D01*
X1599Y1007D02*
X1605Y1007D01*
X1618Y1007D02*
X1624Y1007D01*
X1656Y1007D02*
X1662Y1007D01*
X1670Y1007D02*
X1676Y1007D01*
X1764Y1007D02*
X1771Y1007D01*
X1Y1006D02*
X8Y1006D01*
X1492Y1006D02*
X1498Y1006D01*
X1542Y1006D02*
X1548Y1006D01*
X1599Y1006D02*
X1605Y1006D01*
X1617Y1006D02*
X1624Y1006D01*
X1656Y1006D02*
X1662Y1006D01*
X1670Y1006D02*
X1676Y1006D01*
X1764Y1006D02*
X1771Y1006D01*
X1Y1005D02*
X8Y1005D01*
X1492Y1005D02*
X1498Y1005D01*
X1542Y1005D02*
X1548Y1005D01*
X1599Y1005D02*
X1605Y1005D01*
X1617Y1005D02*
X1623Y1005D01*
X1656Y1005D02*
X1662Y1005D01*
X1670Y1005D02*
X1676Y1005D01*
X1764Y1005D02*
X1771Y1005D01*
X1Y1004D02*
X8Y1004D01*
X1492Y1004D02*
X1498Y1004D01*
X1542Y1004D02*
X1548Y1004D01*
X1599Y1004D02*
X1605Y1004D01*
X1616Y1004D02*
X1623Y1004D01*
X1656Y1004D02*
X1662Y1004D01*
X1670Y1004D02*
X1676Y1004D01*
X1764Y1004D02*
X1771Y1004D01*
X1Y1003D02*
X8Y1003D01*
X1492Y1003D02*
X1498Y1003D01*
X1542Y1003D02*
X1548Y1003D01*
X1599Y1003D02*
X1605Y1003D01*
X1616Y1003D02*
X1623Y1003D01*
X1656Y1003D02*
X1662Y1003D01*
X1670Y1003D02*
X1676Y1003D01*
X1764Y1003D02*
X1771Y1003D01*
X1Y1002D02*
X8Y1002D01*
X1492Y1002D02*
X1498Y1002D01*
X1542Y1002D02*
X1548Y1002D01*
X1599Y1002D02*
X1605Y1002D01*
X1615Y1002D02*
X1622Y1002D01*
X1656Y1002D02*
X1662Y1002D01*
X1670Y1002D02*
X1676Y1002D01*
X1764Y1002D02*
X1771Y1002D01*
X1Y1001D02*
X8Y1001D01*
X1492Y1001D02*
X1498Y1001D01*
X1542Y1001D02*
X1548Y1001D01*
X1599Y1001D02*
X1605Y1001D01*
X1615Y1001D02*
X1622Y1001D01*
X1656Y1001D02*
X1662Y1001D01*
X1670Y1001D02*
X1676Y1001D01*
X1764Y1001D02*
X1771Y1001D01*
X1Y1000D02*
X8Y1000D01*
X1492Y1000D02*
X1498Y1000D01*
X1542Y1000D02*
X1548Y1000D01*
X1599Y1000D02*
X1605Y1000D01*
X1614Y1000D02*
X1621Y1000D01*
X1656Y1000D02*
X1662Y1000D01*
X1670Y1000D02*
X1676Y1000D01*
X1764Y1000D02*
X1771Y1000D01*
X1Y999D02*
X8Y999D01*
X1492Y999D02*
X1498Y999D01*
X1542Y999D02*
X1548Y999D01*
X1599Y999D02*
X1605Y999D01*
X1614Y999D02*
X1621Y999D01*
X1656Y999D02*
X1662Y999D01*
X1670Y999D02*
X1676Y999D01*
X1764Y999D02*
X1771Y999D01*
X1Y998D02*
X8Y998D01*
X1492Y998D02*
X1498Y998D01*
X1542Y998D02*
X1548Y998D01*
X1599Y998D02*
X1605Y998D01*
X1613Y998D02*
X1620Y998D01*
X1656Y998D02*
X1662Y998D01*
X1670Y998D02*
X1676Y998D01*
X1764Y998D02*
X1771Y998D01*
X1Y997D02*
X8Y997D01*
X1492Y997D02*
X1498Y997D01*
X1542Y997D02*
X1548Y997D01*
X1599Y997D02*
X1605Y997D01*
X1613Y997D02*
X1620Y997D01*
X1656Y997D02*
X1662Y997D01*
X1670Y997D02*
X1676Y997D01*
X1764Y997D02*
X1771Y997D01*
X1Y996D02*
X8Y996D01*
X1492Y996D02*
X1498Y996D01*
X1542Y996D02*
X1548Y996D01*
X1599Y996D02*
X1605Y996D01*
X1612Y996D02*
X1619Y996D01*
X1656Y996D02*
X1662Y996D01*
X1670Y996D02*
X1676Y996D01*
X1764Y996D02*
X1771Y996D01*
X1Y995D02*
X8Y995D01*
X1492Y995D02*
X1498Y995D01*
X1542Y995D02*
X1548Y995D01*
X1599Y995D02*
X1605Y995D01*
X1612Y995D02*
X1619Y995D01*
X1656Y995D02*
X1662Y995D01*
X1670Y995D02*
X1676Y995D01*
X1764Y995D02*
X1771Y995D01*
X1Y994D02*
X8Y994D01*
X1492Y994D02*
X1498Y994D01*
X1542Y994D02*
X1548Y994D01*
X1599Y994D02*
X1605Y994D01*
X1610Y994D02*
X1618Y994D01*
X1656Y994D02*
X1662Y994D01*
X1670Y994D02*
X1676Y994D01*
X1764Y994D02*
X1771Y994D01*
X1Y993D02*
X8Y993D01*
X1492Y993D02*
X1524Y993D01*
X1542Y993D02*
X1574Y993D01*
X1594Y993D02*
X1618Y993D01*
X1644Y993D02*
X1676Y993D01*
X1764Y993D02*
X1771Y993D01*
X1Y992D02*
X8Y992D01*
X1492Y992D02*
X1525Y992D01*
X1542Y992D02*
X1575Y992D01*
X1593Y992D02*
X1617Y992D01*
X1643Y992D02*
X1676Y992D01*
X1764Y992D02*
X1771Y992D01*
X1Y991D02*
X8Y991D01*
X1492Y991D02*
X1526Y991D01*
X1542Y991D02*
X1576Y991D01*
X1593Y991D02*
X1616Y991D01*
X1643Y991D02*
X1676Y991D01*
X1764Y991D02*
X1771Y991D01*
X1Y990D02*
X8Y990D01*
X1492Y990D02*
X1526Y990D01*
X1542Y990D02*
X1576Y990D01*
X1592Y990D02*
X1616Y990D01*
X1642Y990D02*
X1676Y990D01*
X1764Y990D02*
X1771Y990D01*
X1Y989D02*
X8Y989D01*
X1492Y989D02*
X1526Y989D01*
X1542Y989D02*
X1576Y989D01*
X1593Y989D02*
X1615Y989D01*
X1643Y989D02*
X1676Y989D01*
X1764Y989D02*
X1771Y989D01*
X1Y988D02*
X8Y988D01*
X1492Y988D02*
X1525Y988D01*
X1542Y988D02*
X1575Y988D01*
X1593Y988D02*
X1613Y988D01*
X1643Y988D02*
X1675Y988D01*
X1764Y988D02*
X1771Y988D01*
X1Y987D02*
X8Y987D01*
X1492Y987D02*
X1524Y987D01*
X1542Y987D02*
X1574Y987D01*
X1594Y987D02*
X1611Y987D01*
X1644Y987D02*
X1674Y987D01*
X1764Y987D02*
X1771Y987D01*
X1Y986D02*
X8Y986D01*
X1764Y986D02*
X1771Y986D01*
X1Y985D02*
X8Y985D01*
X1764Y985D02*
X1771Y985D01*
X1Y984D02*
X8Y984D01*
X1764Y984D02*
X1771Y984D01*
X1Y983D02*
X8Y983D01*
X1764Y983D02*
X1771Y983D01*
X1Y982D02*
X8Y982D01*
X1764Y982D02*
X1771Y982D01*
X1Y981D02*
X8Y981D01*
X1764Y981D02*
X1771Y981D01*
X1Y980D02*
X8Y980D01*
X1764Y980D02*
X1771Y980D01*
X1Y979D02*
X8Y979D01*
X1764Y979D02*
X1771Y979D01*
X1Y978D02*
X8Y978D01*
X1764Y978D02*
X1771Y978D01*
X1Y977D02*
X8Y977D01*
X1764Y977D02*
X1771Y977D01*
X1Y976D02*
X8Y976D01*
X1764Y976D02*
X1771Y976D01*
X1Y975D02*
X8Y975D01*
X1764Y975D02*
X1771Y975D01*
X1Y974D02*
X8Y974D01*
X1764Y974D02*
X1771Y974D01*
X1Y973D02*
X8Y973D01*
X1764Y973D02*
X1771Y973D01*
X1Y972D02*
X8Y972D01*
X1764Y972D02*
X1771Y972D01*
X1Y971D02*
X8Y971D01*
X1764Y971D02*
X1771Y971D01*
X1Y970D02*
X8Y970D01*
X1764Y970D02*
X1771Y970D01*
X1Y969D02*
X8Y969D01*
X1764Y969D02*
X1771Y969D01*
X1Y968D02*
X8Y968D01*
X1764Y968D02*
X1771Y968D01*
X1Y967D02*
X8Y967D01*
X1764Y967D02*
X1771Y967D01*
X1Y966D02*
X8Y966D01*
X1764Y966D02*
X1771Y966D01*
X1Y965D02*
X8Y965D01*
X1764Y965D02*
X1771Y965D01*
X1Y964D02*
X8Y964D01*
X1764Y964D02*
X1771Y964D01*
X1Y963D02*
X8Y963D01*
X1764Y963D02*
X1771Y963D01*
X1Y962D02*
X8Y962D01*
X1764Y962D02*
X1771Y962D01*
X1Y961D02*
X8Y961D01*
X1764Y961D02*
X1771Y961D01*
X1Y960D02*
X8Y960D01*
X1764Y960D02*
X1771Y960D01*
X1Y959D02*
X8Y959D01*
X1764Y959D02*
X1771Y959D01*
X1Y958D02*
X8Y958D01*
X1764Y958D02*
X1771Y958D01*
X1Y957D02*
X8Y957D01*
X1764Y957D02*
X1771Y957D01*
X1Y956D02*
X8Y956D01*
X1764Y956D02*
X1771Y956D01*
X1Y955D02*
X8Y955D01*
X1764Y955D02*
X1771Y955D01*
X1Y954D02*
X8Y954D01*
X1764Y954D02*
X1771Y954D01*
X1Y953D02*
X8Y953D01*
X1764Y953D02*
X1771Y953D01*
X1Y952D02*
X8Y952D01*
X1764Y952D02*
X1771Y952D01*
X1Y951D02*
X8Y951D01*
X1764Y951D02*
X1771Y951D01*
X1Y950D02*
X8Y950D01*
X1764Y950D02*
X1771Y950D01*
X1Y949D02*
X8Y949D01*
X1764Y949D02*
X1771Y949D01*
X1Y948D02*
X8Y948D01*
X1764Y948D02*
X1771Y948D01*
X1Y947D02*
X8Y947D01*
X1764Y947D02*
X1771Y947D01*
X1Y946D02*
X8Y946D01*
X1764Y946D02*
X1771Y946D01*
X1Y945D02*
X8Y945D01*
X1764Y945D02*
X1771Y945D01*
X1Y944D02*
X8Y944D01*
X1764Y944D02*
X1771Y944D01*
X1Y943D02*
X8Y943D01*
X1764Y943D02*
X1771Y943D01*
X1Y942D02*
X8Y942D01*
X1764Y942D02*
X1771Y942D01*
X1Y941D02*
X8Y941D01*
X1764Y941D02*
X1771Y941D01*
X1Y940D02*
X8Y940D01*
X1764Y940D02*
X1771Y940D01*
X1Y939D02*
X8Y939D01*
X1764Y939D02*
X1771Y939D01*
X1Y938D02*
X8Y938D01*
X1764Y938D02*
X1771Y938D01*
X1Y937D02*
X8Y937D01*
X1764Y937D02*
X1771Y937D01*
X1Y936D02*
X8Y936D01*
X1764Y936D02*
X1771Y936D01*
X1Y935D02*
X8Y935D01*
X1764Y935D02*
X1771Y935D01*
X1Y934D02*
X8Y934D01*
X1764Y934D02*
X1771Y934D01*
X1Y933D02*
X8Y933D01*
X1764Y933D02*
X1771Y933D01*
X1Y932D02*
X8Y932D01*
X1764Y932D02*
X1771Y932D01*
X1Y931D02*
X8Y931D01*
X1764Y931D02*
X1771Y931D01*
X1Y930D02*
X8Y930D01*
X1764Y930D02*
X1771Y930D01*
X1Y929D02*
X8Y929D01*
X1764Y929D02*
X1771Y929D01*
X1Y928D02*
X8Y928D01*
X1764Y928D02*
X1771Y928D01*
X1Y927D02*
X8Y927D01*
X1764Y927D02*
X1771Y927D01*
X1Y926D02*
X8Y926D01*
X1764Y926D02*
X1771Y926D01*
X1Y925D02*
X8Y925D01*
X1764Y925D02*
X1771Y925D01*
X1Y924D02*
X8Y924D01*
X1764Y924D02*
X1771Y924D01*
X1Y923D02*
X8Y923D01*
X1764Y923D02*
X1771Y923D01*
X1Y922D02*
X8Y922D01*
X1764Y922D02*
X1771Y922D01*
X1Y921D02*
X8Y921D01*
X1764Y921D02*
X1771Y921D01*
X1Y920D02*
X8Y920D01*
X1764Y920D02*
X1771Y920D01*
X1Y919D02*
X8Y919D01*
X1764Y919D02*
X1771Y919D01*
X1Y918D02*
X8Y918D01*
X1764Y918D02*
X1771Y918D01*
X1Y917D02*
X8Y917D01*
X1764Y917D02*
X1771Y917D01*
X1Y916D02*
X8Y916D01*
X1764Y916D02*
X1771Y916D01*
X1Y915D02*
X8Y915D01*
X1764Y915D02*
X1771Y915D01*
X1Y914D02*
X8Y914D01*
X1764Y914D02*
X1771Y914D01*
X1Y913D02*
X8Y913D01*
X1764Y913D02*
X1771Y913D01*
X1Y912D02*
X8Y912D01*
X1124Y912D02*
X1145Y912D01*
X1170Y912D02*
X1188Y912D01*
X1764Y912D02*
X1771Y912D01*
X1Y911D02*
X8Y911D01*
X1122Y911D02*
X1147Y911D01*
X1169Y911D02*
X1188Y911D01*
X1764Y911D02*
X1771Y911D01*
X1Y910D02*
X8Y910D01*
X1121Y910D02*
X1149Y910D01*
X1169Y910D02*
X1188Y910D01*
X1764Y910D02*
X1771Y910D01*
X1Y909D02*
X8Y909D01*
X1120Y909D02*
X1150Y909D01*
X1168Y909D02*
X1188Y909D01*
X1764Y909D02*
X1771Y909D01*
X1Y908D02*
X8Y908D01*
X1119Y908D02*
X1150Y908D01*
X1168Y908D02*
X1188Y908D01*
X1764Y908D02*
X1771Y908D01*
X1Y907D02*
X8Y907D01*
X1119Y907D02*
X1151Y907D01*
X1169Y907D02*
X1188Y907D01*
X1764Y907D02*
X1771Y907D01*
X1Y906D02*
X8Y906D01*
X1118Y906D02*
X1151Y906D01*
X1170Y906D02*
X1188Y906D01*
X1764Y906D02*
X1771Y906D01*
X1Y905D02*
X8Y905D01*
X1118Y905D02*
X1125Y905D01*
X1145Y905D02*
X1152Y905D01*
X1182Y905D02*
X1188Y905D01*
X1764Y905D02*
X1771Y905D01*
X1Y904D02*
X8Y904D01*
X1118Y904D02*
X1125Y904D01*
X1146Y904D02*
X1152Y904D01*
X1182Y904D02*
X1188Y904D01*
X1764Y904D02*
X1771Y904D01*
X1Y903D02*
X8Y903D01*
X1119Y903D02*
X1125Y903D01*
X1146Y903D02*
X1152Y903D01*
X1182Y903D02*
X1188Y903D01*
X1764Y903D02*
X1771Y903D01*
X1Y902D02*
X8Y902D01*
X1119Y902D02*
X1126Y902D01*
X1146Y902D02*
X1152Y902D01*
X1182Y902D02*
X1188Y902D01*
X1764Y902D02*
X1771Y902D01*
X1Y901D02*
X8Y901D01*
X1119Y901D02*
X1127Y901D01*
X1147Y901D02*
X1151Y901D01*
X1182Y901D02*
X1188Y901D01*
X1764Y901D02*
X1771Y901D01*
X1Y900D02*
X8Y900D01*
X1120Y900D02*
X1128Y900D01*
X1148Y900D02*
X1150Y900D01*
X1182Y900D02*
X1188Y900D01*
X1764Y900D02*
X1771Y900D01*
X1Y899D02*
X8Y899D01*
X1120Y899D02*
X1128Y899D01*
X1182Y899D02*
X1188Y899D01*
X1764Y899D02*
X1771Y899D01*
X1Y898D02*
X8Y898D01*
X346Y898D02*
X352Y898D01*
X1121Y898D02*
X1129Y898D01*
X1182Y898D02*
X1188Y898D01*
X1764Y898D02*
X1771Y898D01*
X1Y897D02*
X8Y897D01*
X345Y897D02*
X353Y897D01*
X1122Y897D02*
X1130Y897D01*
X1182Y897D02*
X1188Y897D01*
X1764Y897D02*
X1771Y897D01*
X1Y896D02*
X8Y896D01*
X345Y896D02*
X354Y896D01*
X1123Y896D02*
X1131Y896D01*
X1182Y896D02*
X1188Y896D01*
X1764Y896D02*
X1771Y896D01*
X1Y895D02*
X8Y895D01*
X345Y895D02*
X354Y895D01*
X1124Y895D02*
X1132Y895D01*
X1182Y895D02*
X1188Y895D01*
X1764Y895D02*
X1771Y895D01*
X1Y894D02*
X8Y894D01*
X345Y894D02*
X354Y894D01*
X1124Y894D02*
X1132Y894D01*
X1182Y894D02*
X1188Y894D01*
X1764Y894D02*
X1771Y894D01*
X1Y893D02*
X8Y893D01*
X346Y893D02*
X354Y893D01*
X1125Y893D02*
X1133Y893D01*
X1182Y893D02*
X1188Y893D01*
X1764Y893D02*
X1771Y893D01*
X1Y892D02*
X8Y892D01*
X347Y892D02*
X354Y892D01*
X1126Y892D02*
X1134Y892D01*
X1182Y892D02*
X1188Y892D01*
X1764Y892D02*
X1771Y892D01*
X1Y891D02*
X8Y891D01*
X348Y891D02*
X354Y891D01*
X1127Y891D02*
X1135Y891D01*
X1182Y891D02*
X1188Y891D01*
X1764Y891D02*
X1771Y891D01*
X1Y890D02*
X8Y890D01*
X348Y890D02*
X354Y890D01*
X1127Y890D02*
X1135Y890D01*
X1182Y890D02*
X1188Y890D01*
X1764Y890D02*
X1771Y890D01*
X1Y889D02*
X8Y889D01*
X348Y889D02*
X354Y889D01*
X1128Y889D02*
X1136Y889D01*
X1182Y889D02*
X1188Y889D01*
X1764Y889D02*
X1771Y889D01*
X1Y888D02*
X8Y888D01*
X348Y888D02*
X354Y888D01*
X1129Y888D02*
X1137Y888D01*
X1182Y888D02*
X1188Y888D01*
X1764Y888D02*
X1771Y888D01*
X1Y887D02*
X8Y887D01*
X348Y887D02*
X354Y887D01*
X1130Y887D02*
X1138Y887D01*
X1182Y887D02*
X1188Y887D01*
X1764Y887D02*
X1771Y887D01*
X1Y886D02*
X8Y886D01*
X348Y886D02*
X354Y886D01*
X1131Y886D02*
X1139Y886D01*
X1182Y886D02*
X1188Y886D01*
X1764Y886D02*
X1771Y886D01*
X1Y885D02*
X8Y885D01*
X348Y885D02*
X354Y885D01*
X1131Y885D02*
X1139Y885D01*
X1182Y885D02*
X1188Y885D01*
X1764Y885D02*
X1771Y885D01*
X1Y884D02*
X8Y884D01*
X302Y884D02*
X323Y884D01*
X348Y884D02*
X354Y884D01*
X1132Y884D02*
X1140Y884D01*
X1182Y884D02*
X1188Y884D01*
X1764Y884D02*
X1771Y884D01*
X1Y883D02*
X8Y883D01*
X301Y883D02*
X324Y883D01*
X348Y883D02*
X354Y883D01*
X1133Y883D02*
X1141Y883D01*
X1182Y883D02*
X1188Y883D01*
X1764Y883D02*
X1771Y883D01*
X1Y882D02*
X8Y882D01*
X301Y882D02*
X325Y882D01*
X348Y882D02*
X354Y882D01*
X1134Y882D02*
X1142Y882D01*
X1182Y882D02*
X1188Y882D01*
X1197Y882D02*
X1201Y882D01*
X1764Y882D02*
X1771Y882D01*
X1Y881D02*
X8Y881D01*
X301Y881D02*
X326Y881D01*
X348Y881D02*
X354Y881D01*
X1134Y881D02*
X1142Y881D01*
X1182Y881D02*
X1188Y881D01*
X1196Y881D02*
X1201Y881D01*
X1764Y881D02*
X1771Y881D01*
X1Y880D02*
X8Y880D01*
X301Y880D02*
X327Y880D01*
X348Y880D02*
X354Y880D01*
X1135Y880D02*
X1143Y880D01*
X1182Y880D02*
X1188Y880D01*
X1196Y880D02*
X1202Y880D01*
X1764Y880D02*
X1771Y880D01*
X1Y879D02*
X8Y879D01*
X302Y879D02*
X327Y879D01*
X348Y879D02*
X354Y879D01*
X1136Y879D02*
X1144Y879D01*
X1182Y879D02*
X1188Y879D01*
X1196Y879D02*
X1202Y879D01*
X1764Y879D02*
X1771Y879D01*
X1Y878D02*
X8Y878D01*
X304Y878D02*
X328Y878D01*
X348Y878D02*
X354Y878D01*
X1137Y878D02*
X1145Y878D01*
X1182Y878D02*
X1188Y878D01*
X1196Y878D02*
X1202Y878D01*
X1764Y878D02*
X1771Y878D01*
X1Y877D02*
X8Y877D01*
X321Y877D02*
X329Y877D01*
X348Y877D02*
X354Y877D01*
X1137Y877D02*
X1146Y877D01*
X1182Y877D02*
X1188Y877D01*
X1196Y877D02*
X1202Y877D01*
X1764Y877D02*
X1771Y877D01*
X1Y876D02*
X8Y876D01*
X322Y876D02*
X330Y876D01*
X348Y876D02*
X354Y876D01*
X1138Y876D02*
X1146Y876D01*
X1182Y876D02*
X1188Y876D01*
X1196Y876D02*
X1202Y876D01*
X1764Y876D02*
X1771Y876D01*
X1Y875D02*
X8Y875D01*
X323Y875D02*
X331Y875D01*
X348Y875D02*
X354Y875D01*
X1139Y875D02*
X1147Y875D01*
X1182Y875D02*
X1188Y875D01*
X1196Y875D02*
X1202Y875D01*
X1764Y875D02*
X1771Y875D01*
X1Y874D02*
X8Y874D01*
X323Y874D02*
X332Y874D01*
X348Y874D02*
X354Y874D01*
X1140Y874D02*
X1148Y874D01*
X1182Y874D02*
X1188Y874D01*
X1196Y874D02*
X1202Y874D01*
X1764Y874D02*
X1771Y874D01*
X1Y873D02*
X8Y873D01*
X324Y873D02*
X333Y873D01*
X348Y873D02*
X354Y873D01*
X1141Y873D02*
X1149Y873D01*
X1182Y873D02*
X1188Y873D01*
X1196Y873D02*
X1202Y873D01*
X1764Y873D02*
X1771Y873D01*
X1Y872D02*
X8Y872D01*
X325Y872D02*
X333Y872D01*
X348Y872D02*
X354Y872D01*
X1141Y872D02*
X1149Y872D01*
X1182Y872D02*
X1188Y872D01*
X1196Y872D02*
X1202Y872D01*
X1764Y872D02*
X1771Y872D01*
X1Y871D02*
X8Y871D01*
X326Y871D02*
X354Y871D01*
X1121Y871D02*
X1122Y871D01*
X1142Y871D02*
X1150Y871D01*
X1182Y871D02*
X1188Y871D01*
X1196Y871D02*
X1202Y871D01*
X1764Y871D02*
X1771Y871D01*
X1Y870D02*
X8Y870D01*
X327Y870D02*
X354Y870D01*
X1119Y870D02*
X1123Y870D01*
X1143Y870D02*
X1151Y870D01*
X1182Y870D02*
X1188Y870D01*
X1196Y870D02*
X1202Y870D01*
X1764Y870D02*
X1771Y870D01*
X1Y869D02*
X8Y869D01*
X328Y869D02*
X354Y869D01*
X1119Y869D02*
X1124Y869D01*
X1144Y869D02*
X1151Y869D01*
X1182Y869D02*
X1188Y869D01*
X1196Y869D02*
X1202Y869D01*
X1764Y869D02*
X1771Y869D01*
X1Y868D02*
X8Y868D01*
X329Y868D02*
X354Y868D01*
X1118Y868D02*
X1124Y868D01*
X1144Y868D02*
X1152Y868D01*
X1182Y868D02*
X1188Y868D01*
X1196Y868D02*
X1202Y868D01*
X1764Y868D02*
X1771Y868D01*
X1Y867D02*
X8Y867D01*
X329Y867D02*
X354Y867D01*
X1118Y867D02*
X1124Y867D01*
X1145Y867D02*
X1152Y867D01*
X1182Y867D02*
X1188Y867D01*
X1196Y867D02*
X1202Y867D01*
X1764Y867D02*
X1771Y867D01*
X1Y866D02*
X8Y866D01*
X330Y866D02*
X354Y866D01*
X1118Y866D02*
X1125Y866D01*
X1146Y866D02*
X1152Y866D01*
X1182Y866D02*
X1188Y866D01*
X1196Y866D02*
X1202Y866D01*
X1764Y866D02*
X1771Y866D01*
X1Y865D02*
X8Y865D01*
X331Y865D02*
X354Y865D01*
X1119Y865D02*
X1152Y865D01*
X1171Y865D02*
X1202Y865D01*
X1764Y865D02*
X1771Y865D01*
X1Y864D02*
X8Y864D01*
X1119Y864D02*
X1152Y864D01*
X1169Y864D02*
X1202Y864D01*
X1764Y864D02*
X1771Y864D01*
X1Y863D02*
X8Y863D01*
X1120Y863D02*
X1151Y863D01*
X1169Y863D02*
X1202Y863D01*
X1764Y863D02*
X1771Y863D01*
X1Y862D02*
X8Y862D01*
X1120Y862D02*
X1151Y862D01*
X1168Y862D02*
X1202Y862D01*
X1764Y862D02*
X1771Y862D01*
X1Y861D02*
X8Y861D01*
X1121Y861D02*
X1150Y861D01*
X1168Y861D02*
X1202Y861D01*
X1764Y861D02*
X1771Y861D01*
X1Y860D02*
X8Y860D01*
X1122Y860D02*
X1149Y860D01*
X1169Y860D02*
X1201Y860D01*
X1764Y860D02*
X1771Y860D01*
X1Y859D02*
X8Y859D01*
X1124Y859D02*
X1147Y859D01*
X1170Y859D02*
X1200Y859D01*
X1764Y859D02*
X1771Y859D01*
X1Y858D02*
X8Y858D01*
X1764Y858D02*
X1771Y858D01*
X1Y857D02*
X8Y857D01*
X1764Y857D02*
X1771Y857D01*
X1Y856D02*
X8Y856D01*
X1764Y856D02*
X1771Y856D01*
X1Y855D02*
X8Y855D01*
X1764Y855D02*
X1771Y855D01*
X1Y854D02*
X8Y854D01*
X1764Y854D02*
X1771Y854D01*
X1Y853D02*
X8Y853D01*
X1764Y853D02*
X1771Y853D01*
X1Y852D02*
X8Y852D01*
X1764Y852D02*
X1771Y852D01*
X1Y851D02*
X8Y851D01*
X1764Y851D02*
X1771Y851D01*
X1Y850D02*
X8Y850D01*
X1764Y850D02*
X1771Y850D01*
X1Y849D02*
X8Y849D01*
X1764Y849D02*
X1771Y849D01*
X1Y848D02*
X8Y848D01*
X1764Y848D02*
X1771Y848D01*
X1Y847D02*
X8Y847D01*
X1764Y847D02*
X1771Y847D01*
X1Y846D02*
X8Y846D01*
X1764Y846D02*
X1771Y846D01*
X1Y845D02*
X8Y845D01*
X1764Y845D02*
X1771Y845D01*
X1Y844D02*
X8Y844D01*
X1764Y844D02*
X1771Y844D01*
X1Y843D02*
X8Y843D01*
X1764Y843D02*
X1771Y843D01*
X1Y842D02*
X8Y842D01*
X1764Y842D02*
X1771Y842D01*
X1Y841D02*
X8Y841D01*
X1764Y841D02*
X1771Y841D01*
X1Y840D02*
X8Y840D01*
X1764Y840D02*
X1771Y840D01*
X1Y839D02*
X8Y839D01*
X1764Y839D02*
X1771Y839D01*
X1Y838D02*
X8Y838D01*
X1764Y838D02*
X1771Y838D01*
X1Y837D02*
X8Y837D01*
X1764Y837D02*
X1771Y837D01*
X1Y836D02*
X8Y836D01*
X1764Y836D02*
X1771Y836D01*
X1Y835D02*
X8Y835D01*
X1764Y835D02*
X1771Y835D01*
X1Y834D02*
X8Y834D01*
X1764Y834D02*
X1771Y834D01*
X1Y833D02*
X8Y833D01*
X1764Y833D02*
X1771Y833D01*
X1Y832D02*
X8Y832D01*
X1764Y832D02*
X1771Y832D01*
X1Y831D02*
X8Y831D01*
X1764Y831D02*
X1771Y831D01*
X1Y830D02*
X8Y830D01*
X1764Y830D02*
X1771Y830D01*
X1Y829D02*
X8Y829D01*
X1764Y829D02*
X1771Y829D01*
X1Y828D02*
X8Y828D01*
X1764Y828D02*
X1771Y828D01*
X1Y827D02*
X8Y827D01*
X1764Y827D02*
X1771Y827D01*
X1Y826D02*
X8Y826D01*
X1764Y826D02*
X1771Y826D01*
X1Y825D02*
X8Y825D01*
X1764Y825D02*
X1771Y825D01*
X1Y824D02*
X8Y824D01*
X1764Y824D02*
X1771Y824D01*
X1Y823D02*
X8Y823D01*
X1764Y823D02*
X1771Y823D01*
X1Y822D02*
X8Y822D01*
X1764Y822D02*
X1771Y822D01*
X1Y821D02*
X8Y821D01*
X1764Y821D02*
X1771Y821D01*
X1Y820D02*
X8Y820D01*
X1764Y820D02*
X1771Y820D01*
X1Y819D02*
X8Y819D01*
X1764Y819D02*
X1771Y819D01*
X1Y818D02*
X8Y818D01*
X1764Y818D02*
X1771Y818D01*
X1Y817D02*
X8Y817D01*
X1764Y817D02*
X1771Y817D01*
X1Y816D02*
X8Y816D01*
X1764Y816D02*
X1771Y816D01*
X1Y815D02*
X8Y815D01*
X1764Y815D02*
X1771Y815D01*
X1Y814D02*
X8Y814D01*
X1764Y814D02*
X1771Y814D01*
X1Y813D02*
X8Y813D01*
X1764Y813D02*
X1771Y813D01*
X1Y812D02*
X8Y812D01*
X1764Y812D02*
X1771Y812D01*
X1Y811D02*
X8Y811D01*
X1764Y811D02*
X1771Y811D01*
X1Y810D02*
X8Y810D01*
X1764Y810D02*
X1771Y810D01*
X1Y809D02*
X8Y809D01*
X1764Y809D02*
X1771Y809D01*
X1Y808D02*
X8Y808D01*
X1764Y808D02*
X1771Y808D01*
X1Y807D02*
X8Y807D01*
X1764Y807D02*
X1771Y807D01*
X1Y806D02*
X8Y806D01*
X1764Y806D02*
X1771Y806D01*
X1Y805D02*
X8Y805D01*
X1764Y805D02*
X1771Y805D01*
X1Y804D02*
X8Y804D01*
X1764Y804D02*
X1771Y804D01*
X1Y803D02*
X8Y803D01*
X1764Y803D02*
X1771Y803D01*
X1Y802D02*
X8Y802D01*
X1764Y802D02*
X1771Y802D01*
X1Y801D02*
X8Y801D01*
X1764Y801D02*
X1771Y801D01*
X1Y800D02*
X8Y800D01*
X1764Y800D02*
X1771Y800D01*
X1Y799D02*
X8Y799D01*
X1764Y799D02*
X1771Y799D01*
X1Y798D02*
X8Y798D01*
X306Y798D02*
X311Y798D01*
X344Y798D02*
X349Y798D01*
X1764Y798D02*
X1771Y798D01*
X1Y797D02*
X8Y797D01*
X305Y797D02*
X312Y797D01*
X342Y797D02*
X351Y797D01*
X1764Y797D02*
X1771Y797D01*
X1Y796D02*
X8Y796D01*
X303Y796D02*
X312Y796D01*
X341Y796D02*
X352Y796D01*
X1764Y796D02*
X1771Y796D01*
X1Y795D02*
X8Y795D01*
X303Y795D02*
X312Y795D01*
X339Y795D02*
X353Y795D01*
X1764Y795D02*
X1771Y795D01*
X1Y794D02*
X8Y794D01*
X302Y794D02*
X312Y794D01*
X338Y794D02*
X353Y794D01*
X1764Y794D02*
X1771Y794D01*
X1Y793D02*
X8Y793D01*
X301Y793D02*
X312Y793D01*
X337Y793D02*
X353Y793D01*
X1764Y793D02*
X1771Y793D01*
X1Y792D02*
X8Y792D01*
X301Y792D02*
X310Y792D01*
X335Y792D02*
X354Y792D01*
X1764Y792D02*
X1771Y792D01*
X1Y791D02*
X8Y791D01*
X301Y791D02*
X307Y791D01*
X334Y791D02*
X345Y791D01*
X348Y791D02*
X354Y791D01*
X1764Y791D02*
X1771Y791D01*
X1Y790D02*
X8Y790D01*
X301Y790D02*
X307Y790D01*
X333Y790D02*
X343Y790D01*
X348Y790D02*
X354Y790D01*
X1764Y790D02*
X1771Y790D01*
X1Y789D02*
X8Y789D01*
X301Y789D02*
X307Y789D01*
X331Y789D02*
X342Y789D01*
X348Y789D02*
X354Y789D01*
X1764Y789D02*
X1771Y789D01*
X1Y788D02*
X8Y788D01*
X301Y788D02*
X307Y788D01*
X330Y788D02*
X341Y788D01*
X348Y788D02*
X354Y788D01*
X1764Y788D02*
X1771Y788D01*
X1Y787D02*
X8Y787D01*
X301Y787D02*
X307Y787D01*
X329Y787D02*
X340Y787D01*
X348Y787D02*
X354Y787D01*
X1764Y787D02*
X1771Y787D01*
X1Y786D02*
X8Y786D01*
X301Y786D02*
X307Y786D01*
X328Y786D02*
X338Y786D01*
X348Y786D02*
X354Y786D01*
X1764Y786D02*
X1771Y786D01*
X1Y785D02*
X8Y785D01*
X301Y785D02*
X307Y785D01*
X326Y785D02*
X337Y785D01*
X348Y785D02*
X354Y785D01*
X1764Y785D02*
X1771Y785D01*
X1Y784D02*
X8Y784D01*
X301Y784D02*
X307Y784D01*
X325Y784D02*
X336Y784D01*
X348Y784D02*
X354Y784D01*
X1764Y784D02*
X1771Y784D01*
X1Y783D02*
X8Y783D01*
X301Y783D02*
X307Y783D01*
X324Y783D02*
X334Y783D01*
X348Y783D02*
X354Y783D01*
X1764Y783D02*
X1771Y783D01*
X1Y782D02*
X8Y782D01*
X301Y782D02*
X307Y782D01*
X322Y782D02*
X333Y782D01*
X348Y782D02*
X354Y782D01*
X1764Y782D02*
X1771Y782D01*
X1Y781D02*
X8Y781D01*
X301Y781D02*
X307Y781D01*
X321Y781D02*
X332Y781D01*
X348Y781D02*
X354Y781D01*
X1764Y781D02*
X1771Y781D01*
X1Y780D02*
X8Y780D01*
X301Y780D02*
X307Y780D01*
X320Y780D02*
X331Y780D01*
X348Y780D02*
X354Y780D01*
X1764Y780D02*
X1771Y780D01*
X1Y779D02*
X8Y779D01*
X301Y779D02*
X307Y779D01*
X319Y779D02*
X329Y779D01*
X348Y779D02*
X354Y779D01*
X1764Y779D02*
X1771Y779D01*
X1Y778D02*
X8Y778D01*
X301Y778D02*
X307Y778D01*
X317Y778D02*
X328Y778D01*
X348Y778D02*
X354Y778D01*
X1764Y778D02*
X1771Y778D01*
X1Y777D02*
X8Y777D01*
X301Y777D02*
X307Y777D01*
X316Y777D02*
X327Y777D01*
X348Y777D02*
X354Y777D01*
X1764Y777D02*
X1771Y777D01*
X1Y776D02*
X8Y776D01*
X301Y776D02*
X307Y776D01*
X315Y776D02*
X325Y776D01*
X348Y776D02*
X354Y776D01*
X1764Y776D02*
X1771Y776D01*
X1Y775D02*
X8Y775D01*
X301Y775D02*
X307Y775D01*
X313Y775D02*
X324Y775D01*
X348Y775D02*
X354Y775D01*
X1764Y775D02*
X1771Y775D01*
X1Y774D02*
X8Y774D01*
X301Y774D02*
X307Y774D01*
X312Y774D02*
X323Y774D01*
X348Y774D02*
X354Y774D01*
X1764Y774D02*
X1771Y774D01*
X1Y773D02*
X8Y773D01*
X301Y773D02*
X307Y773D01*
X311Y773D02*
X322Y773D01*
X348Y773D02*
X354Y773D01*
X1764Y773D02*
X1771Y773D01*
X1Y772D02*
X8Y772D01*
X301Y772D02*
X307Y772D01*
X310Y772D02*
X320Y772D01*
X347Y772D02*
X354Y772D01*
X1764Y772D02*
X1771Y772D01*
X1Y771D02*
X8Y771D01*
X301Y771D02*
X319Y771D01*
X345Y771D02*
X353Y771D01*
X1764Y771D02*
X1771Y771D01*
X1Y770D02*
X8Y770D01*
X301Y770D02*
X318Y770D01*
X343Y770D02*
X353Y770D01*
X1764Y770D02*
X1771Y770D01*
X1Y769D02*
X8Y769D01*
X301Y769D02*
X316Y769D01*
X342Y769D02*
X352Y769D01*
X1764Y769D02*
X1771Y769D01*
X1Y768D02*
X8Y768D01*
X302Y768D02*
X315Y768D01*
X342Y768D02*
X352Y768D01*
X1764Y768D02*
X1771Y768D01*
X1Y767D02*
X8Y767D01*
X302Y767D02*
X314Y767D01*
X342Y767D02*
X351Y767D01*
X1764Y767D02*
X1771Y767D01*
X1Y766D02*
X8Y766D01*
X304Y766D02*
X313Y766D01*
X342Y766D02*
X350Y766D01*
X1764Y766D02*
X1771Y766D01*
X1Y765D02*
X8Y765D01*
X305Y765D02*
X311Y765D01*
X343Y765D02*
X348Y765D01*
X1764Y765D02*
X1771Y765D01*
X1Y764D02*
X8Y764D01*
X1764Y764D02*
X1771Y764D01*
X1Y763D02*
X8Y763D01*
X1764Y763D02*
X1771Y763D01*
X1Y762D02*
X8Y762D01*
X1764Y762D02*
X1771Y762D01*
X1Y761D02*
X8Y761D01*
X1764Y761D02*
X1771Y761D01*
X1Y760D02*
X8Y760D01*
X1764Y760D02*
X1771Y760D01*
X1Y759D02*
X8Y759D01*
X1764Y759D02*
X1771Y759D01*
X1Y758D02*
X8Y758D01*
X1764Y758D02*
X1771Y758D01*
X1Y757D02*
X8Y757D01*
X1764Y757D02*
X1771Y757D01*
X1Y756D02*
X8Y756D01*
X1764Y756D02*
X1771Y756D01*
X1Y755D02*
X8Y755D01*
X1764Y755D02*
X1771Y755D01*
X1Y754D02*
X8Y754D01*
X1764Y754D02*
X1771Y754D01*
X1Y753D02*
X8Y753D01*
X1764Y753D02*
X1771Y753D01*
X1Y752D02*
X8Y752D01*
X1764Y752D02*
X1771Y752D01*
X1Y751D02*
X8Y751D01*
X1764Y751D02*
X1771Y751D01*
X1Y750D02*
X8Y750D01*
X1764Y750D02*
X1771Y750D01*
X1Y749D02*
X8Y749D01*
X1764Y749D02*
X1771Y749D01*
X1Y748D02*
X8Y748D01*
X309Y748D02*
X330Y748D01*
X1764Y748D02*
X1771Y748D01*
X1Y747D02*
X8Y747D01*
X307Y747D02*
X332Y747D01*
X1764Y747D02*
X1771Y747D01*
X1Y746D02*
X8Y746D01*
X306Y746D02*
X333Y746D01*
X1764Y746D02*
X1771Y746D01*
X1Y745D02*
X8Y745D01*
X305Y745D02*
X334Y745D01*
X1764Y745D02*
X1771Y745D01*
X1Y744D02*
X8Y744D01*
X304Y744D02*
X335Y744D01*
X1764Y744D02*
X1771Y744D01*
X1Y743D02*
X8Y743D01*
X303Y743D02*
X336Y743D01*
X1764Y743D02*
X1771Y743D01*
X1Y742D02*
X8Y742D01*
X303Y742D02*
X337Y742D01*
X1764Y742D02*
X1771Y742D01*
X1Y741D02*
X8Y741D01*
X302Y741D02*
X310Y741D01*
X315Y741D02*
X321Y741D01*
X329Y741D02*
X338Y741D01*
X1764Y741D02*
X1771Y741D01*
X1Y740D02*
X8Y740D01*
X301Y740D02*
X309Y740D01*
X315Y740D02*
X321Y740D01*
X330Y740D02*
X338Y740D01*
X1764Y740D02*
X1771Y740D01*
X1Y739D02*
X8Y739D01*
X301Y739D02*
X308Y739D01*
X315Y739D02*
X321Y739D01*
X331Y739D02*
X338Y739D01*
X1764Y739D02*
X1771Y739D01*
X1Y738D02*
X8Y738D01*
X301Y738D02*
X307Y738D01*
X315Y738D02*
X321Y738D01*
X332Y738D02*
X339Y738D01*
X1764Y738D02*
X1771Y738D01*
X1Y737D02*
X8Y737D01*
X301Y737D02*
X307Y737D01*
X315Y737D02*
X321Y737D01*
X333Y737D02*
X339Y737D01*
X1764Y737D02*
X1771Y737D01*
X1Y736D02*
X8Y736D01*
X301Y736D02*
X307Y736D01*
X315Y736D02*
X321Y736D01*
X333Y736D02*
X339Y736D01*
X1764Y736D02*
X1771Y736D01*
X1Y735D02*
X8Y735D01*
X301Y735D02*
X307Y735D01*
X315Y735D02*
X321Y735D01*
X333Y735D02*
X339Y735D01*
X1764Y735D02*
X1771Y735D01*
X1Y734D02*
X8Y734D01*
X301Y734D02*
X307Y734D01*
X315Y734D02*
X321Y734D01*
X333Y734D02*
X339Y734D01*
X1764Y734D02*
X1771Y734D01*
X1Y733D02*
X8Y733D01*
X301Y733D02*
X307Y733D01*
X315Y733D02*
X321Y733D01*
X333Y733D02*
X339Y733D01*
X1764Y733D02*
X1771Y733D01*
X1Y732D02*
X8Y732D01*
X301Y732D02*
X307Y732D01*
X315Y732D02*
X321Y732D01*
X333Y732D02*
X339Y732D01*
X1764Y732D02*
X1771Y732D01*
X1Y731D02*
X8Y731D01*
X301Y731D02*
X307Y731D01*
X315Y731D02*
X321Y731D01*
X333Y731D02*
X339Y731D01*
X1764Y731D02*
X1771Y731D01*
X1Y730D02*
X8Y730D01*
X301Y730D02*
X307Y730D01*
X315Y730D02*
X321Y730D01*
X333Y730D02*
X339Y730D01*
X1764Y730D02*
X1771Y730D01*
X1Y729D02*
X8Y729D01*
X301Y729D02*
X307Y729D01*
X315Y729D02*
X321Y729D01*
X333Y729D02*
X339Y729D01*
X1764Y729D02*
X1771Y729D01*
X1Y728D02*
X8Y728D01*
X301Y728D02*
X307Y728D01*
X315Y728D02*
X321Y728D01*
X333Y728D02*
X339Y728D01*
X1764Y728D02*
X1771Y728D01*
X1Y727D02*
X8Y727D01*
X301Y727D02*
X307Y727D01*
X315Y727D02*
X321Y727D01*
X333Y727D02*
X339Y727D01*
X1764Y727D02*
X1771Y727D01*
X1Y726D02*
X8Y726D01*
X301Y726D02*
X307Y726D01*
X315Y726D02*
X321Y726D01*
X333Y726D02*
X339Y726D01*
X1764Y726D02*
X1771Y726D01*
X1Y725D02*
X8Y725D01*
X301Y725D02*
X307Y725D01*
X315Y725D02*
X321Y725D01*
X332Y725D02*
X339Y725D01*
X1764Y725D02*
X1771Y725D01*
X1Y724D02*
X8Y724D01*
X301Y724D02*
X307Y724D01*
X315Y724D02*
X321Y724D01*
X332Y724D02*
X339Y724D01*
X1764Y724D02*
X1771Y724D01*
X1Y723D02*
X8Y723D01*
X301Y723D02*
X307Y723D01*
X315Y723D02*
X321Y723D01*
X331Y723D02*
X338Y723D01*
X1764Y723D02*
X1771Y723D01*
X1Y722D02*
X8Y722D01*
X301Y722D02*
X307Y722D01*
X315Y722D02*
X321Y722D01*
X330Y722D02*
X338Y722D01*
X1764Y722D02*
X1771Y722D01*
X1Y721D02*
X8Y721D01*
X301Y721D02*
X307Y721D01*
X315Y721D02*
X337Y721D01*
X1764Y721D02*
X1771Y721D01*
X1Y720D02*
X8Y720D01*
X301Y720D02*
X307Y720D01*
X315Y720D02*
X336Y720D01*
X1764Y720D02*
X1771Y720D01*
X1Y719D02*
X8Y719D01*
X301Y719D02*
X307Y719D01*
X315Y719D02*
X335Y719D01*
X1764Y719D02*
X1771Y719D01*
X1Y718D02*
X8Y718D01*
X301Y718D02*
X307Y718D01*
X315Y718D02*
X334Y718D01*
X1764Y718D02*
X1771Y718D01*
X1Y717D02*
X8Y717D01*
X301Y717D02*
X306Y717D01*
X315Y717D02*
X333Y717D01*
X1764Y717D02*
X1771Y717D01*
X1Y716D02*
X8Y716D01*
X301Y716D02*
X306Y716D01*
X316Y716D02*
X332Y716D01*
X1764Y716D02*
X1771Y716D01*
X1Y715D02*
X8Y715D01*
X302Y715D02*
X305Y715D01*
X317Y715D02*
X331Y715D01*
X1764Y715D02*
X1771Y715D01*
X1Y714D02*
X8Y714D01*
X1764Y714D02*
X1771Y714D01*
X1Y713D02*
X8Y713D01*
X1764Y713D02*
X1771Y713D01*
X1Y712D02*
X8Y712D01*
X1764Y712D02*
X1771Y712D01*
X1Y711D02*
X8Y711D01*
X1764Y711D02*
X1771Y711D01*
X1Y710D02*
X8Y710D01*
X1764Y710D02*
X1771Y710D01*
X1Y709D02*
X8Y709D01*
X1764Y709D02*
X1771Y709D01*
X1Y708D02*
X8Y708D01*
X1764Y708D02*
X1771Y708D01*
X1Y707D02*
X8Y707D01*
X1764Y707D02*
X1771Y707D01*
X1Y706D02*
X8Y706D01*
X1764Y706D02*
X1771Y706D01*
X1Y705D02*
X8Y705D01*
X1764Y705D02*
X1771Y705D01*
X1Y704D02*
X8Y704D01*
X1764Y704D02*
X1771Y704D01*
X1Y703D02*
X8Y703D01*
X1764Y703D02*
X1771Y703D01*
X1Y702D02*
X8Y702D01*
X1764Y702D02*
X1771Y702D01*
X1Y701D02*
X8Y701D01*
X1764Y701D02*
X1771Y701D01*
X1Y700D02*
X8Y700D01*
X1764Y700D02*
X1771Y700D01*
X1Y699D02*
X8Y699D01*
X1764Y699D02*
X1771Y699D01*
X1Y698D02*
X8Y698D01*
X312Y698D02*
X330Y698D01*
X1764Y698D02*
X1771Y698D01*
X1Y697D02*
X8Y697D01*
X310Y697D02*
X332Y697D01*
X1764Y697D02*
X1771Y697D01*
X1Y696D02*
X8Y696D01*
X309Y696D02*
X333Y696D01*
X1764Y696D02*
X1771Y696D01*
X1Y695D02*
X8Y695D01*
X288Y695D02*
X290Y695D01*
X308Y695D02*
X334Y695D01*
X1764Y695D02*
X1771Y695D01*
X1Y694D02*
X8Y694D01*
X287Y694D02*
X291Y694D01*
X307Y694D02*
X335Y694D01*
X1764Y694D02*
X1771Y694D01*
X1Y693D02*
X8Y693D01*
X286Y693D02*
X292Y693D01*
X306Y693D02*
X336Y693D01*
X1764Y693D02*
X1771Y693D01*
X1Y692D02*
X8Y692D01*
X286Y692D02*
X292Y692D01*
X306Y692D02*
X337Y692D01*
X1764Y692D02*
X1771Y692D01*
X1Y691D02*
X8Y691D01*
X286Y691D02*
X292Y691D01*
X305Y691D02*
X313Y691D01*
X329Y691D02*
X338Y691D01*
X1764Y691D02*
X1771Y691D01*
X1Y690D02*
X8Y690D01*
X286Y690D02*
X292Y690D01*
X304Y690D02*
X312Y690D01*
X331Y690D02*
X338Y690D01*
X1764Y690D02*
X1771Y690D01*
X1Y689D02*
X8Y689D01*
X286Y689D02*
X292Y689D01*
X304Y689D02*
X311Y689D01*
X331Y689D02*
X338Y689D01*
X1764Y689D02*
X1771Y689D01*
X1Y688D02*
X8Y688D01*
X286Y688D02*
X292Y688D01*
X304Y688D02*
X310Y688D01*
X332Y688D02*
X339Y688D01*
X1764Y688D02*
X1771Y688D01*
X1Y687D02*
X8Y687D01*
X286Y687D02*
X292Y687D01*
X304Y687D02*
X310Y687D01*
X333Y687D02*
X339Y687D01*
X1764Y687D02*
X1771Y687D01*
X1Y686D02*
X8Y686D01*
X286Y686D02*
X292Y686D01*
X304Y686D02*
X310Y686D01*
X333Y686D02*
X339Y686D01*
X1764Y686D02*
X1771Y686D01*
X1Y685D02*
X8Y685D01*
X286Y685D02*
X292Y685D01*
X303Y685D02*
X310Y685D01*
X333Y685D02*
X339Y685D01*
X1764Y685D02*
X1771Y685D01*
X1Y684D02*
X8Y684D01*
X286Y684D02*
X292Y684D01*
X303Y684D02*
X310Y684D01*
X333Y684D02*
X339Y684D01*
X1764Y684D02*
X1771Y684D01*
X1Y683D02*
X8Y683D01*
X286Y683D02*
X292Y683D01*
X303Y683D02*
X310Y683D01*
X333Y683D02*
X339Y683D01*
X1764Y683D02*
X1771Y683D01*
X1Y682D02*
X8Y682D01*
X286Y682D02*
X292Y682D01*
X303Y682D02*
X310Y682D01*
X333Y682D02*
X339Y682D01*
X1764Y682D02*
X1771Y682D01*
X1Y681D02*
X8Y681D01*
X286Y681D02*
X292Y681D01*
X303Y681D02*
X310Y681D01*
X333Y681D02*
X339Y681D01*
X1764Y681D02*
X1771Y681D01*
X1Y680D02*
X8Y680D01*
X286Y680D02*
X292Y680D01*
X304Y680D02*
X310Y680D01*
X333Y680D02*
X339Y680D01*
X1764Y680D02*
X1771Y680D01*
X1Y679D02*
X8Y679D01*
X286Y679D02*
X292Y679D01*
X304Y679D02*
X310Y679D01*
X333Y679D02*
X339Y679D01*
X1764Y679D02*
X1771Y679D01*
X1Y678D02*
X8Y678D01*
X286Y678D02*
X292Y678D01*
X304Y678D02*
X311Y678D01*
X332Y678D02*
X339Y678D01*
X1764Y678D02*
X1771Y678D01*
X1Y677D02*
X8Y677D01*
X286Y677D02*
X292Y677D01*
X304Y677D02*
X312Y677D01*
X331Y677D02*
X338Y677D01*
X1764Y677D02*
X1771Y677D01*
X1Y676D02*
X8Y676D01*
X286Y676D02*
X292Y676D01*
X305Y676D02*
X312Y676D01*
X330Y676D02*
X338Y676D01*
X1764Y676D02*
X1771Y676D01*
X1Y675D02*
X8Y675D01*
X286Y675D02*
X293Y675D01*
X305Y675D02*
X313Y675D01*
X329Y675D02*
X337Y675D01*
X1764Y675D02*
X1771Y675D01*
X1Y674D02*
X8Y674D01*
X286Y674D02*
X293Y674D01*
X306Y674D02*
X314Y674D01*
X328Y674D02*
X337Y674D01*
X1764Y674D02*
X1771Y674D01*
X1Y673D02*
X8Y673D01*
X287Y673D02*
X294Y673D01*
X307Y673D02*
X315Y673D01*
X328Y673D02*
X336Y673D01*
X1764Y673D02*
X1771Y673D01*
X1Y672D02*
X8Y672D01*
X287Y672D02*
X295Y672D01*
X307Y672D02*
X316Y672D01*
X326Y672D02*
X335Y672D01*
X1764Y672D02*
X1771Y672D01*
X1Y671D02*
X8Y671D01*
X288Y671D02*
X336Y671D01*
X1764Y671D02*
X1771Y671D01*
X1Y670D02*
X8Y670D01*
X289Y670D02*
X338Y670D01*
X1764Y670D02*
X1771Y670D01*
X1Y669D02*
X8Y669D01*
X290Y669D02*
X339Y669D01*
X1764Y669D02*
X1771Y669D01*
X1Y668D02*
X8Y668D01*
X290Y668D02*
X339Y668D01*
X1124Y668D02*
X1145Y668D01*
X1170Y668D02*
X1197Y668D01*
X1764Y668D02*
X1771Y668D01*
X1Y667D02*
X8Y667D01*
X291Y667D02*
X339Y667D01*
X1122Y667D02*
X1147Y667D01*
X1169Y667D02*
X1199Y667D01*
X1764Y667D02*
X1771Y667D01*
X1Y666D02*
X8Y666D01*
X293Y666D02*
X338Y666D01*
X1121Y666D02*
X1149Y666D01*
X1169Y666D02*
X1200Y666D01*
X1764Y666D02*
X1771Y666D01*
X1Y665D02*
X8Y665D01*
X294Y665D02*
X338Y665D01*
X1120Y665D02*
X1150Y665D01*
X1168Y665D02*
X1201Y665D01*
X1764Y665D02*
X1771Y665D01*
X1Y664D02*
X8Y664D01*
X1119Y664D02*
X1150Y664D01*
X1169Y664D02*
X1201Y664D01*
X1764Y664D02*
X1771Y664D01*
X1Y663D02*
X8Y663D01*
X1119Y663D02*
X1151Y663D01*
X1169Y663D02*
X1202Y663D01*
X1764Y663D02*
X1771Y663D01*
X1Y662D02*
X8Y662D01*
X1118Y662D02*
X1151Y662D01*
X1170Y662D02*
X1202Y662D01*
X1764Y662D02*
X1771Y662D01*
X1Y661D02*
X8Y661D01*
X1118Y661D02*
X1125Y661D01*
X1145Y661D02*
X1152Y661D01*
X1196Y661D02*
X1202Y661D01*
X1764Y661D02*
X1771Y661D01*
X1Y660D02*
X8Y660D01*
X1118Y660D02*
X1125Y660D01*
X1146Y660D02*
X1152Y660D01*
X1196Y660D02*
X1202Y660D01*
X1764Y660D02*
X1771Y660D01*
X1Y659D02*
X8Y659D01*
X1119Y659D02*
X1125Y659D01*
X1146Y659D02*
X1152Y659D01*
X1196Y659D02*
X1202Y659D01*
X1764Y659D02*
X1771Y659D01*
X1Y658D02*
X8Y658D01*
X1119Y658D02*
X1126Y658D01*
X1146Y658D02*
X1152Y658D01*
X1196Y658D02*
X1202Y658D01*
X1764Y658D02*
X1771Y658D01*
X1Y657D02*
X8Y657D01*
X1119Y657D02*
X1127Y657D01*
X1147Y657D02*
X1151Y657D01*
X1196Y657D02*
X1202Y657D01*
X1764Y657D02*
X1771Y657D01*
X1Y656D02*
X8Y656D01*
X1120Y656D02*
X1128Y656D01*
X1148Y656D02*
X1150Y656D01*
X1196Y656D02*
X1202Y656D01*
X1764Y656D02*
X1771Y656D01*
X1Y655D02*
X8Y655D01*
X1120Y655D02*
X1128Y655D01*
X1196Y655D02*
X1202Y655D01*
X1764Y655D02*
X1771Y655D01*
X1Y654D02*
X8Y654D01*
X1121Y654D02*
X1129Y654D01*
X1196Y654D02*
X1202Y654D01*
X1764Y654D02*
X1771Y654D01*
X1Y653D02*
X8Y653D01*
X1122Y653D02*
X1130Y653D01*
X1196Y653D02*
X1202Y653D01*
X1764Y653D02*
X1771Y653D01*
X1Y652D02*
X8Y652D01*
X1123Y652D02*
X1131Y652D01*
X1196Y652D02*
X1202Y652D01*
X1764Y652D02*
X1771Y652D01*
X1Y651D02*
X8Y651D01*
X1124Y651D02*
X1132Y651D01*
X1196Y651D02*
X1202Y651D01*
X1764Y651D02*
X1771Y651D01*
X1Y650D02*
X8Y650D01*
X1124Y650D02*
X1132Y650D01*
X1196Y650D02*
X1202Y650D01*
X1764Y650D02*
X1771Y650D01*
X1Y649D02*
X8Y649D01*
X1125Y649D02*
X1133Y649D01*
X1196Y649D02*
X1202Y649D01*
X1764Y649D02*
X1771Y649D01*
X1Y648D02*
X8Y648D01*
X1126Y648D02*
X1134Y648D01*
X1196Y648D02*
X1202Y648D01*
X1764Y648D02*
X1771Y648D01*
X1Y647D02*
X8Y647D01*
X1127Y647D02*
X1135Y647D01*
X1196Y647D02*
X1202Y647D01*
X1764Y647D02*
X1771Y647D01*
X1Y646D02*
X8Y646D01*
X1127Y646D02*
X1135Y646D01*
X1196Y646D02*
X1202Y646D01*
X1764Y646D02*
X1771Y646D01*
X1Y645D02*
X8Y645D01*
X1128Y645D02*
X1136Y645D01*
X1196Y645D02*
X1202Y645D01*
X1764Y645D02*
X1771Y645D01*
X1Y644D02*
X8Y644D01*
X1129Y644D02*
X1137Y644D01*
X1172Y644D02*
X1202Y644D01*
X1764Y644D02*
X1771Y644D01*
X1Y643D02*
X8Y643D01*
X1130Y643D02*
X1138Y643D01*
X1171Y643D02*
X1202Y643D01*
X1764Y643D02*
X1771Y643D01*
X1Y642D02*
X8Y642D01*
X1131Y642D02*
X1139Y642D01*
X1170Y642D02*
X1201Y642D01*
X1764Y642D02*
X1771Y642D01*
X1Y641D02*
X8Y641D01*
X1131Y641D02*
X1139Y641D01*
X1169Y641D02*
X1201Y641D01*
X1764Y641D02*
X1771Y641D01*
X1Y640D02*
X8Y640D01*
X1132Y640D02*
X1140Y640D01*
X1169Y640D02*
X1200Y640D01*
X1764Y640D02*
X1771Y640D01*
X1Y639D02*
X8Y639D01*
X1133Y639D02*
X1141Y639D01*
X1168Y639D02*
X1199Y639D01*
X1764Y639D02*
X1771Y639D01*
X1Y638D02*
X8Y638D01*
X1134Y638D02*
X1142Y638D01*
X1168Y638D02*
X1196Y638D01*
X1764Y638D02*
X1771Y638D01*
X1Y637D02*
X8Y637D01*
X1134Y637D02*
X1142Y637D01*
X1168Y637D02*
X1174Y637D01*
X1764Y637D02*
X1771Y637D01*
X1Y636D02*
X8Y636D01*
X1135Y636D02*
X1143Y636D01*
X1168Y636D02*
X1174Y636D01*
X1764Y636D02*
X1771Y636D01*
X1Y635D02*
X8Y635D01*
X1136Y635D02*
X1144Y635D01*
X1168Y635D02*
X1174Y635D01*
X1764Y635D02*
X1771Y635D01*
X1Y634D02*
X8Y634D01*
X1137Y634D02*
X1145Y634D01*
X1168Y634D02*
X1174Y634D01*
X1764Y634D02*
X1771Y634D01*
X1Y633D02*
X8Y633D01*
X1138Y633D02*
X1146Y633D01*
X1168Y633D02*
X1174Y633D01*
X1764Y633D02*
X1771Y633D01*
X1Y632D02*
X8Y632D01*
X1138Y632D02*
X1146Y632D01*
X1168Y632D02*
X1174Y632D01*
X1764Y632D02*
X1771Y632D01*
X1Y631D02*
X8Y631D01*
X1139Y631D02*
X1147Y631D01*
X1168Y631D02*
X1174Y631D01*
X1764Y631D02*
X1771Y631D01*
X1Y630D02*
X8Y630D01*
X1140Y630D02*
X1148Y630D01*
X1168Y630D02*
X1174Y630D01*
X1764Y630D02*
X1771Y630D01*
X1Y629D02*
X8Y629D01*
X1141Y629D02*
X1149Y629D01*
X1168Y629D02*
X1174Y629D01*
X1764Y629D02*
X1771Y629D01*
X1Y628D02*
X8Y628D01*
X1141Y628D02*
X1149Y628D01*
X1168Y628D02*
X1174Y628D01*
X1764Y628D02*
X1771Y628D01*
X1Y627D02*
X8Y627D01*
X1121Y627D02*
X1122Y627D01*
X1142Y627D02*
X1150Y627D01*
X1168Y627D02*
X1174Y627D01*
X1764Y627D02*
X1771Y627D01*
X1Y626D02*
X8Y626D01*
X1119Y626D02*
X1123Y626D01*
X1143Y626D02*
X1151Y626D01*
X1168Y626D02*
X1174Y626D01*
X1764Y626D02*
X1771Y626D01*
X1Y625D02*
X8Y625D01*
X1119Y625D02*
X1124Y625D01*
X1144Y625D02*
X1151Y625D01*
X1168Y625D02*
X1174Y625D01*
X1764Y625D02*
X1771Y625D01*
X1Y624D02*
X8Y624D01*
X1118Y624D02*
X1124Y624D01*
X1145Y624D02*
X1152Y624D01*
X1168Y624D02*
X1174Y624D01*
X1764Y624D02*
X1771Y624D01*
X1Y623D02*
X8Y623D01*
X1118Y623D02*
X1125Y623D01*
X1145Y623D02*
X1152Y623D01*
X1168Y623D02*
X1174Y623D01*
X1764Y623D02*
X1771Y623D01*
X1Y622D02*
X8Y622D01*
X1119Y622D02*
X1125Y622D01*
X1146Y622D02*
X1152Y622D01*
X1168Y622D02*
X1174Y622D01*
X1764Y622D02*
X1771Y622D01*
X1Y621D02*
X8Y621D01*
X1119Y621D02*
X1152Y621D01*
X1168Y621D02*
X1200Y621D01*
X1764Y621D02*
X1771Y621D01*
X1Y620D02*
X8Y620D01*
X1119Y620D02*
X1152Y620D01*
X1168Y620D02*
X1201Y620D01*
X1764Y620D02*
X1771Y620D01*
X1Y619D02*
X8Y619D01*
X1120Y619D02*
X1151Y619D01*
X1168Y619D02*
X1202Y619D01*
X1764Y619D02*
X1771Y619D01*
X1Y618D02*
X8Y618D01*
X1120Y618D02*
X1151Y618D01*
X1168Y618D02*
X1202Y618D01*
X1764Y618D02*
X1771Y618D01*
X1Y617D02*
X8Y617D01*
X1121Y617D02*
X1150Y617D01*
X1168Y617D02*
X1202Y617D01*
X1764Y617D02*
X1771Y617D01*
X1Y616D02*
X8Y616D01*
X1122Y616D02*
X1149Y616D01*
X1168Y616D02*
X1201Y616D01*
X1764Y616D02*
X1771Y616D01*
X1Y615D02*
X8Y615D01*
X1124Y615D02*
X1147Y615D01*
X1168Y615D02*
X1200Y615D01*
X1764Y615D02*
X1771Y615D01*
X1Y614D02*
X8Y614D01*
X1764Y614D02*
X1771Y614D01*
X1Y613D02*
X8Y613D01*
X1764Y613D02*
X1771Y613D01*
X1Y612D02*
X8Y612D01*
X1764Y612D02*
X1771Y612D01*
X1Y611D02*
X8Y611D01*
X1764Y611D02*
X1771Y611D01*
X1Y610D02*
X8Y610D01*
X1764Y610D02*
X1771Y610D01*
X1Y609D02*
X8Y609D01*
X1764Y609D02*
X1771Y609D01*
X1Y608D02*
X8Y608D01*
X1764Y608D02*
X1771Y608D01*
X1Y607D02*
X8Y607D01*
X1764Y607D02*
X1771Y607D01*
X1Y606D02*
X8Y606D01*
X1764Y606D02*
X1771Y606D01*
X1Y605D02*
X8Y605D01*
X1764Y605D02*
X1771Y605D01*
X1Y604D02*
X8Y604D01*
X1764Y604D02*
X1771Y604D01*
X1Y603D02*
X8Y603D01*
X1764Y603D02*
X1771Y603D01*
X1Y602D02*
X8Y602D01*
X1764Y602D02*
X1771Y602D01*
X1Y601D02*
X8Y601D01*
X1764Y601D02*
X1771Y601D01*
X1Y600D02*
X8Y600D01*
X1764Y600D02*
X1771Y600D01*
X1Y599D02*
X8Y599D01*
X1764Y599D02*
X1771Y599D01*
X1Y598D02*
X8Y598D01*
X1764Y598D02*
X1771Y598D01*
X1Y597D02*
X8Y597D01*
X1764Y597D02*
X1771Y597D01*
X1Y596D02*
X8Y596D01*
X1764Y596D02*
X1771Y596D01*
X1Y595D02*
X8Y595D01*
X1764Y595D02*
X1771Y595D01*
X1Y594D02*
X8Y594D01*
X1764Y594D02*
X1771Y594D01*
X1Y593D02*
X8Y593D01*
X1764Y593D02*
X1771Y593D01*
X1Y592D02*
X8Y592D01*
X1764Y592D02*
X1771Y592D01*
X1Y591D02*
X8Y591D01*
X1764Y591D02*
X1771Y591D01*
X1Y590D02*
X8Y590D01*
X1764Y590D02*
X1771Y590D01*
X1Y589D02*
X8Y589D01*
X1764Y589D02*
X1771Y589D01*
X1Y588D02*
X8Y588D01*
X1764Y588D02*
X1771Y588D01*
X1Y587D02*
X8Y587D01*
X1764Y587D02*
X1771Y587D01*
X1Y586D02*
X8Y586D01*
X1764Y586D02*
X1771Y586D01*
X1Y585D02*
X8Y585D01*
X1764Y585D02*
X1771Y585D01*
X1Y584D02*
X8Y584D01*
X1764Y584D02*
X1771Y584D01*
X1Y583D02*
X8Y583D01*
X1764Y583D02*
X1771Y583D01*
X1Y582D02*
X8Y582D01*
X1764Y582D02*
X1771Y582D01*
X1Y581D02*
X8Y581D01*
X1764Y581D02*
X1771Y581D01*
X1Y580D02*
X8Y580D01*
X1764Y580D02*
X1771Y580D01*
X1Y579D02*
X8Y579D01*
X1764Y579D02*
X1771Y579D01*
X1Y578D02*
X8Y578D01*
X1764Y578D02*
X1771Y578D01*
X1Y577D02*
X8Y577D01*
X1764Y577D02*
X1771Y577D01*
X1Y576D02*
X8Y576D01*
X1764Y576D02*
X1771Y576D01*
X1Y575D02*
X8Y575D01*
X1764Y575D02*
X1771Y575D01*
X1Y574D02*
X8Y574D01*
X1764Y574D02*
X1771Y574D01*
X1Y573D02*
X8Y573D01*
X1764Y573D02*
X1771Y573D01*
X1Y572D02*
X8Y572D01*
X1764Y572D02*
X1771Y572D01*
X1Y571D02*
X8Y571D01*
X1495Y571D02*
X1496Y571D01*
X1543Y571D02*
X1573Y571D01*
X1595Y571D02*
X1610Y571D01*
X1645Y571D02*
X1670Y571D01*
X1764Y571D02*
X1771Y571D01*
X1Y570D02*
X8Y570D01*
X1493Y570D02*
X1497Y570D01*
X1542Y570D02*
X1575Y570D01*
X1593Y570D02*
X1612Y570D01*
X1643Y570D02*
X1673Y570D01*
X1764Y570D02*
X1771Y570D01*
X1Y569D02*
X8Y569D01*
X1493Y569D02*
X1498Y569D01*
X1542Y569D02*
X1576Y569D01*
X1593Y569D02*
X1614Y569D01*
X1643Y569D02*
X1674Y569D01*
X1764Y569D02*
X1771Y569D01*
X1Y568D02*
X8Y568D01*
X1492Y568D02*
X1498Y568D01*
X1542Y568D02*
X1576Y568D01*
X1592Y568D02*
X1615Y568D01*
X1642Y568D02*
X1675Y568D01*
X1764Y568D02*
X1771Y568D01*
X1Y567D02*
X8Y567D01*
X1492Y567D02*
X1498Y567D01*
X1542Y567D02*
X1576Y567D01*
X1592Y567D02*
X1616Y567D01*
X1642Y567D02*
X1675Y567D01*
X1764Y567D02*
X1771Y567D01*
X1Y566D02*
X8Y566D01*
X1492Y566D02*
X1498Y566D01*
X1542Y566D02*
X1575Y566D01*
X1593Y566D02*
X1617Y566D01*
X1643Y566D02*
X1676Y566D01*
X1764Y566D02*
X1771Y566D01*
X1Y565D02*
X8Y565D01*
X1492Y565D02*
X1498Y565D01*
X1542Y565D02*
X1575Y565D01*
X1594Y565D02*
X1617Y565D01*
X1644Y565D02*
X1676Y565D01*
X1764Y565D02*
X1771Y565D01*
X1Y564D02*
X8Y564D01*
X1492Y564D02*
X1498Y564D01*
X1542Y564D02*
X1549Y564D01*
X1599Y564D02*
X1606Y564D01*
X1610Y564D02*
X1618Y564D01*
X1670Y564D02*
X1676Y564D01*
X1764Y564D02*
X1771Y564D01*
X1Y563D02*
X8Y563D01*
X1492Y563D02*
X1498Y563D01*
X1542Y563D02*
X1548Y563D01*
X1599Y563D02*
X1605Y563D01*
X1611Y563D02*
X1618Y563D01*
X1670Y563D02*
X1676Y563D01*
X1764Y563D02*
X1771Y563D01*
X1Y562D02*
X8Y562D01*
X1492Y562D02*
X1498Y562D01*
X1542Y562D02*
X1548Y562D01*
X1599Y562D02*
X1605Y562D01*
X1612Y562D02*
X1619Y562D01*
X1670Y562D02*
X1676Y562D01*
X1764Y562D02*
X1771Y562D01*
X1Y561D02*
X8Y561D01*
X1492Y561D02*
X1498Y561D01*
X1542Y561D02*
X1548Y561D01*
X1599Y561D02*
X1605Y561D01*
X1612Y561D02*
X1619Y561D01*
X1670Y561D02*
X1676Y561D01*
X1764Y561D02*
X1771Y561D01*
X1Y560D02*
X8Y560D01*
X1492Y560D02*
X1498Y560D01*
X1542Y560D02*
X1548Y560D01*
X1599Y560D02*
X1605Y560D01*
X1613Y560D02*
X1620Y560D01*
X1670Y560D02*
X1676Y560D01*
X1764Y560D02*
X1771Y560D01*
X1Y559D02*
X8Y559D01*
X1492Y559D02*
X1498Y559D01*
X1542Y559D02*
X1548Y559D01*
X1599Y559D02*
X1605Y559D01*
X1613Y559D02*
X1620Y559D01*
X1670Y559D02*
X1676Y559D01*
X1764Y559D02*
X1771Y559D01*
X1Y558D02*
X8Y558D01*
X1492Y558D02*
X1498Y558D01*
X1542Y558D02*
X1548Y558D01*
X1599Y558D02*
X1605Y558D01*
X1614Y558D02*
X1621Y558D01*
X1670Y558D02*
X1676Y558D01*
X1764Y558D02*
X1771Y558D01*
X1Y557D02*
X8Y557D01*
X1492Y557D02*
X1498Y557D01*
X1542Y557D02*
X1548Y557D01*
X1599Y557D02*
X1605Y557D01*
X1614Y557D02*
X1621Y557D01*
X1670Y557D02*
X1676Y557D01*
X1764Y557D02*
X1771Y557D01*
X1Y556D02*
X8Y556D01*
X1492Y556D02*
X1498Y556D01*
X1542Y556D02*
X1548Y556D01*
X1599Y556D02*
X1605Y556D01*
X1615Y556D02*
X1622Y556D01*
X1670Y556D02*
X1676Y556D01*
X1764Y556D02*
X1771Y556D01*
X1Y555D02*
X8Y555D01*
X1492Y555D02*
X1498Y555D01*
X1542Y555D02*
X1548Y555D01*
X1599Y555D02*
X1605Y555D01*
X1615Y555D02*
X1622Y555D01*
X1670Y555D02*
X1676Y555D01*
X1764Y555D02*
X1771Y555D01*
X1Y554D02*
X8Y554D01*
X1492Y554D02*
X1498Y554D01*
X1542Y554D02*
X1548Y554D01*
X1599Y554D02*
X1605Y554D01*
X1616Y554D02*
X1623Y554D01*
X1670Y554D02*
X1676Y554D01*
X1764Y554D02*
X1771Y554D01*
X1Y553D02*
X8Y553D01*
X1492Y553D02*
X1498Y553D01*
X1542Y553D02*
X1548Y553D01*
X1599Y553D02*
X1605Y553D01*
X1616Y553D02*
X1623Y553D01*
X1670Y553D02*
X1676Y553D01*
X1764Y553D02*
X1771Y553D01*
X1Y552D02*
X8Y552D01*
X1492Y552D02*
X1498Y552D01*
X1542Y552D02*
X1548Y552D01*
X1599Y552D02*
X1605Y552D01*
X1617Y552D02*
X1624Y552D01*
X1670Y552D02*
X1676Y552D01*
X1764Y552D02*
X1771Y552D01*
X1Y551D02*
X8Y551D01*
X1492Y551D02*
X1498Y551D01*
X1542Y551D02*
X1548Y551D01*
X1599Y551D02*
X1605Y551D01*
X1617Y551D02*
X1624Y551D01*
X1670Y551D02*
X1676Y551D01*
X1764Y551D02*
X1771Y551D01*
X1Y550D02*
X8Y550D01*
X1492Y550D02*
X1498Y550D01*
X1542Y550D02*
X1548Y550D01*
X1599Y550D02*
X1605Y550D01*
X1618Y550D02*
X1625Y550D01*
X1670Y550D02*
X1676Y550D01*
X1764Y550D02*
X1771Y550D01*
X1Y549D02*
X8Y549D01*
X1492Y549D02*
X1498Y549D01*
X1542Y549D02*
X1548Y549D01*
X1599Y549D02*
X1605Y549D01*
X1619Y549D02*
X1625Y549D01*
X1670Y549D02*
X1676Y549D01*
X1764Y549D02*
X1771Y549D01*
X1Y548D02*
X8Y548D01*
X1492Y548D02*
X1498Y548D01*
X1542Y548D02*
X1548Y548D01*
X1599Y548D02*
X1605Y548D01*
X1619Y548D02*
X1625Y548D01*
X1670Y548D02*
X1676Y548D01*
X1764Y548D02*
X1771Y548D01*
X1Y547D02*
X8Y547D01*
X1492Y547D02*
X1498Y547D01*
X1542Y547D02*
X1561Y547D01*
X1599Y547D02*
X1605Y547D01*
X1619Y547D02*
X1626Y547D01*
X1647Y547D02*
X1676Y547D01*
X1764Y547D02*
X1771Y547D01*
X1Y546D02*
X8Y546D01*
X1492Y546D02*
X1498Y546D01*
X1542Y546D02*
X1562Y546D01*
X1599Y546D02*
X1605Y546D01*
X1620Y546D02*
X1626Y546D01*
X1645Y546D02*
X1676Y546D01*
X1764Y546D02*
X1771Y546D01*
X1Y545D02*
X8Y545D01*
X1492Y545D02*
X1498Y545D01*
X1542Y545D02*
X1562Y545D01*
X1599Y545D02*
X1605Y545D01*
X1620Y545D02*
X1626Y545D01*
X1644Y545D02*
X1675Y545D01*
X1764Y545D02*
X1771Y545D01*
X1Y544D02*
X8Y544D01*
X1492Y544D02*
X1498Y544D01*
X1542Y544D02*
X1562Y544D01*
X1599Y544D02*
X1605Y544D01*
X1620Y544D02*
X1626Y544D01*
X1643Y544D02*
X1675Y544D01*
X1764Y544D02*
X1771Y544D01*
X1Y543D02*
X8Y543D01*
X1492Y543D02*
X1498Y543D01*
X1542Y543D02*
X1562Y543D01*
X1599Y543D02*
X1605Y543D01*
X1620Y543D02*
X1626Y543D01*
X1643Y543D02*
X1674Y543D01*
X1764Y543D02*
X1771Y543D01*
X1Y542D02*
X8Y542D01*
X1492Y542D02*
X1498Y542D01*
X1542Y542D02*
X1561Y542D01*
X1599Y542D02*
X1605Y542D01*
X1620Y542D02*
X1626Y542D01*
X1643Y542D02*
X1673Y542D01*
X1764Y542D02*
X1771Y542D01*
X1Y541D02*
X8Y541D01*
X1492Y541D02*
X1498Y541D01*
X1542Y541D02*
X1560Y541D01*
X1599Y541D02*
X1605Y541D01*
X1619Y541D02*
X1626Y541D01*
X1642Y541D02*
X1671Y541D01*
X1764Y541D02*
X1771Y541D01*
X1Y540D02*
X8Y540D01*
X1492Y540D02*
X1498Y540D01*
X1542Y540D02*
X1548Y540D01*
X1599Y540D02*
X1605Y540D01*
X1619Y540D02*
X1625Y540D01*
X1642Y540D02*
X1648Y540D01*
X1764Y540D02*
X1771Y540D01*
X1Y539D02*
X8Y539D01*
X1492Y539D02*
X1498Y539D01*
X1542Y539D02*
X1548Y539D01*
X1599Y539D02*
X1605Y539D01*
X1618Y539D02*
X1625Y539D01*
X1642Y539D02*
X1648Y539D01*
X1764Y539D02*
X1771Y539D01*
X1Y538D02*
X8Y538D01*
X1492Y538D02*
X1498Y538D01*
X1542Y538D02*
X1548Y538D01*
X1599Y538D02*
X1605Y538D01*
X1618Y538D02*
X1625Y538D01*
X1642Y538D02*
X1648Y538D01*
X1764Y538D02*
X1771Y538D01*
X1Y537D02*
X8Y537D01*
X1492Y537D02*
X1498Y537D01*
X1542Y537D02*
X1548Y537D01*
X1599Y537D02*
X1605Y537D01*
X1617Y537D02*
X1624Y537D01*
X1642Y537D02*
X1648Y537D01*
X1764Y537D02*
X1771Y537D01*
X1Y536D02*
X8Y536D01*
X1492Y536D02*
X1498Y536D01*
X1542Y536D02*
X1548Y536D01*
X1599Y536D02*
X1605Y536D01*
X1617Y536D02*
X1624Y536D01*
X1642Y536D02*
X1648Y536D01*
X1764Y536D02*
X1771Y536D01*
X1Y535D02*
X8Y535D01*
X1492Y535D02*
X1498Y535D01*
X1542Y535D02*
X1548Y535D01*
X1599Y535D02*
X1605Y535D01*
X1616Y535D02*
X1623Y535D01*
X1642Y535D02*
X1648Y535D01*
X1764Y535D02*
X1771Y535D01*
X1Y534D02*
X8Y534D01*
X1492Y534D02*
X1498Y534D01*
X1542Y534D02*
X1548Y534D01*
X1599Y534D02*
X1605Y534D01*
X1616Y534D02*
X1623Y534D01*
X1642Y534D02*
X1648Y534D01*
X1764Y534D02*
X1771Y534D01*
X1Y533D02*
X8Y533D01*
X1492Y533D02*
X1498Y533D01*
X1542Y533D02*
X1548Y533D01*
X1599Y533D02*
X1605Y533D01*
X1615Y533D02*
X1622Y533D01*
X1642Y533D02*
X1648Y533D01*
X1764Y533D02*
X1771Y533D01*
X1Y532D02*
X8Y532D01*
X1492Y532D02*
X1498Y532D01*
X1542Y532D02*
X1548Y532D01*
X1599Y532D02*
X1605Y532D01*
X1615Y532D02*
X1622Y532D01*
X1642Y532D02*
X1648Y532D01*
X1764Y532D02*
X1771Y532D01*
X1Y531D02*
X8Y531D01*
X1492Y531D02*
X1498Y531D01*
X1542Y531D02*
X1548Y531D01*
X1599Y531D02*
X1605Y531D01*
X1614Y531D02*
X1621Y531D01*
X1642Y531D02*
X1648Y531D01*
X1764Y531D02*
X1771Y531D01*
X1Y530D02*
X8Y530D01*
X1492Y530D02*
X1498Y530D01*
X1542Y530D02*
X1548Y530D01*
X1599Y530D02*
X1605Y530D01*
X1614Y530D02*
X1621Y530D01*
X1642Y530D02*
X1648Y530D01*
X1764Y530D02*
X1771Y530D01*
X1Y529D02*
X8Y529D01*
X1492Y529D02*
X1498Y529D01*
X1542Y529D02*
X1548Y529D01*
X1599Y529D02*
X1605Y529D01*
X1613Y529D02*
X1620Y529D01*
X1642Y529D02*
X1648Y529D01*
X1764Y529D02*
X1771Y529D01*
X1Y528D02*
X8Y528D01*
X1492Y528D02*
X1498Y528D01*
X1542Y528D02*
X1548Y528D01*
X1599Y528D02*
X1605Y528D01*
X1613Y528D02*
X1620Y528D01*
X1642Y528D02*
X1648Y528D01*
X1764Y528D02*
X1771Y528D01*
X1Y527D02*
X8Y527D01*
X1492Y527D02*
X1498Y527D01*
X1542Y527D02*
X1548Y527D01*
X1599Y527D02*
X1605Y527D01*
X1612Y527D02*
X1619Y527D01*
X1642Y527D02*
X1648Y527D01*
X1764Y527D02*
X1771Y527D01*
X1Y526D02*
X8Y526D01*
X1492Y526D02*
X1498Y526D01*
X1542Y526D02*
X1548Y526D01*
X1599Y526D02*
X1605Y526D01*
X1612Y526D02*
X1619Y526D01*
X1642Y526D02*
X1648Y526D01*
X1764Y526D02*
X1771Y526D01*
X1Y525D02*
X8Y525D01*
X1492Y525D02*
X1498Y525D01*
X1542Y525D02*
X1548Y525D01*
X1599Y525D02*
X1605Y525D01*
X1611Y525D02*
X1618Y525D01*
X1642Y525D02*
X1648Y525D01*
X1764Y525D02*
X1771Y525D01*
X1Y524D02*
X8Y524D01*
X1492Y524D02*
X1523Y524D01*
X1542Y524D02*
X1573Y524D01*
X1596Y524D02*
X1618Y524D01*
X1642Y524D02*
X1672Y524D01*
X1764Y524D02*
X1771Y524D01*
X1Y523D02*
X8Y523D01*
X1492Y523D02*
X1525Y523D01*
X1542Y523D02*
X1575Y523D01*
X1593Y523D02*
X1617Y523D01*
X1642Y523D02*
X1675Y523D01*
X1764Y523D02*
X1771Y523D01*
X1Y522D02*
X8Y522D01*
X1492Y522D02*
X1526Y522D01*
X1542Y522D02*
X1576Y522D01*
X1593Y522D02*
X1617Y522D01*
X1642Y522D02*
X1676Y522D01*
X1764Y522D02*
X1771Y522D01*
X1Y521D02*
X8Y521D01*
X1492Y521D02*
X1526Y521D01*
X1542Y521D02*
X1576Y521D01*
X1592Y521D02*
X1616Y521D01*
X1642Y521D02*
X1676Y521D01*
X1764Y521D02*
X1771Y521D01*
X1Y520D02*
X8Y520D01*
X1492Y520D02*
X1526Y520D01*
X1542Y520D02*
X1576Y520D01*
X1592Y520D02*
X1615Y520D01*
X1642Y520D02*
X1676Y520D01*
X1764Y520D02*
X1771Y520D01*
X1Y519D02*
X8Y519D01*
X1492Y519D02*
X1526Y519D01*
X1542Y519D02*
X1576Y519D01*
X1593Y519D02*
X1614Y519D01*
X1642Y519D02*
X1676Y519D01*
X1764Y519D02*
X1771Y519D01*
X1Y518D02*
X8Y518D01*
X1492Y518D02*
X1525Y518D01*
X1542Y518D02*
X1575Y518D01*
X1594Y518D02*
X1612Y518D01*
X1642Y518D02*
X1675Y518D01*
X1764Y518D02*
X1771Y518D01*
X1Y517D02*
X8Y517D01*
X1764Y517D02*
X1771Y517D01*
X1Y516D02*
X8Y516D01*
X1764Y516D02*
X1771Y516D01*
X1Y515D02*
X8Y515D01*
X1764Y515D02*
X1771Y515D01*
X1Y514D02*
X8Y514D01*
X1764Y514D02*
X1771Y514D01*
X1Y513D02*
X8Y513D01*
X1764Y513D02*
X1771Y513D01*
X1Y512D02*
X8Y512D01*
X1764Y512D02*
X1771Y512D01*
X1Y511D02*
X8Y511D01*
X1764Y511D02*
X1771Y511D01*
X1Y510D02*
X8Y510D01*
X1764Y510D02*
X1771Y510D01*
X1Y509D02*
X8Y509D01*
X1764Y509D02*
X1771Y509D01*
X1Y508D02*
X8Y508D01*
X1764Y508D02*
X1771Y508D01*
X1Y507D02*
X8Y507D01*
X1764Y507D02*
X1771Y507D01*
X1Y506D02*
X8Y506D01*
X1764Y506D02*
X1771Y506D01*
X1Y505D02*
X8Y505D01*
X1764Y505D02*
X1771Y505D01*
X1Y504D02*
X8Y504D01*
X1764Y504D02*
X1771Y504D01*
X1Y503D02*
X8Y503D01*
X1764Y503D02*
X1771Y503D01*
X1Y502D02*
X8Y502D01*
X1764Y502D02*
X1771Y502D01*
X1Y501D02*
X8Y501D01*
X1764Y501D02*
X1771Y501D01*
X1Y500D02*
X8Y500D01*
X1764Y500D02*
X1771Y500D01*
X1Y499D02*
X8Y499D01*
X1764Y499D02*
X1771Y499D01*
X1Y498D02*
X8Y498D01*
X1764Y498D02*
X1771Y498D01*
X1Y497D02*
X8Y497D01*
X1764Y497D02*
X1771Y497D01*
X1Y496D02*
X8Y496D01*
X1618Y496D02*
X1620Y496D01*
X1764Y496D02*
X1771Y496D01*
X1Y495D02*
X8Y495D01*
X1540Y495D02*
X1542Y495D01*
X1618Y495D02*
X1621Y495D01*
X1764Y495D02*
X1771Y495D01*
X1Y494D02*
X8Y494D01*
X1538Y494D02*
X1543Y494D01*
X1618Y494D02*
X1623Y494D01*
X1764Y494D02*
X1771Y494D01*
X1Y493D02*
X8Y493D01*
X1537Y493D02*
X1543Y493D01*
X1618Y493D02*
X1624Y493D01*
X1764Y493D02*
X1771Y493D01*
X1Y492D02*
X8Y492D01*
X1535Y492D02*
X1543Y492D01*
X1618Y492D02*
X1626Y492D01*
X1764Y492D02*
X1771Y492D01*
X1Y491D02*
X8Y491D01*
X1534Y491D02*
X1542Y491D01*
X1619Y491D02*
X1627Y491D01*
X1764Y491D02*
X1771Y491D01*
X1Y490D02*
X8Y490D01*
X1533Y490D02*
X1541Y490D01*
X1621Y490D02*
X1628Y490D01*
X1764Y490D02*
X1771Y490D01*
X1Y489D02*
X8Y489D01*
X1531Y489D02*
X1539Y489D01*
X1622Y489D02*
X1630Y489D01*
X1764Y489D02*
X1771Y489D01*
X1Y488D02*
X8Y488D01*
X1530Y488D02*
X1538Y488D01*
X1624Y488D02*
X1631Y488D01*
X1764Y488D02*
X1771Y488D01*
X1Y487D02*
X8Y487D01*
X1529Y487D02*
X1536Y487D01*
X1625Y487D02*
X1632Y487D01*
X1764Y487D02*
X1771Y487D01*
X1Y486D02*
X8Y486D01*
X1528Y486D02*
X1535Y486D01*
X1626Y486D02*
X1633Y486D01*
X1764Y486D02*
X1771Y486D01*
X1Y485D02*
X8Y485D01*
X1527Y485D02*
X1534Y485D01*
X1627Y485D02*
X1634Y485D01*
X1764Y485D02*
X1771Y485D01*
X1Y484D02*
X8Y484D01*
X1526Y484D02*
X1532Y484D01*
X1629Y484D02*
X1635Y484D01*
X1764Y484D02*
X1771Y484D01*
X1Y483D02*
X8Y483D01*
X1525Y483D02*
X1531Y483D01*
X1630Y483D02*
X1636Y483D01*
X1764Y483D02*
X1771Y483D01*
X1Y482D02*
X8Y482D01*
X1524Y482D02*
X1530Y482D01*
X1631Y482D02*
X1637Y482D01*
X1764Y482D02*
X1771Y482D01*
X1Y481D02*
X8Y481D01*
X1523Y481D02*
X1529Y481D01*
X1632Y481D02*
X1638Y481D01*
X1764Y481D02*
X1771Y481D01*
X1Y480D02*
X8Y480D01*
X1522Y480D02*
X1528Y480D01*
X1633Y480D02*
X1639Y480D01*
X1764Y480D02*
X1771Y480D01*
X1Y479D02*
X8Y479D01*
X1521Y479D02*
X1527Y479D01*
X1634Y479D02*
X1640Y479D01*
X1764Y479D02*
X1771Y479D01*
X1Y478D02*
X8Y478D01*
X1520Y478D02*
X1526Y478D01*
X1635Y478D02*
X1641Y478D01*
X1764Y478D02*
X1771Y478D01*
X1Y477D02*
X8Y477D01*
X1519Y477D02*
X1525Y477D01*
X1636Y477D02*
X1642Y477D01*
X1764Y477D02*
X1771Y477D01*
X1Y476D02*
X8Y476D01*
X1519Y476D02*
X1524Y476D01*
X1637Y476D02*
X1642Y476D01*
X1764Y476D02*
X1771Y476D01*
X1Y475D02*
X8Y475D01*
X1518Y475D02*
X1523Y475D01*
X1638Y475D02*
X1643Y475D01*
X1764Y475D02*
X1771Y475D01*
X1Y474D02*
X8Y474D01*
X1517Y474D02*
X1523Y474D01*
X1639Y474D02*
X1644Y474D01*
X1764Y474D02*
X1771Y474D01*
X1Y473D02*
X8Y473D01*
X1516Y473D02*
X1522Y473D01*
X1639Y473D02*
X1645Y473D01*
X1764Y473D02*
X1771Y473D01*
X1Y472D02*
X8Y472D01*
X1516Y472D02*
X1521Y472D01*
X1640Y472D02*
X1645Y472D01*
X1764Y472D02*
X1771Y472D01*
X1Y471D02*
X8Y471D01*
X1515Y471D02*
X1520Y471D01*
X1641Y471D02*
X1646Y471D01*
X1764Y471D02*
X1771Y471D01*
X1Y470D02*
X8Y470D01*
X1514Y470D02*
X1520Y470D01*
X1642Y470D02*
X1647Y470D01*
X1764Y470D02*
X1771Y470D01*
X1Y469D02*
X8Y469D01*
X1514Y469D02*
X1519Y469D01*
X1642Y469D02*
X1647Y469D01*
X1764Y469D02*
X1771Y469D01*
X1Y468D02*
X8Y468D01*
X1513Y468D02*
X1518Y468D01*
X1643Y468D02*
X1648Y468D01*
X1764Y468D02*
X1771Y468D01*
X1Y467D02*
X8Y467D01*
X1513Y467D02*
X1517Y467D01*
X1644Y467D02*
X1649Y467D01*
X1764Y467D02*
X1771Y467D01*
X1Y466D02*
X8Y466D01*
X1512Y466D02*
X1517Y466D01*
X1644Y466D02*
X1649Y466D01*
X1764Y466D02*
X1771Y466D01*
X1Y465D02*
X8Y465D01*
X1511Y465D02*
X1516Y465D01*
X1645Y465D02*
X1650Y465D01*
X1764Y465D02*
X1771Y465D01*
X1Y464D02*
X8Y464D01*
X1511Y464D02*
X1516Y464D01*
X1646Y464D02*
X1650Y464D01*
X1764Y464D02*
X1771Y464D01*
X1Y463D02*
X8Y463D01*
X1510Y463D02*
X1515Y463D01*
X1646Y463D02*
X1651Y463D01*
X1764Y463D02*
X1771Y463D01*
X1Y462D02*
X8Y462D01*
X1510Y462D02*
X1515Y462D01*
X1647Y462D02*
X1651Y462D01*
X1764Y462D02*
X1771Y462D01*
X1Y461D02*
X8Y461D01*
X1509Y461D02*
X1514Y461D01*
X1647Y461D02*
X1652Y461D01*
X1764Y461D02*
X1771Y461D01*
X1Y460D02*
X8Y460D01*
X1509Y460D02*
X1514Y460D01*
X1648Y460D02*
X1652Y460D01*
X1764Y460D02*
X1771Y460D01*
X1Y459D02*
X8Y459D01*
X1509Y459D02*
X1513Y459D01*
X1648Y459D02*
X1653Y459D01*
X1764Y459D02*
X1771Y459D01*
X1Y458D02*
X8Y458D01*
X1508Y458D02*
X1513Y458D01*
X1649Y458D02*
X1653Y458D01*
X1764Y458D02*
X1771Y458D01*
X1Y457D02*
X8Y457D01*
X1508Y457D02*
X1512Y457D01*
X1649Y457D02*
X1653Y457D01*
X1764Y457D02*
X1771Y457D01*
X1Y456D02*
X8Y456D01*
X1507Y456D02*
X1512Y456D01*
X1650Y456D02*
X1654Y456D01*
X1764Y456D02*
X1771Y456D01*
X1Y455D02*
X8Y455D01*
X1507Y455D02*
X1511Y455D01*
X1650Y455D02*
X1654Y455D01*
X1764Y455D02*
X1771Y455D01*
X1Y454D02*
X8Y454D01*
X1506Y454D02*
X1511Y454D01*
X1650Y454D02*
X1655Y454D01*
X1764Y454D02*
X1771Y454D01*
X1Y453D02*
X8Y453D01*
X1506Y453D02*
X1510Y453D01*
X1651Y453D02*
X1655Y453D01*
X1764Y453D02*
X1771Y453D01*
X1Y452D02*
X8Y452D01*
X1506Y452D02*
X1510Y452D01*
X1651Y452D02*
X1655Y452D01*
X1764Y452D02*
X1771Y452D01*
X1Y451D02*
X8Y451D01*
X1506Y451D02*
X1510Y451D01*
X1652Y451D02*
X1656Y451D01*
X1764Y451D02*
X1771Y451D01*
X1Y450D02*
X8Y450D01*
X1505Y450D02*
X1509Y450D01*
X1652Y450D02*
X1656Y450D01*
X1764Y450D02*
X1771Y450D01*
X1Y449D02*
X8Y449D01*
X1505Y449D02*
X1509Y449D01*
X1652Y449D02*
X1656Y449D01*
X1764Y449D02*
X1771Y449D01*
X1Y448D02*
X8Y448D01*
X1505Y448D02*
X1509Y448D01*
X1652Y448D02*
X1656Y448D01*
X1764Y448D02*
X1771Y448D01*
X1Y447D02*
X8Y447D01*
X1504Y447D02*
X1509Y447D01*
X1653Y447D02*
X1657Y447D01*
X1764Y447D02*
X1771Y447D01*
X1Y446D02*
X8Y446D01*
X1504Y446D02*
X1508Y446D01*
X1653Y446D02*
X1657Y446D01*
X1764Y446D02*
X1771Y446D01*
X1Y445D02*
X8Y445D01*
X1504Y445D02*
X1508Y445D01*
X1653Y445D02*
X1657Y445D01*
X1764Y445D02*
X1771Y445D01*
X1Y444D02*
X8Y444D01*
X1504Y444D02*
X1508Y444D01*
X1654Y444D02*
X1657Y444D01*
X1764Y444D02*
X1771Y444D01*
X1Y443D02*
X8Y443D01*
X1504Y443D02*
X1508Y443D01*
X1654Y443D02*
X1658Y443D01*
X1764Y443D02*
X1771Y443D01*
X1Y442D02*
X8Y442D01*
X1503Y442D02*
X1507Y442D01*
X1654Y442D02*
X1658Y442D01*
X1764Y442D02*
X1771Y442D01*
X1Y441D02*
X8Y441D01*
X1503Y441D02*
X1507Y441D01*
X1654Y441D02*
X1658Y441D01*
X1764Y441D02*
X1771Y441D01*
X1Y440D02*
X8Y440D01*
X1503Y440D02*
X1507Y440D01*
X1654Y440D02*
X1658Y440D01*
X1764Y440D02*
X1771Y440D01*
X1Y439D02*
X8Y439D01*
X1503Y439D02*
X1507Y439D01*
X1654Y439D02*
X1658Y439D01*
X1764Y439D02*
X1771Y439D01*
X1Y438D02*
X8Y438D01*
X1503Y438D02*
X1507Y438D01*
X1655Y438D02*
X1658Y438D01*
X1764Y438D02*
X1771Y438D01*
X1Y437D02*
X8Y437D01*
X1503Y437D02*
X1506Y437D01*
X1655Y437D02*
X1659Y437D01*
X1764Y437D02*
X1771Y437D01*
X1Y436D02*
X8Y436D01*
X1502Y436D02*
X1506Y436D01*
X1655Y436D02*
X1659Y436D01*
X1764Y436D02*
X1771Y436D01*
X1Y435D02*
X8Y435D01*
X1502Y435D02*
X1506Y435D01*
X1655Y435D02*
X1659Y435D01*
X1764Y435D02*
X1771Y435D01*
X1Y434D02*
X8Y434D01*
X1502Y434D02*
X1506Y434D01*
X1655Y434D02*
X1659Y434D01*
X1764Y434D02*
X1771Y434D01*
X1Y433D02*
X8Y433D01*
X1502Y433D02*
X1506Y433D01*
X1655Y433D02*
X1659Y433D01*
X1764Y433D02*
X1771Y433D01*
X1Y432D02*
X8Y432D01*
X1502Y432D02*
X1506Y432D01*
X1655Y432D02*
X1659Y432D01*
X1764Y432D02*
X1771Y432D01*
X1Y431D02*
X8Y431D01*
X1502Y431D02*
X1506Y431D01*
X1655Y431D02*
X1659Y431D01*
X1764Y431D02*
X1771Y431D01*
X1Y430D02*
X8Y430D01*
X1502Y430D02*
X1506Y430D01*
X1655Y430D02*
X1659Y430D01*
X1764Y430D02*
X1771Y430D01*
X1Y429D02*
X8Y429D01*
X1502Y429D02*
X1506Y429D01*
X1655Y429D02*
X1659Y429D01*
X1764Y429D02*
X1771Y429D01*
X1Y428D02*
X8Y428D01*
X1502Y428D02*
X1506Y428D01*
X1655Y428D02*
X1659Y428D01*
X1764Y428D02*
X1771Y428D01*
X1Y427D02*
X8Y427D01*
X1502Y427D02*
X1506Y427D01*
X1655Y427D02*
X1659Y427D01*
X1764Y427D02*
X1771Y427D01*
X1Y426D02*
X8Y426D01*
X1502Y426D02*
X1506Y426D01*
X1655Y426D02*
X1659Y426D01*
X1764Y426D02*
X1771Y426D01*
X1Y425D02*
X8Y425D01*
X1502Y425D02*
X1506Y425D01*
X1655Y425D02*
X1659Y425D01*
X1764Y425D02*
X1771Y425D01*
X1Y424D02*
X8Y424D01*
X1502Y424D02*
X1506Y424D01*
X1655Y424D02*
X1659Y424D01*
X1764Y424D02*
X1771Y424D01*
X1Y423D02*
X8Y423D01*
X1502Y423D02*
X1506Y423D01*
X1655Y423D02*
X1659Y423D01*
X1764Y423D02*
X1771Y423D01*
X1Y422D02*
X8Y422D01*
X1502Y422D02*
X1506Y422D01*
X1655Y422D02*
X1659Y422D01*
X1764Y422D02*
X1771Y422D01*
X1Y421D02*
X8Y421D01*
X1502Y421D02*
X1506Y421D01*
X1655Y421D02*
X1659Y421D01*
X1764Y421D02*
X1771Y421D01*
X1Y420D02*
X8Y420D01*
X1502Y420D02*
X1506Y420D01*
X1655Y420D02*
X1659Y420D01*
X1764Y420D02*
X1771Y420D01*
X1Y419D02*
X8Y419D01*
X1502Y419D02*
X1506Y419D01*
X1655Y419D02*
X1659Y419D01*
X1764Y419D02*
X1771Y419D01*
X1Y418D02*
X8Y418D01*
X1503Y418D02*
X1506Y418D01*
X1655Y418D02*
X1659Y418D01*
X1764Y418D02*
X1771Y418D01*
X1Y417D02*
X8Y417D01*
X1503Y417D02*
X1506Y417D01*
X1655Y417D02*
X1659Y417D01*
X1764Y417D02*
X1771Y417D01*
X1Y416D02*
X8Y416D01*
X1503Y416D02*
X1507Y416D01*
X1655Y416D02*
X1658Y416D01*
X1764Y416D02*
X1771Y416D01*
X1Y415D02*
X8Y415D01*
X1503Y415D02*
X1507Y415D01*
X1654Y415D02*
X1658Y415D01*
X1764Y415D02*
X1771Y415D01*
X1Y414D02*
X8Y414D01*
X1503Y414D02*
X1507Y414D01*
X1654Y414D02*
X1658Y414D01*
X1764Y414D02*
X1771Y414D01*
X1Y413D02*
X8Y413D01*
X1503Y413D02*
X1507Y413D01*
X1654Y413D02*
X1658Y413D01*
X1764Y413D02*
X1771Y413D01*
X1Y412D02*
X8Y412D01*
X1503Y412D02*
X1507Y412D01*
X1654Y412D02*
X1658Y412D01*
X1764Y412D02*
X1771Y412D01*
X1Y411D02*
X8Y411D01*
X1504Y411D02*
X1508Y411D01*
X1654Y411D02*
X1658Y411D01*
X1764Y411D02*
X1771Y411D01*
X1Y410D02*
X8Y410D01*
X1504Y410D02*
X1508Y410D01*
X1653Y410D02*
X1657Y410D01*
X1764Y410D02*
X1771Y410D01*
X1Y409D02*
X8Y409D01*
X1504Y409D02*
X1508Y409D01*
X1653Y409D02*
X1657Y409D01*
X1764Y409D02*
X1771Y409D01*
X1Y408D02*
X8Y408D01*
X1504Y408D02*
X1508Y408D01*
X1653Y408D02*
X1657Y408D01*
X1764Y408D02*
X1771Y408D01*
X1Y407D02*
X8Y407D01*
X1505Y407D02*
X1509Y407D01*
X1653Y407D02*
X1657Y407D01*
X1764Y407D02*
X1771Y407D01*
X1Y406D02*
X8Y406D01*
X1505Y406D02*
X1509Y406D01*
X1652Y406D02*
X1656Y406D01*
X1764Y406D02*
X1771Y406D01*
X1Y405D02*
X8Y405D01*
X1505Y405D02*
X1509Y405D01*
X1652Y405D02*
X1656Y405D01*
X1764Y405D02*
X1771Y405D01*
X1Y404D02*
X8Y404D01*
X1505Y404D02*
X1509Y404D01*
X1652Y404D02*
X1656Y404D01*
X1764Y404D02*
X1771Y404D01*
X1Y403D02*
X8Y403D01*
X1506Y403D02*
X1510Y403D01*
X1651Y403D02*
X1655Y403D01*
X1764Y403D02*
X1771Y403D01*
X1Y402D02*
X8Y402D01*
X1506Y402D02*
X1510Y402D01*
X1651Y402D02*
X1655Y402D01*
X1764Y402D02*
X1771Y402D01*
X1Y401D02*
X8Y401D01*
X1506Y401D02*
X1511Y401D01*
X1651Y401D02*
X1655Y401D01*
X1764Y401D02*
X1771Y401D01*
X1Y400D02*
X8Y400D01*
X1507Y400D02*
X1511Y400D01*
X1650Y400D02*
X1655Y400D01*
X1764Y400D02*
X1771Y400D01*
X1Y399D02*
X8Y399D01*
X1507Y399D02*
X1511Y399D01*
X1650Y399D02*
X1654Y399D01*
X1764Y399D02*
X1771Y399D01*
X1Y398D02*
X8Y398D01*
X1508Y398D02*
X1512Y398D01*
X1649Y398D02*
X1654Y398D01*
X1764Y398D02*
X1771Y398D01*
X1Y397D02*
X8Y397D01*
X1508Y397D02*
X1512Y397D01*
X1649Y397D02*
X1653Y397D01*
X1764Y397D02*
X1771Y397D01*
X1Y396D02*
X8Y396D01*
X1508Y396D02*
X1513Y396D01*
X1648Y396D02*
X1653Y396D01*
X1764Y396D02*
X1771Y396D01*
X1Y395D02*
X8Y395D01*
X1509Y395D02*
X1513Y395D01*
X1648Y395D02*
X1652Y395D01*
X1764Y395D02*
X1771Y395D01*
X1Y394D02*
X8Y394D01*
X1509Y394D02*
X1514Y394D01*
X1647Y394D02*
X1652Y394D01*
X1764Y394D02*
X1771Y394D01*
X1Y393D02*
X8Y393D01*
X1510Y393D02*
X1514Y393D01*
X1647Y393D02*
X1652Y393D01*
X1764Y393D02*
X1771Y393D01*
X1Y392D02*
X8Y392D01*
X1510Y392D02*
X1515Y392D01*
X1646Y392D02*
X1651Y392D01*
X1764Y392D02*
X1771Y392D01*
X1Y391D02*
X8Y391D01*
X1511Y391D02*
X1515Y391D01*
X1646Y391D02*
X1651Y391D01*
X1764Y391D02*
X1771Y391D01*
X1Y390D02*
X8Y390D01*
X1511Y390D02*
X1516Y390D01*
X1645Y390D02*
X1650Y390D01*
X1764Y390D02*
X1771Y390D01*
X1Y389D02*
X8Y389D01*
X1512Y389D02*
X1516Y389D01*
X1645Y389D02*
X1649Y389D01*
X1764Y389D02*
X1771Y389D01*
X1Y388D02*
X8Y388D01*
X1512Y388D02*
X1517Y388D01*
X1644Y388D02*
X1649Y388D01*
X1764Y388D02*
X1771Y388D01*
X1Y387D02*
X8Y387D01*
X1513Y387D02*
X1518Y387D01*
X1643Y387D02*
X1648Y387D01*
X1764Y387D02*
X1771Y387D01*
X1Y386D02*
X8Y386D01*
X1513Y386D02*
X1518Y386D01*
X1643Y386D02*
X1648Y386D01*
X1764Y386D02*
X1771Y386D01*
X1Y385D02*
X8Y385D01*
X1514Y385D02*
X1519Y385D01*
X1642Y385D02*
X1647Y385D01*
X1764Y385D02*
X1771Y385D01*
X1Y384D02*
X8Y384D01*
X1515Y384D02*
X1520Y384D01*
X1641Y384D02*
X1647Y384D01*
X1764Y384D02*
X1771Y384D01*
X1Y383D02*
X8Y383D01*
X1515Y383D02*
X1520Y383D01*
X1641Y383D02*
X1646Y383D01*
X1764Y383D02*
X1771Y383D01*
X1Y382D02*
X8Y382D01*
X1516Y382D02*
X1521Y382D01*
X1640Y382D02*
X1645Y382D01*
X1764Y382D02*
X1771Y382D01*
X1Y381D02*
X8Y381D01*
X1517Y381D02*
X1522Y381D01*
X1639Y381D02*
X1644Y381D01*
X1764Y381D02*
X1771Y381D01*
X1Y380D02*
X8Y380D01*
X1517Y380D02*
X1523Y380D01*
X1638Y380D02*
X1644Y380D01*
X1764Y380D02*
X1771Y380D01*
X1Y379D02*
X8Y379D01*
X1518Y379D02*
X1524Y379D01*
X1637Y379D02*
X1643Y379D01*
X1764Y379D02*
X1771Y379D01*
X1Y378D02*
X8Y378D01*
X1519Y378D02*
X1524Y378D01*
X1637Y378D02*
X1642Y378D01*
X1764Y378D02*
X1771Y378D01*
X1Y377D02*
X8Y377D01*
X1520Y377D02*
X1525Y377D01*
X1636Y377D02*
X1641Y377D01*
X1764Y377D02*
X1771Y377D01*
X1Y376D02*
X8Y376D01*
X1521Y376D02*
X1526Y376D01*
X1635Y376D02*
X1641Y376D01*
X1764Y376D02*
X1771Y376D01*
X1Y375D02*
X8Y375D01*
X1521Y375D02*
X1527Y375D01*
X1634Y375D02*
X1640Y375D01*
X1764Y375D02*
X1771Y375D01*
X1Y374D02*
X8Y374D01*
X1522Y374D02*
X1528Y374D01*
X1633Y374D02*
X1639Y374D01*
X1764Y374D02*
X1771Y374D01*
X1Y373D02*
X8Y373D01*
X1523Y373D02*
X1529Y373D01*
X1632Y373D02*
X1638Y373D01*
X1764Y373D02*
X1771Y373D01*
X1Y372D02*
X8Y372D01*
X1524Y372D02*
X1531Y372D01*
X1631Y372D02*
X1637Y372D01*
X1764Y372D02*
X1771Y372D01*
X1Y371D02*
X8Y371D01*
X1525Y371D02*
X1532Y371D01*
X1630Y371D02*
X1636Y371D01*
X1764Y371D02*
X1771Y371D01*
X1Y370D02*
X8Y370D01*
X1526Y370D02*
X1533Y370D01*
X1628Y370D02*
X1635Y370D01*
X1764Y370D02*
X1771Y370D01*
X1Y369D02*
X8Y369D01*
X1527Y369D02*
X1534Y369D01*
X1627Y369D02*
X1634Y369D01*
X1764Y369D02*
X1771Y369D01*
X1Y368D02*
X8Y368D01*
X1528Y368D02*
X1547Y368D01*
X1615Y368D02*
X1633Y368D01*
X1764Y368D02*
X1771Y368D01*
X1Y367D02*
X8Y367D01*
X1530Y367D02*
X1547Y367D01*
X1614Y367D02*
X1632Y367D01*
X1764Y367D02*
X1771Y367D01*
X1Y366D02*
X8Y366D01*
X1531Y366D02*
X1547Y366D01*
X1614Y366D02*
X1631Y366D01*
X1764Y366D02*
X1771Y366D01*
X1Y365D02*
X8Y365D01*
X1532Y365D02*
X1548Y365D01*
X1613Y365D02*
X1629Y365D01*
X1764Y365D02*
X1771Y365D01*
X1Y364D02*
X8Y364D01*
X1533Y364D02*
X1548Y364D01*
X1613Y364D02*
X1628Y364D01*
X1764Y364D02*
X1771Y364D01*
X1Y363D02*
X8Y363D01*
X1764Y363D02*
X1771Y363D01*
X1Y362D02*
X8Y362D01*
X1764Y362D02*
X1771Y362D01*
X1Y361D02*
X8Y361D01*
X1764Y361D02*
X1771Y361D01*
X1Y360D02*
X8Y360D01*
X1764Y360D02*
X1771Y360D01*
X1Y359D02*
X8Y359D01*
X1764Y359D02*
X1771Y359D01*
X1Y358D02*
X8Y358D01*
X1764Y358D02*
X1771Y358D01*
X1Y357D02*
X8Y357D01*
X1764Y357D02*
X1771Y357D01*
X1Y356D02*
X8Y356D01*
X1764Y356D02*
X1771Y356D01*
X1Y355D02*
X8Y355D01*
X1764Y355D02*
X1771Y355D01*
X1Y354D02*
X8Y354D01*
X1764Y354D02*
X1771Y354D01*
X1Y353D02*
X8Y353D01*
X1764Y353D02*
X1771Y353D01*
X1Y352D02*
X8Y352D01*
X1764Y352D02*
X1771Y352D01*
X1Y351D02*
X8Y351D01*
X1764Y351D02*
X1771Y351D01*
X1Y350D02*
X8Y350D01*
X1764Y350D02*
X1771Y350D01*
X1Y349D02*
X8Y349D01*
X1764Y349D02*
X1771Y349D01*
X1Y348D02*
X8Y348D01*
X1764Y348D02*
X1771Y348D01*
X1Y347D02*
X8Y347D01*
X1764Y347D02*
X1771Y347D01*
X1Y346D02*
X8Y346D01*
X1764Y346D02*
X1771Y346D01*
X1Y345D02*
X8Y345D01*
X1764Y345D02*
X1771Y345D01*
X1Y344D02*
X8Y344D01*
X1764Y344D02*
X1771Y344D01*
X1Y343D02*
X8Y343D01*
X1764Y343D02*
X1771Y343D01*
X1Y342D02*
X8Y342D01*
X1764Y342D02*
X1771Y342D01*
X1Y341D02*
X8Y341D01*
X1764Y341D02*
X1771Y341D01*
X1Y340D02*
X8Y340D01*
X1764Y340D02*
X1771Y340D01*
X1Y339D02*
X8Y339D01*
X1764Y339D02*
X1771Y339D01*
X1Y338D02*
X8Y338D01*
X1764Y338D02*
X1771Y338D01*
X1Y337D02*
X8Y337D01*
X1764Y337D02*
X1771Y337D01*
X1Y336D02*
X8Y336D01*
X1764Y336D02*
X1771Y336D01*
X1Y335D02*
X8Y335D01*
X1764Y335D02*
X1771Y335D01*
X1Y334D02*
X8Y334D01*
X1764Y334D02*
X1771Y334D01*
X1Y333D02*
X8Y333D01*
X1764Y333D02*
X1771Y333D01*
X1Y332D02*
X8Y332D01*
X1764Y332D02*
X1771Y332D01*
X1Y331D02*
X8Y331D01*
X1764Y331D02*
X1771Y331D01*
X1Y330D02*
X8Y330D01*
X1764Y330D02*
X1771Y330D01*
X1Y329D02*
X8Y329D01*
X1764Y329D02*
X1771Y329D01*
X1Y328D02*
X8Y328D01*
X1764Y328D02*
X1771Y328D01*
X1Y327D02*
X8Y327D01*
X1764Y327D02*
X1771Y327D01*
X1Y326D02*
X8Y326D01*
X1764Y326D02*
X1771Y326D01*
X1Y325D02*
X8Y325D01*
X1764Y325D02*
X1771Y325D01*
X1Y324D02*
X8Y324D01*
X1764Y324D02*
X1771Y324D01*
X1Y323D02*
X8Y323D01*
X1764Y323D02*
X1771Y323D01*
X1Y322D02*
X8Y322D01*
X1764Y322D02*
X1771Y322D01*
X1Y321D02*
X8Y321D01*
X1764Y321D02*
X1771Y321D01*
X1Y320D02*
X8Y320D01*
X1764Y320D02*
X1771Y320D01*
X1Y319D02*
X8Y319D01*
X1764Y319D02*
X1771Y319D01*
X1Y318D02*
X8Y318D01*
X1764Y318D02*
X1771Y318D01*
X1Y317D02*
X8Y317D01*
X1764Y317D02*
X1771Y317D01*
X1Y316D02*
X8Y316D01*
X1764Y316D02*
X1771Y316D01*
X1Y315D02*
X8Y315D01*
X1764Y315D02*
X1771Y315D01*
X1Y314D02*
X8Y314D01*
X1764Y314D02*
X1771Y314D01*
X1Y313D02*
X8Y313D01*
X1764Y313D02*
X1771Y313D01*
X1Y312D02*
X8Y312D01*
X1764Y312D02*
X1771Y312D01*
X1Y311D02*
X8Y311D01*
X1764Y311D02*
X1771Y311D01*
X1Y310D02*
X8Y310D01*
X1764Y310D02*
X1771Y310D01*
X1Y309D02*
X8Y309D01*
X1764Y309D02*
X1771Y309D01*
X1Y308D02*
X8Y308D01*
X1764Y308D02*
X1771Y308D01*
X1Y307D02*
X8Y307D01*
X1764Y307D02*
X1771Y307D01*
X1Y306D02*
X8Y306D01*
X1764Y306D02*
X1771Y306D01*
X1Y305D02*
X8Y305D01*
X1764Y305D02*
X1771Y305D01*
X1Y304D02*
X8Y304D01*
X1764Y304D02*
X1771Y304D01*
X1Y303D02*
X8Y303D01*
X1764Y303D02*
X1771Y303D01*
X1Y302D02*
X8Y302D01*
X1764Y302D02*
X1771Y302D01*
X1Y301D02*
X8Y301D01*
X1764Y301D02*
X1771Y301D01*
X1Y300D02*
X8Y300D01*
X1764Y300D02*
X1771Y300D01*
X1Y299D02*
X8Y299D01*
X1764Y299D02*
X1771Y299D01*
X1Y298D02*
X8Y298D01*
X1764Y298D02*
X1771Y298D01*
X1Y297D02*
X8Y297D01*
X1764Y297D02*
X1771Y297D01*
X1Y296D02*
X8Y296D01*
X1764Y296D02*
X1771Y296D01*
X1Y295D02*
X8Y295D01*
X1764Y295D02*
X1771Y295D01*
X1Y294D02*
X8Y294D01*
X1764Y294D02*
X1771Y294D01*
X1Y293D02*
X8Y293D01*
X1764Y293D02*
X1771Y293D01*
X1Y292D02*
X8Y292D01*
X1764Y292D02*
X1771Y292D01*
X1Y291D02*
X8Y291D01*
X1764Y291D02*
X1771Y291D01*
X1Y290D02*
X8Y290D01*
X1764Y290D02*
X1771Y290D01*
X1Y289D02*
X8Y289D01*
X1764Y289D02*
X1771Y289D01*
X1Y288D02*
X8Y288D01*
X1764Y288D02*
X1771Y288D01*
X1Y287D02*
X8Y287D01*
X1764Y287D02*
X1771Y287D01*
X1Y286D02*
X8Y286D01*
X1764Y286D02*
X1771Y286D01*
X1Y285D02*
X8Y285D01*
X1764Y285D02*
X1771Y285D01*
X1Y284D02*
X8Y284D01*
X1764Y284D02*
X1771Y284D01*
X1Y283D02*
X8Y283D01*
X1764Y283D02*
X1771Y283D01*
X1Y282D02*
X8Y282D01*
X1764Y282D02*
X1771Y282D01*
X1Y281D02*
X8Y281D01*
X1764Y281D02*
X1771Y281D01*
X1Y280D02*
X8Y280D01*
X1764Y280D02*
X1771Y280D01*
X1Y279D02*
X8Y279D01*
X1764Y279D02*
X1771Y279D01*
X1Y278D02*
X8Y278D01*
X1764Y278D02*
X1771Y278D01*
X1Y277D02*
X8Y277D01*
X1764Y277D02*
X1771Y277D01*
X1Y276D02*
X8Y276D01*
X1764Y276D02*
X1771Y276D01*
X1Y275D02*
X8Y275D01*
X1764Y275D02*
X1771Y275D01*
X1Y274D02*
X8Y274D01*
X1764Y274D02*
X1771Y274D01*
X1Y273D02*
X8Y273D01*
X1764Y273D02*
X1771Y273D01*
X1Y272D02*
X8Y272D01*
X1764Y272D02*
X1771Y272D01*
X1Y271D02*
X8Y271D01*
X1764Y271D02*
X1771Y271D01*
X1Y270D02*
X8Y270D01*
X1764Y270D02*
X1771Y270D01*
X1Y269D02*
X8Y269D01*
X1764Y269D02*
X1771Y269D01*
X1Y268D02*
X8Y268D01*
X1764Y268D02*
X1771Y268D01*
X1Y267D02*
X8Y267D01*
X1764Y267D02*
X1771Y267D01*
X1Y266D02*
X8Y266D01*
X1764Y266D02*
X1771Y266D01*
X1Y265D02*
X8Y265D01*
X1764Y265D02*
X1771Y265D01*
X1Y264D02*
X8Y264D01*
X1764Y264D02*
X1771Y264D01*
X1Y263D02*
X8Y263D01*
X1764Y263D02*
X1771Y263D01*
X1Y262D02*
X8Y262D01*
X1764Y262D02*
X1771Y262D01*
X1Y261D02*
X8Y261D01*
X1764Y261D02*
X1771Y261D01*
X1Y260D02*
X8Y260D01*
X1764Y260D02*
X1771Y260D01*
X1Y259D02*
X8Y259D01*
X1764Y259D02*
X1771Y259D01*
X1Y258D02*
X8Y258D01*
X1764Y258D02*
X1771Y258D01*
X1Y257D02*
X8Y257D01*
X1764Y257D02*
X1771Y257D01*
X1Y256D02*
X8Y256D01*
X1764Y256D02*
X1771Y256D01*
X1Y255D02*
X8Y255D01*
X1764Y255D02*
X1771Y255D01*
X1Y254D02*
X8Y254D01*
X1764Y254D02*
X1771Y254D01*
X1Y253D02*
X8Y253D01*
X1764Y253D02*
X1771Y253D01*
X1Y252D02*
X8Y252D01*
X1764Y252D02*
X1771Y252D01*
X1Y251D02*
X8Y251D01*
X1764Y251D02*
X1771Y251D01*
X1Y250D02*
X8Y250D01*
X1764Y250D02*
X1771Y250D01*
X1Y249D02*
X8Y249D01*
X1764Y249D02*
X1771Y249D01*
X1Y248D02*
X8Y248D01*
X1764Y248D02*
X1771Y248D01*
X1Y247D02*
X8Y247D01*
X1764Y247D02*
X1771Y247D01*
X1Y246D02*
X8Y246D01*
X1764Y246D02*
X1771Y246D01*
X1Y245D02*
X8Y245D01*
X1764Y245D02*
X1771Y245D01*
X1Y244D02*
X8Y244D01*
X1764Y244D02*
X1771Y244D01*
X1Y243D02*
X8Y243D01*
X1764Y243D02*
X1771Y243D01*
X1Y242D02*
X8Y242D01*
X1764Y242D02*
X1771Y242D01*
X1Y241D02*
X8Y241D01*
X1764Y241D02*
X1771Y241D01*
X1Y240D02*
X8Y240D01*
X1764Y240D02*
X1771Y240D01*
X1Y239D02*
X8Y239D01*
X1764Y239D02*
X1771Y239D01*
X1Y238D02*
X8Y238D01*
X1764Y238D02*
X1771Y238D01*
X1Y237D02*
X8Y237D01*
X1764Y237D02*
X1771Y237D01*
X1Y236D02*
X8Y236D01*
X1764Y236D02*
X1771Y236D01*
X1Y235D02*
X8Y235D01*
X1764Y235D02*
X1771Y235D01*
X1Y234D02*
X8Y234D01*
X1764Y234D02*
X1771Y234D01*
X1Y233D02*
X8Y233D01*
X1764Y233D02*
X1771Y233D01*
X1Y232D02*
X8Y232D01*
X1764Y232D02*
X1771Y232D01*
X1Y231D02*
X8Y231D01*
X1764Y231D02*
X1771Y231D01*
X1Y230D02*
X8Y230D01*
X1764Y230D02*
X1771Y230D01*
X1Y229D02*
X8Y229D01*
X1764Y229D02*
X1771Y229D01*
X1Y228D02*
X8Y228D01*
X1764Y228D02*
X1771Y228D01*
X1Y227D02*
X8Y227D01*
X1764Y227D02*
X1771Y227D01*
X1Y226D02*
X8Y226D01*
X1764Y226D02*
X1771Y226D01*
X1Y225D02*
X8Y225D01*
X1764Y225D02*
X1771Y225D01*
X1Y224D02*
X8Y224D01*
X1764Y224D02*
X1771Y224D01*
X1Y223D02*
X8Y223D01*
X1764Y223D02*
X1771Y223D01*
X1Y222D02*
X8Y222D01*
X1764Y222D02*
X1771Y222D01*
X1Y221D02*
X8Y221D01*
X1764Y221D02*
X1771Y221D01*
X1Y220D02*
X8Y220D01*
X1764Y220D02*
X1771Y220D01*
X1Y219D02*
X8Y219D01*
X1764Y219D02*
X1771Y219D01*
X1Y218D02*
X8Y218D01*
X1764Y218D02*
X1771Y218D01*
X1Y217D02*
X8Y217D01*
X1764Y217D02*
X1771Y217D01*
X1Y216D02*
X8Y216D01*
X1764Y216D02*
X1771Y216D01*
X1Y215D02*
X8Y215D01*
X1764Y215D02*
X1771Y215D01*
X1Y214D02*
X8Y214D01*
X1764Y214D02*
X1771Y214D01*
X1Y213D02*
X8Y213D01*
X1764Y213D02*
X1771Y213D01*
X1Y212D02*
X8Y212D01*
X1764Y212D02*
X1771Y212D01*
X1Y211D02*
X8Y211D01*
X1764Y211D02*
X1771Y211D01*
X1Y210D02*
X8Y210D01*
X1764Y210D02*
X1771Y210D01*
X1Y209D02*
X8Y209D01*
X1764Y209D02*
X1771Y209D01*
X1Y208D02*
X8Y208D01*
X1764Y208D02*
X1771Y208D01*
X1Y207D02*
X8Y207D01*
X1764Y207D02*
X1771Y207D01*
X1Y206D02*
X8Y206D01*
X1764Y206D02*
X1771Y206D01*
X1Y205D02*
X8Y205D01*
X1764Y205D02*
X1771Y205D01*
X1Y204D02*
X8Y204D01*
X1764Y204D02*
X1771Y204D01*
X1Y203D02*
X8Y203D01*
X1764Y203D02*
X1771Y203D01*
X1Y202D02*
X8Y202D01*
X1764Y202D02*
X1771Y202D01*
X1Y201D02*
X8Y201D01*
X1764Y201D02*
X1771Y201D01*
X1Y200D02*
X8Y200D01*
X1764Y200D02*
X1771Y200D01*
X1Y199D02*
X8Y199D01*
X1764Y199D02*
X1771Y199D01*
X1Y198D02*
X8Y198D01*
X1764Y198D02*
X1771Y198D01*
X1Y197D02*
X8Y197D01*
X1764Y197D02*
X1771Y197D01*
X1Y196D02*
X8Y196D01*
X1764Y196D02*
X1771Y196D01*
X1Y195D02*
X8Y195D01*
X1764Y195D02*
X1771Y195D01*
X1Y194D02*
X8Y194D01*
X1764Y194D02*
X1771Y194D01*
X1Y193D02*
X8Y193D01*
X1764Y193D02*
X1771Y193D01*
X1Y192D02*
X8Y192D01*
X1764Y192D02*
X1771Y192D01*
X1Y191D02*
X8Y191D01*
X1764Y191D02*
X1771Y191D01*
X1Y190D02*
X8Y190D01*
X1764Y190D02*
X1771Y190D01*
X1Y189D02*
X8Y189D01*
X1764Y189D02*
X1771Y189D01*
X1Y188D02*
X8Y188D01*
X1764Y188D02*
X1771Y188D01*
X1Y187D02*
X8Y187D01*
X1764Y187D02*
X1771Y187D01*
X1Y186D02*
X8Y186D01*
X1764Y186D02*
X1771Y186D01*
X1Y185D02*
X8Y185D01*
X1764Y185D02*
X1771Y185D01*
X1Y184D02*
X8Y184D01*
X1764Y184D02*
X1771Y184D01*
X1Y183D02*
X8Y183D01*
X1764Y183D02*
X1771Y183D01*
X1Y182D02*
X8Y182D01*
X1764Y182D02*
X1771Y182D01*
X1Y181D02*
X8Y181D01*
X1764Y181D02*
X1771Y181D01*
X1Y180D02*
X8Y180D01*
X1764Y180D02*
X1771Y180D01*
X1Y179D02*
X8Y179D01*
X1764Y179D02*
X1771Y179D01*
X1Y178D02*
X8Y178D01*
X1764Y178D02*
X1771Y178D01*
X1Y177D02*
X8Y177D01*
X1764Y177D02*
X1771Y177D01*
X1Y176D02*
X8Y176D01*
X1764Y176D02*
X1771Y176D01*
X1Y175D02*
X8Y175D01*
X1764Y175D02*
X1771Y175D01*
X1Y174D02*
X8Y174D01*
X1764Y174D02*
X1771Y174D01*
X1Y173D02*
X8Y173D01*
X1764Y173D02*
X1771Y173D01*
X1Y172D02*
X8Y172D01*
X1764Y172D02*
X1771Y172D01*
X1Y171D02*
X8Y171D01*
X1764Y171D02*
X1771Y171D01*
X1Y170D02*
X8Y170D01*
X1764Y170D02*
X1771Y170D01*
X1Y169D02*
X8Y169D01*
X1764Y169D02*
X1771Y169D01*
X1Y168D02*
X8Y168D01*
X1764Y168D02*
X1771Y168D01*
X1Y167D02*
X8Y167D01*
X1764Y167D02*
X1771Y167D01*
X1Y166D02*
X8Y166D01*
X1764Y166D02*
X1771Y166D01*
X1Y165D02*
X8Y165D01*
X1764Y165D02*
X1771Y165D01*
X1Y164D02*
X8Y164D01*
X1764Y164D02*
X1771Y164D01*
X1Y163D02*
X8Y163D01*
X1764Y163D02*
X1771Y163D01*
X1Y162D02*
X8Y162D01*
X1764Y162D02*
X1771Y162D01*
X1Y161D02*
X8Y161D01*
X1764Y161D02*
X1771Y161D01*
X1Y160D02*
X8Y160D01*
X1764Y160D02*
X1771Y160D01*
X1Y159D02*
X8Y159D01*
X1764Y159D02*
X1771Y159D01*
X1Y158D02*
X8Y158D01*
X1764Y158D02*
X1771Y158D01*
X1Y157D02*
X8Y157D01*
X1764Y157D02*
X1771Y157D01*
X1Y156D02*
X8Y156D01*
X1764Y156D02*
X1771Y156D01*
X1Y155D02*
X8Y155D01*
X1764Y155D02*
X1771Y155D01*
X1Y154D02*
X8Y154D01*
X1764Y154D02*
X1771Y154D01*
X1Y153D02*
X8Y153D01*
X1764Y153D02*
X1771Y153D01*
X1Y152D02*
X8Y152D01*
X1764Y152D02*
X1771Y152D01*
X1Y151D02*
X8Y151D01*
X1764Y151D02*
X1771Y151D01*
X1Y150D02*
X8Y150D01*
X1764Y150D02*
X1771Y150D01*
X1Y149D02*
X8Y149D01*
X1764Y149D02*
X1771Y149D01*
X1Y148D02*
X8Y148D01*
X1764Y148D02*
X1771Y148D01*
X1Y147D02*
X8Y147D01*
X1764Y147D02*
X1771Y147D01*
X1Y146D02*
X8Y146D01*
X1764Y146D02*
X1771Y146D01*
X1Y145D02*
X8Y145D01*
X1764Y145D02*
X1771Y145D01*
X1Y144D02*
X8Y144D01*
X1764Y144D02*
X1771Y144D01*
X1Y143D02*
X8Y143D01*
X1764Y143D02*
X1771Y143D01*
X1Y142D02*
X8Y142D01*
X1764Y142D02*
X1771Y142D01*
X1Y141D02*
X8Y141D01*
X1764Y141D02*
X1771Y141D01*
X1Y140D02*
X8Y140D01*
X1764Y140D02*
X1771Y140D01*
X1Y139D02*
X8Y139D01*
X1764Y139D02*
X1771Y139D01*
X1Y138D02*
X8Y138D01*
X1764Y138D02*
X1771Y138D01*
X1Y137D02*
X8Y137D01*
X1764Y137D02*
X1771Y137D01*
X1Y136D02*
X8Y136D01*
X1764Y136D02*
X1771Y136D01*
X1Y135D02*
X8Y135D01*
X1764Y135D02*
X1771Y135D01*
X1Y134D02*
X8Y134D01*
X1764Y134D02*
X1771Y134D01*
X1Y133D02*
X8Y133D01*
X1764Y133D02*
X1771Y133D01*
X1Y132D02*
X8Y132D01*
X1764Y132D02*
X1771Y132D01*
X1Y131D02*
X8Y131D01*
X1764Y131D02*
X1771Y131D01*
X1Y130D02*
X8Y130D01*
X1764Y130D02*
X1771Y130D01*
X1Y129D02*
X8Y129D01*
X1764Y129D02*
X1771Y129D01*
X1Y128D02*
X8Y128D01*
X1764Y128D02*
X1771Y128D01*
X1Y127D02*
X8Y127D01*
X1764Y127D02*
X1771Y127D01*
X1Y126D02*
X8Y126D01*
X1764Y126D02*
X1771Y126D01*
X1Y125D02*
X8Y125D01*
X1764Y125D02*
X1771Y125D01*
X1Y124D02*
X8Y124D01*
X1764Y124D02*
X1771Y124D01*
X1Y123D02*
X8Y123D01*
X1764Y123D02*
X1771Y123D01*
X1Y122D02*
X8Y122D01*
X1764Y122D02*
X1771Y122D01*
X1Y121D02*
X8Y121D01*
X1764Y121D02*
X1771Y121D01*
X1Y120D02*
X8Y120D01*
X1764Y120D02*
X1771Y120D01*
X1Y119D02*
X8Y119D01*
X1764Y119D02*
X1771Y119D01*
X1Y118D02*
X8Y118D01*
X1764Y118D02*
X1771Y118D01*
X1Y117D02*
X8Y117D01*
X1764Y117D02*
X1771Y117D01*
X1Y116D02*
X8Y116D01*
X1764Y116D02*
X1771Y116D01*
X1Y115D02*
X8Y115D01*
X1764Y115D02*
X1771Y115D01*
X1Y114D02*
X8Y114D01*
X1764Y114D02*
X1771Y114D01*
X1Y113D02*
X8Y113D01*
X1764Y113D02*
X1771Y113D01*
X1Y112D02*
X8Y112D01*
X1764Y112D02*
X1771Y112D01*
X1Y111D02*
X8Y111D01*
X1764Y111D02*
X1771Y111D01*
X1Y110D02*
X8Y110D01*
X1764Y110D02*
X1771Y110D01*
X1Y109D02*
X8Y109D01*
X1764Y109D02*
X1771Y109D01*
X1Y108D02*
X8Y108D01*
X1764Y108D02*
X1771Y108D01*
X1Y107D02*
X8Y107D01*
X1764Y107D02*
X1771Y107D01*
X1Y106D02*
X8Y106D01*
X1764Y106D02*
X1771Y106D01*
X1Y105D02*
X8Y105D01*
X1764Y105D02*
X1771Y105D01*
X1Y104D02*
X8Y104D01*
X1764Y104D02*
X1771Y104D01*
X1Y103D02*
X8Y103D01*
X1764Y103D02*
X1771Y103D01*
X1Y102D02*
X8Y102D01*
X1764Y102D02*
X1771Y102D01*
X1Y101D02*
X8Y101D01*
X1764Y101D02*
X1771Y101D01*
X1Y100D02*
X8Y100D01*
X1764Y100D02*
X1771Y100D01*
X1Y99D02*
X8Y99D01*
X1764Y99D02*
X1771Y99D01*
X1Y98D02*
X8Y98D01*
X1764Y98D02*
X1771Y98D01*
X1Y97D02*
X8Y97D01*
X1764Y97D02*
X1771Y97D01*
X1Y96D02*
X8Y96D01*
X1764Y96D02*
X1771Y96D01*
X1Y95D02*
X8Y95D01*
X1764Y95D02*
X1771Y95D01*
X1Y94D02*
X8Y94D01*
X1764Y94D02*
X1771Y94D01*
X1Y93D02*
X8Y93D01*
X1764Y93D02*
X1771Y93D01*
X1Y92D02*
X8Y92D01*
X1764Y92D02*
X1771Y92D01*
X1Y91D02*
X8Y91D01*
X1764Y91D02*
X1771Y91D01*
X1Y90D02*
X8Y90D01*
X1764Y90D02*
X1771Y90D01*
X1Y89D02*
X8Y89D01*
X1764Y89D02*
X1771Y89D01*
X1Y88D02*
X8Y88D01*
X1764Y88D02*
X1771Y88D01*
X1Y87D02*
X8Y87D01*
X1764Y87D02*
X1771Y87D01*
X1Y86D02*
X8Y86D01*
X1764Y86D02*
X1771Y86D01*
X1Y85D02*
X8Y85D01*
X1764Y85D02*
X1771Y85D01*
X1Y84D02*
X8Y84D01*
X1764Y84D02*
X1771Y84D01*
X1Y83D02*
X8Y83D01*
X1764Y83D02*
X1771Y83D01*
X1Y82D02*
X8Y82D01*
X1764Y82D02*
X1771Y82D01*
X1Y81D02*
X8Y81D01*
X1764Y81D02*
X1771Y81D01*
X1Y80D02*
X8Y80D01*
X1764Y80D02*
X1771Y80D01*
X1Y79D02*
X8Y79D01*
X1764Y79D02*
X1771Y79D01*
X1Y78D02*
X8Y78D01*
X1764Y78D02*
X1771Y78D01*
X1Y77D02*
X8Y77D01*
X1764Y77D02*
X1771Y77D01*
X1Y76D02*
X8Y76D01*
X1764Y76D02*
X1771Y76D01*
X1Y75D02*
X8Y75D01*
X1764Y75D02*
X1771Y75D01*
X1Y74D02*
X8Y74D01*
X1764Y74D02*
X1771Y74D01*
X1Y73D02*
X8Y73D01*
X1764Y73D02*
X1771Y73D01*
X1Y72D02*
X8Y72D01*
X1764Y72D02*
X1771Y72D01*
X1Y71D02*
X8Y71D01*
X1764Y71D02*
X1771Y71D01*
X1Y70D02*
X8Y70D01*
X1764Y70D02*
X1771Y70D01*
X1Y69D02*
X8Y69D01*
X1764Y69D02*
X1771Y69D01*
X1Y68D02*
X8Y68D01*
X1764Y68D02*
X1771Y68D01*
X1Y67D02*
X8Y67D01*
X1764Y67D02*
X1771Y67D01*
X1Y66D02*
X8Y66D01*
X1764Y66D02*
X1771Y66D01*
X1Y65D02*
X8Y65D01*
X1764Y65D02*
X1771Y65D01*
X1Y64D02*
X8Y64D01*
X1764Y64D02*
X1771Y64D01*
X1Y63D02*
X8Y63D01*
X1764Y63D02*
X1771Y63D01*
X1Y62D02*
X8Y62D01*
X1764Y62D02*
X1771Y62D01*
X1Y61D02*
X8Y61D01*
X1764Y61D02*
X1771Y61D01*
X1Y60D02*
X8Y60D01*
X1764Y60D02*
X1771Y60D01*
X1Y59D02*
X8Y59D01*
X1764Y59D02*
X1771Y59D01*
X1Y58D02*
X8Y58D01*
X1764Y58D02*
X1771Y58D01*
X1Y57D02*
X8Y57D01*
X1764Y57D02*
X1771Y57D01*
X1Y56D02*
X8Y56D01*
X1764Y56D02*
X1771Y56D01*
X1Y55D02*
X8Y55D01*
X1764Y55D02*
X1771Y55D01*
X1Y54D02*
X8Y54D01*
X1764Y54D02*
X1771Y54D01*
X1Y53D02*
X8Y53D01*
X1764Y53D02*
X1771Y53D01*
X1Y52D02*
X8Y52D01*
X1764Y52D02*
X1771Y52D01*
X1Y51D02*
X8Y51D01*
X1764Y51D02*
X1771Y51D01*
X1Y50D02*
X8Y50D01*
X1764Y50D02*
X1771Y50D01*
X1Y49D02*
X8Y49D01*
X1764Y49D02*
X1771Y49D01*
X1Y48D02*
X8Y48D01*
X1764Y48D02*
X1771Y48D01*
X1Y47D02*
X8Y47D01*
X1764Y47D02*
X1771Y47D01*
X1Y46D02*
X8Y46D01*
X1764Y46D02*
X1771Y46D01*
X1Y45D02*
X8Y45D01*
X1764Y45D02*
X1771Y45D01*
X1Y44D02*
X8Y44D01*
X1764Y44D02*
X1771Y44D01*
X1Y43D02*
X8Y43D01*
X1764Y43D02*
X1771Y43D01*
X1Y42D02*
X8Y42D01*
X1764Y42D02*
X1771Y42D01*
X1Y41D02*
X8Y41D01*
X1764Y41D02*
X1771Y41D01*
X1Y40D02*
X8Y40D01*
X1764Y40D02*
X1771Y40D01*
X1Y39D02*
X8Y39D01*
X1764Y39D02*
X1771Y39D01*
X1Y38D02*
X8Y38D01*
X1764Y38D02*
X1771Y38D01*
X1Y37D02*
X8Y37D01*
X1764Y37D02*
X1771Y37D01*
X1Y36D02*
X8Y36D01*
X1764Y36D02*
X1771Y36D01*
X1Y35D02*
X8Y35D01*
X1764Y35D02*
X1771Y35D01*
X1Y34D02*
X8Y34D01*
X1764Y34D02*
X1771Y34D01*
X1Y33D02*
X8Y33D01*
X1764Y33D02*
X1771Y33D01*
X1Y32D02*
X8Y32D01*
X1764Y32D02*
X1771Y32D01*
X1Y31D02*
X8Y31D01*
X1764Y31D02*
X1771Y31D01*
X1Y30D02*
X8Y30D01*
X1764Y30D02*
X1771Y30D01*
X1Y29D02*
X8Y29D01*
X1764Y29D02*
X1771Y29D01*
X1Y28D02*
X8Y28D01*
X1764Y28D02*
X1771Y28D01*
X1Y27D02*
X8Y27D01*
X1764Y27D02*
X1771Y27D01*
X1Y26D02*
X8Y26D01*
X1764Y26D02*
X1771Y26D01*
X1Y25D02*
X8Y25D01*
X1764Y25D02*
X1771Y25D01*
X1Y24D02*
X8Y24D01*
X1764Y24D02*
X1771Y24D01*
X1Y23D02*
X8Y23D01*
X1764Y23D02*
X1771Y23D01*
X1Y22D02*
X8Y22D01*
X1764Y22D02*
X1771Y22D01*
X1Y21D02*
X8Y21D01*
X1764Y21D02*
X1771Y21D01*
X1Y20D02*
X8Y20D01*
X1764Y20D02*
X1771Y20D01*
X1Y19D02*
X8Y19D01*
X1764Y19D02*
X1771Y19D01*
X1Y18D02*
X8Y18D01*
X1764Y18D02*
X1771Y18D01*
X1Y17D02*
X8Y17D01*
X1764Y17D02*
X1771Y17D01*
X1Y16D02*
X8Y16D01*
X1764Y16D02*
X1771Y16D01*
X1Y15D02*
X8Y15D01*
X1764Y15D02*
X1771Y15D01*
X1Y14D02*
X8Y14D01*
X1764Y14D02*
X1771Y14D01*
X1Y13D02*
X8Y13D01*
X1764Y13D02*
X1771Y13D01*
X1Y12D02*
X8Y12D01*
X1764Y12D02*
X1771Y12D01*
X1Y11D02*
X8Y11D01*
X1764Y11D02*
X1771Y11D01*
X1Y10D02*
X8Y10D01*
X1764Y10D02*
X1771Y10D01*
X1Y9D02*
X8Y9D01*
X1764Y9D02*
X1771Y9D01*
X1Y8D02*
X1771Y8D01*
X1Y7D02*
X1771Y7D01*
X1Y6D02*
X1771Y6D01*
X1Y5D02*
X1771Y5D01*
X1Y4D02*
X1771Y4D01*
X1Y3D02*
X1771Y3D01*
X1Y2D02*
X1771Y2D01*
X1Y1D02*
X1771Y1D01*
D02*
G04 End of Silk1*
M02*