G04 MADE WITH FRITZING*
G04 WWW.FRITZING.ORG*
G04 DOUBLE SIDED*
G04 HOLES PLATED*
G04 CONTOUR ON CENTER OF CONTOUR VECTOR*
%ASAXBY*%
%FSLAX23Y23*%
%MOIN*%
%OFA0B0*%
%SFA1.0B1.0*%
%ADD10C,0.078000*%
%ADD11C,0.074000*%
%ADD12C,0.075000*%
%ADD13C,0.062992*%
%ADD14C,0.075433*%
%ADD15R,0.074000X0.074000*%
%ADD16R,0.062992X0.062992*%
%ADD17C,0.024000*%
%ADD18R,0.001000X0.001000*%
%LNCOPPER0*%
G90*
G70*
G54D10*
X1381Y1380D03*
X1381Y1280D03*
X1381Y1180D03*
X1381Y1080D03*
X1381Y980D03*
X1381Y880D03*
X1381Y780D03*
X1381Y680D03*
X1381Y580D03*
X1381Y480D03*
X1381Y380D03*
X1381Y280D03*
X1381Y1380D03*
X1381Y1280D03*
X1381Y1180D03*
X1381Y1080D03*
X1381Y980D03*
X1381Y880D03*
X1381Y780D03*
X1381Y680D03*
X1381Y580D03*
X1381Y480D03*
X1381Y380D03*
X1381Y280D03*
X781Y1380D03*
X781Y1280D03*
X781Y1180D03*
X781Y1080D03*
X781Y980D03*
X781Y880D03*
X781Y780D03*
X781Y680D03*
X781Y580D03*
X781Y480D03*
X781Y380D03*
X781Y280D03*
X781Y1380D03*
X781Y1280D03*
X781Y1180D03*
X781Y1080D03*
X781Y980D03*
X781Y880D03*
X781Y780D03*
X781Y680D03*
X781Y580D03*
X781Y480D03*
X781Y380D03*
X781Y280D03*
G54D11*
X181Y980D03*
X181Y880D03*
X181Y780D03*
X181Y680D03*
X181Y581D03*
X481Y581D03*
X481Y680D03*
X481Y780D03*
X481Y880D03*
X482Y980D03*
X181Y980D03*
X181Y880D03*
X181Y780D03*
X181Y680D03*
X181Y581D03*
X481Y581D03*
X481Y680D03*
X481Y780D03*
X481Y880D03*
X482Y980D03*
G54D12*
X1581Y680D03*
X1481Y680D03*
X1581Y680D03*
X1481Y680D03*
X681Y180D03*
X581Y180D03*
X681Y180D03*
X581Y180D03*
X681Y280D03*
X581Y280D03*
X681Y280D03*
X581Y280D03*
X681Y380D03*
X581Y380D03*
X681Y380D03*
X581Y380D03*
X681Y480D03*
X581Y480D03*
X681Y480D03*
X581Y480D03*
X681Y580D03*
X581Y580D03*
X681Y580D03*
X581Y580D03*
X681Y680D03*
X581Y680D03*
X681Y680D03*
X581Y680D03*
X681Y880D03*
X581Y880D03*
X681Y880D03*
X581Y880D03*
X681Y980D03*
X581Y980D03*
X681Y980D03*
X581Y980D03*
G54D13*
X1581Y1081D03*
X1581Y1180D03*
X1581Y480D03*
X1581Y381D03*
G54D12*
X1287Y980D03*
X1031Y980D03*
X1287Y1157D03*
X1031Y1157D03*
X1287Y380D03*
X1031Y380D03*
X1287Y557D03*
X1031Y557D03*
X1581Y880D03*
X1481Y880D03*
X1581Y880D03*
X1481Y880D03*
G54D10*
X931Y280D03*
X1031Y280D03*
X1131Y280D03*
X1231Y280D03*
X931Y280D03*
X1031Y280D03*
X1131Y280D03*
X1231Y280D03*
X1131Y1480D03*
X1231Y1480D03*
X1331Y1480D03*
X1431Y1480D03*
X1131Y1480D03*
X1231Y1480D03*
X1331Y1480D03*
X1431Y1480D03*
X1131Y180D03*
X1231Y180D03*
X1331Y180D03*
X1431Y180D03*
X1131Y180D03*
X1231Y180D03*
X1331Y180D03*
X1431Y180D03*
G54D14*
X1481Y280D03*
X681Y1180D03*
G54D15*
X181Y979D03*
G54D16*
X1581Y1081D03*
X1581Y480D03*
G54D17*
X762Y980D02*
X698Y980D01*
D02*
X762Y880D02*
X698Y880D01*
D02*
X762Y680D02*
X698Y680D01*
D02*
X762Y580D02*
X698Y580D01*
D02*
X502Y980D02*
X563Y980D01*
D02*
X501Y880D02*
X563Y880D01*
D02*
X501Y680D02*
X563Y680D01*
D02*
X501Y581D02*
X563Y580D01*
D02*
X762Y480D02*
X698Y480D01*
D02*
X762Y380D02*
X698Y380D01*
D02*
X762Y280D02*
X698Y280D01*
D02*
X381Y930D02*
X380Y530D01*
D02*
X380Y530D02*
X432Y480D01*
D02*
X432Y480D02*
X563Y480D01*
D02*
X281Y830D02*
X281Y530D01*
D02*
X281Y530D02*
X431Y380D01*
D02*
X181Y530D02*
X431Y280D01*
D02*
X81Y630D02*
X80Y530D01*
D02*
X80Y530D02*
X431Y181D01*
D02*
X981Y1080D02*
X931Y1030D01*
D02*
X1030Y1080D02*
X981Y1080D01*
D02*
X1031Y1140D02*
X1030Y1080D01*
D02*
X1031Y780D02*
X1031Y575D01*
D02*
X931Y879D02*
X1031Y780D01*
D02*
X931Y1030D02*
X931Y879D01*
D02*
X1362Y980D02*
X1304Y980D01*
D02*
X855Y181D02*
X855Y781D01*
D02*
X855Y781D02*
X800Y780D01*
D02*
X698Y180D02*
X855Y181D01*
D02*
X1362Y380D02*
X1304Y380D01*
D02*
X1463Y880D02*
X1400Y880D01*
D02*
X1463Y680D02*
X1400Y680D01*
D02*
X1581Y1066D02*
X1581Y897D01*
D02*
X1581Y496D02*
X1581Y662D01*
D02*
X1680Y1129D02*
X1681Y430D01*
D02*
X1681Y430D02*
X1631Y380D01*
D02*
X1631Y380D02*
X1596Y381D01*
D02*
X1631Y1180D02*
X1680Y1129D01*
D02*
X1596Y1180D02*
X1631Y1180D01*
D02*
X1481Y1130D02*
X1481Y1079D01*
D02*
X1481Y1079D02*
X1400Y1080D01*
D02*
X1530Y1180D02*
X1481Y1130D01*
D02*
X1565Y1180D02*
X1530Y1180D01*
D02*
X681Y1231D02*
X732Y1279D01*
D02*
X681Y1129D02*
X681Y1162D01*
D02*
X80Y1030D02*
X131Y1080D01*
D02*
X630Y1080D02*
X681Y1129D01*
D02*
X732Y1279D02*
X762Y1280D01*
D02*
X81Y830D02*
X80Y1030D01*
D02*
X681Y1198D02*
X681Y1231D01*
D02*
X129Y781D02*
X81Y830D01*
D02*
X131Y1080D02*
X630Y1080D01*
D02*
X161Y780D02*
X129Y781D01*
D02*
X1131Y261D02*
X1131Y199D01*
D02*
X1231Y261D02*
X1231Y199D01*
D02*
X1580Y1330D02*
X1444Y1466D01*
D02*
X1581Y1196D02*
X1580Y1330D01*
D02*
X1481Y329D02*
X1481Y298D01*
D02*
X1473Y264D02*
X1439Y197D01*
D02*
X1530Y380D02*
X1481Y329D01*
D02*
X1565Y381D02*
X1530Y380D01*
D02*
X1280Y1079D02*
X1285Y1140D01*
D02*
X1362Y1080D02*
X1280Y1079D01*
G54D18*
X181Y992D02*
X335Y992D01*
X177Y991D02*
X337Y991D01*
X175Y990D02*
X339Y990D01*
X174Y989D02*
X340Y989D01*
X173Y988D02*
X341Y988D01*
X172Y987D02*
X342Y987D01*
X171Y986D02*
X343Y986D01*
X171Y985D02*
X344Y985D01*
X170Y984D02*
X345Y984D01*
X170Y983D02*
X346Y983D01*
X170Y982D02*
X347Y982D01*
X170Y981D02*
X348Y981D01*
X170Y980D02*
X349Y980D01*
X170Y979D02*
X350Y979D01*
X170Y978D02*
X351Y978D01*
X170Y977D02*
X352Y977D01*
X170Y976D02*
X353Y976D01*
X171Y975D02*
X354Y975D01*
X171Y974D02*
X354Y974D01*
X172Y973D02*
X355Y973D01*
X173Y972D02*
X356Y972D01*
X174Y971D02*
X357Y971D01*
X175Y970D02*
X358Y970D01*
X177Y969D02*
X359Y969D01*
X328Y968D02*
X360Y968D01*
X329Y967D02*
X361Y967D01*
X330Y966D02*
X362Y966D01*
X331Y965D02*
X363Y965D01*
X332Y964D02*
X364Y964D01*
X333Y963D02*
X365Y963D01*
X334Y962D02*
X366Y962D01*
X335Y961D02*
X367Y961D01*
X336Y960D02*
X368Y960D01*
X337Y959D02*
X369Y959D01*
X338Y958D02*
X370Y958D01*
X339Y957D02*
X371Y957D01*
X340Y956D02*
X372Y956D01*
X340Y955D02*
X373Y955D01*
X341Y954D02*
X374Y954D01*
X342Y953D02*
X375Y953D01*
X343Y952D02*
X376Y952D01*
X344Y951D02*
X377Y951D01*
X345Y950D02*
X378Y950D01*
X346Y949D02*
X379Y949D01*
X347Y948D02*
X380Y948D01*
X348Y947D02*
X381Y947D01*
X349Y946D02*
X382Y946D01*
X350Y945D02*
X383Y945D01*
X351Y944D02*
X384Y944D01*
X352Y943D02*
X385Y943D01*
X353Y942D02*
X386Y942D01*
X354Y941D02*
X387Y941D01*
X355Y940D02*
X388Y940D01*
X356Y939D02*
X389Y939D01*
X357Y938D02*
X389Y938D01*
X358Y937D02*
X390Y937D01*
X359Y936D02*
X391Y936D01*
X360Y935D02*
X391Y935D01*
X361Y934D02*
X392Y934D01*
X362Y933D02*
X392Y933D01*
X363Y932D02*
X392Y932D01*
X364Y931D02*
X392Y931D01*
X365Y930D02*
X392Y930D01*
X366Y929D02*
X392Y929D01*
X367Y928D02*
X392Y928D01*
X368Y927D02*
X392Y927D01*
X369Y926D02*
X392Y926D01*
X370Y925D02*
X391Y925D01*
X371Y924D02*
X391Y924D01*
X372Y923D02*
X390Y923D01*
X373Y922D02*
X389Y922D01*
X374Y921D02*
X388Y921D01*
X375Y920D02*
X387Y920D01*
X377Y919D02*
X385Y919D01*
X180Y892D02*
X192Y892D01*
X177Y891D02*
X234Y891D01*
X175Y890D02*
X236Y890D01*
X174Y889D02*
X238Y889D01*
X173Y888D02*
X239Y888D01*
X172Y887D02*
X240Y887D01*
X171Y886D02*
X241Y886D01*
X171Y885D02*
X242Y885D01*
X170Y884D02*
X243Y884D01*
X170Y883D02*
X244Y883D01*
X170Y882D02*
X245Y882D01*
X170Y881D02*
X246Y881D01*
X170Y880D02*
X247Y880D01*
X170Y879D02*
X248Y879D01*
X170Y878D02*
X249Y878D01*
X170Y877D02*
X250Y877D01*
X170Y876D02*
X251Y876D01*
X171Y875D02*
X252Y875D01*
X171Y874D02*
X253Y874D01*
X172Y873D02*
X254Y873D01*
X173Y872D02*
X255Y872D01*
X174Y871D02*
X256Y871D01*
X175Y870D02*
X257Y870D01*
X177Y869D02*
X258Y869D01*
X193Y868D02*
X259Y868D01*
X227Y867D02*
X260Y867D01*
X228Y866D02*
X261Y866D01*
X229Y865D02*
X262Y865D01*
X230Y864D02*
X263Y864D01*
X231Y863D02*
X264Y863D01*
X232Y862D02*
X265Y862D01*
X233Y861D02*
X266Y861D01*
X234Y860D02*
X267Y860D01*
X235Y859D02*
X268Y859D01*
X236Y858D02*
X269Y858D01*
X237Y857D02*
X270Y857D01*
X238Y856D02*
X271Y856D01*
X239Y855D02*
X272Y855D01*
X240Y854D02*
X273Y854D01*
X241Y853D02*
X274Y853D01*
X242Y852D02*
X275Y852D01*
X243Y851D02*
X276Y851D01*
X244Y850D02*
X277Y850D01*
X245Y849D02*
X278Y849D01*
X246Y848D02*
X279Y848D01*
X247Y847D02*
X280Y847D01*
X248Y846D02*
X282Y846D01*
X249Y845D02*
X283Y845D01*
X250Y844D02*
X284Y844D01*
X251Y843D02*
X285Y843D01*
X252Y842D02*
X286Y842D01*
X253Y841D02*
X287Y841D01*
X254Y840D02*
X288Y840D01*
X255Y839D02*
X289Y839D01*
X256Y838D02*
X290Y838D01*
X257Y837D02*
X290Y837D01*
X258Y836D02*
X291Y836D01*
X259Y835D02*
X291Y835D01*
X260Y834D02*
X292Y834D01*
X262Y833D02*
X292Y833D01*
X263Y832D02*
X292Y832D01*
X264Y831D02*
X292Y831D01*
X265Y830D02*
X292Y830D01*
X266Y829D02*
X292Y829D01*
X267Y828D02*
X292Y828D01*
X268Y827D02*
X292Y827D01*
X269Y826D02*
X292Y826D01*
X270Y825D02*
X291Y825D01*
X271Y824D02*
X291Y824D01*
X272Y823D02*
X290Y823D01*
X273Y822D02*
X289Y822D01*
X274Y821D02*
X288Y821D01*
X275Y820D02*
X287Y820D01*
X277Y819D02*
X285Y819D01*
X128Y692D02*
X183Y692D01*
X125Y691D02*
X186Y691D01*
X123Y690D02*
X187Y690D01*
X122Y689D02*
X189Y689D01*
X121Y688D02*
X190Y688D01*
X120Y687D02*
X190Y687D01*
X119Y686D02*
X191Y686D01*
X118Y685D02*
X192Y685D01*
X117Y684D02*
X192Y684D01*
X116Y683D02*
X192Y683D01*
X115Y682D02*
X192Y682D01*
X114Y681D02*
X192Y681D01*
X113Y680D02*
X193Y680D01*
X112Y679D02*
X192Y679D01*
X111Y678D02*
X192Y678D01*
X110Y677D02*
X192Y677D01*
X109Y676D02*
X192Y676D01*
X108Y675D02*
X191Y675D01*
X107Y674D02*
X191Y674D01*
X106Y673D02*
X190Y673D01*
X105Y672D02*
X189Y672D01*
X104Y671D02*
X188Y671D01*
X103Y670D02*
X187Y670D01*
X103Y669D02*
X185Y669D01*
X102Y668D02*
X134Y668D01*
X101Y667D02*
X133Y667D01*
X100Y666D02*
X132Y666D01*
X99Y665D02*
X131Y665D01*
X98Y664D02*
X130Y664D01*
X97Y663D02*
X129Y663D01*
X96Y662D02*
X128Y662D01*
X95Y661D02*
X127Y661D01*
X94Y660D02*
X126Y660D01*
X93Y659D02*
X125Y659D01*
X92Y658D02*
X124Y658D01*
X91Y657D02*
X123Y657D01*
X90Y656D02*
X122Y656D01*
X89Y655D02*
X121Y655D01*
X88Y654D02*
X120Y654D01*
X87Y653D02*
X119Y653D01*
X86Y652D02*
X118Y652D01*
X85Y651D02*
X117Y651D01*
X84Y650D02*
X117Y650D01*
X83Y649D02*
X116Y649D01*
X82Y648D02*
X115Y648D01*
X81Y647D02*
X114Y647D01*
X80Y646D02*
X113Y646D01*
X79Y645D02*
X112Y645D01*
X78Y644D02*
X111Y644D01*
X77Y643D02*
X110Y643D01*
X76Y642D02*
X109Y642D01*
X75Y641D02*
X108Y641D01*
X74Y640D02*
X107Y640D01*
X73Y639D02*
X106Y639D01*
X73Y638D02*
X105Y638D01*
X72Y637D02*
X104Y637D01*
X71Y636D02*
X103Y636D01*
X71Y635D02*
X102Y635D01*
X70Y634D02*
X101Y634D01*
X70Y633D02*
X100Y633D01*
X70Y632D02*
X99Y632D01*
X70Y631D02*
X98Y631D01*
X70Y630D02*
X97Y630D01*
X70Y629D02*
X96Y629D01*
X70Y628D02*
X95Y628D01*
X70Y627D02*
X94Y627D01*
X70Y626D02*
X93Y626D01*
X71Y625D02*
X92Y625D01*
X71Y624D02*
X91Y624D01*
X72Y623D02*
X90Y623D01*
X73Y622D02*
X89Y622D01*
X74Y621D02*
X88Y621D01*
X75Y620D02*
X87Y620D01*
X77Y619D02*
X85Y619D01*
X179Y593D02*
X183Y593D01*
X176Y592D02*
X186Y592D01*
X175Y591D02*
X188Y591D01*
X173Y590D02*
X189Y590D01*
X172Y589D02*
X190Y589D01*
X172Y588D02*
X191Y588D01*
X171Y587D02*
X191Y587D01*
X171Y586D02*
X192Y586D01*
X170Y585D02*
X192Y585D01*
X170Y584D02*
X192Y584D01*
X170Y583D02*
X192Y583D01*
X170Y582D02*
X193Y582D01*
X170Y581D02*
X193Y581D01*
X170Y580D02*
X193Y580D01*
X170Y579D02*
X193Y579D01*
X170Y578D02*
X193Y578D01*
X170Y577D02*
X193Y577D01*
X170Y576D02*
X193Y576D01*
X170Y575D02*
X193Y575D01*
X170Y574D02*
X193Y574D01*
X170Y573D02*
X193Y573D01*
X170Y572D02*
X193Y572D01*
X170Y571D02*
X193Y571D01*
X170Y570D02*
X193Y570D01*
X170Y569D02*
X193Y569D01*
X170Y568D02*
X193Y568D01*
X170Y567D02*
X193Y567D01*
X170Y566D02*
X193Y566D01*
X170Y565D02*
X193Y565D01*
X170Y564D02*
X193Y564D01*
X170Y563D02*
X193Y563D01*
X170Y562D02*
X193Y562D01*
X170Y561D02*
X193Y561D01*
X170Y560D02*
X193Y560D01*
X170Y559D02*
X193Y559D01*
X170Y558D02*
X193Y558D01*
X170Y557D02*
X193Y557D01*
X170Y556D02*
X193Y556D01*
X170Y555D02*
X193Y555D01*
X170Y554D02*
X193Y554D01*
X170Y553D02*
X193Y553D01*
X170Y552D02*
X193Y552D01*
X170Y551D02*
X193Y551D01*
X170Y550D02*
X193Y550D01*
X170Y549D02*
X193Y549D01*
X170Y548D02*
X193Y548D01*
X170Y547D02*
X193Y547D01*
X170Y546D02*
X193Y546D01*
X170Y545D02*
X193Y545D01*
X170Y544D02*
X193Y544D01*
X170Y543D02*
X193Y543D01*
X170Y542D02*
X193Y542D01*
X170Y541D02*
X193Y541D01*
X170Y540D02*
X193Y540D01*
X170Y539D02*
X193Y539D01*
X170Y538D02*
X193Y538D01*
X170Y537D02*
X193Y537D01*
X170Y536D02*
X193Y536D01*
X170Y535D02*
X193Y535D01*
X170Y534D02*
X193Y534D01*
X170Y533D02*
X193Y533D01*
X170Y532D02*
X193Y532D01*
X170Y531D02*
X193Y531D01*
X170Y530D02*
X193Y530D01*
X170Y529D02*
X193Y529D01*
X170Y528D02*
X193Y528D01*
X171Y527D02*
X193Y527D01*
X171Y526D02*
X192Y526D01*
X172Y525D02*
X192Y525D01*
X172Y524D02*
X191Y524D01*
X173Y523D02*
X191Y523D01*
X174Y522D02*
X190Y522D01*
X175Y521D02*
X189Y521D01*
X176Y520D02*
X187Y520D01*
X178Y519D02*
X185Y519D01*
X431Y392D02*
X583Y392D01*
X427Y391D02*
X586Y391D01*
X425Y390D02*
X587Y390D01*
X424Y389D02*
X589Y389D01*
X423Y388D02*
X590Y388D01*
X422Y387D02*
X590Y387D01*
X422Y386D02*
X591Y386D01*
X421Y385D02*
X591Y385D01*
X421Y384D02*
X592Y384D01*
X420Y383D02*
X592Y383D01*
X420Y382D02*
X592Y382D01*
X420Y381D02*
X592Y381D01*
X420Y380D02*
X592Y380D01*
X420Y379D02*
X592Y379D01*
X420Y378D02*
X592Y378D01*
X420Y377D02*
X592Y377D01*
X421Y376D02*
X592Y376D01*
X421Y375D02*
X591Y375D01*
X422Y374D02*
X591Y374D01*
X422Y373D02*
X590Y373D01*
X423Y372D02*
X589Y372D01*
X424Y371D02*
X588Y371D01*
X425Y370D02*
X586Y370D01*
X427Y369D02*
X584Y369D01*
X428Y292D02*
X583Y292D01*
X426Y291D02*
X586Y291D01*
X425Y290D02*
X587Y290D01*
X423Y289D02*
X589Y289D01*
X423Y288D02*
X590Y288D01*
X422Y287D02*
X590Y287D01*
X421Y286D02*
X591Y286D01*
X421Y285D02*
X591Y285D01*
X420Y284D02*
X592Y284D01*
X420Y283D02*
X592Y283D01*
X420Y282D02*
X592Y282D01*
X420Y281D02*
X592Y281D01*
X420Y280D02*
X592Y280D01*
X420Y279D02*
X592Y279D01*
X420Y278D02*
X592Y278D01*
X421Y277D02*
X592Y277D01*
X421Y276D02*
X592Y276D01*
X421Y275D02*
X591Y275D01*
X422Y274D02*
X591Y274D01*
X423Y273D02*
X590Y273D01*
X424Y272D02*
X589Y272D01*
X425Y271D02*
X588Y271D01*
X426Y270D02*
X586Y270D01*
X429Y269D02*
X584Y269D01*
X431Y193D02*
X456Y193D01*
X427Y192D02*
X583Y192D01*
X425Y191D02*
X586Y191D01*
X424Y190D02*
X588Y190D01*
X423Y189D02*
X589Y189D01*
X422Y188D02*
X590Y188D01*
X422Y187D02*
X590Y187D01*
X421Y186D02*
X591Y186D01*
X421Y185D02*
X591Y185D01*
X420Y184D02*
X592Y184D01*
X420Y183D02*
X592Y183D01*
X420Y182D02*
X592Y182D01*
X420Y181D02*
X592Y181D01*
X420Y180D02*
X592Y180D01*
X420Y179D02*
X592Y179D01*
X420Y178D02*
X592Y178D01*
X421Y177D02*
X592Y177D01*
X421Y176D02*
X592Y176D01*
X422Y175D02*
X591Y175D01*
X422Y174D02*
X591Y174D01*
X423Y173D02*
X590Y173D01*
X424Y172D02*
X589Y172D01*
X426Y171D02*
X588Y171D01*
X428Y170D02*
X586Y170D01*
X459Y169D02*
X584Y169D01*
D02*
G04 End of Copper0*
M02*